PowerhouseFilar-BoldItalic.ufo
<glyph name="exclam" format="2">
  <advance width="255"/>
  <unicode hex="0021"/>
  <outline>
    <contour>
      <point x="286" y="700" type="line"/>
      <point x="127" y="700" type="line"/>
      <point x="77" y="217" type="line"/>
      <point x="166" y="217" type="line"/>
    </contour>
    <component base="period" xScale="-1" yScale="-1" xOffset="198" yOffset="149"/>
  </outline>
</glyph>
<glyph name="quotedbl" format="2">
  <advance width="423"/>
  <unicode hex="0022"/>
  <outline>
    <contour>
      <point x="109" y="700" type="line"/>
      <point x="75" y="364" type="line"/>
      <point x="181" y="364" type="line"/>
      <point x="267" y="700" type="line"/>
    </contour>
    <contour>
      <point x="310" y="700" type="line"/>
      <point x="276" y="364" type="line"/>
      <point x="382" y="364" type="line"/>
      <point x="468" y="700" type="line"/>
    </contour>
  </outline>
</glyph>
<glyph name="percent" format="2">
  <advance width="755"/>
  <unicode hex="0025"/>
  <outline>
    <contour>
      <point x="235" y="617" type="curve" smooth="yes"/>
      <point x="262" y="617"/>
      <point x="275" y="594"/>
      <point x="275" y="556" type="curve" smooth="yes"/>
      <point x="275" y="499"/>
      <point x="252" y="431"/>
      <point x="205" y="431" type="curve" smooth="yes"/>
      <point x="178" y="431"/>
      <point x="165" y="454"/>
      <point x="165" y="492" type="curve" smooth="yes"/>
      <point x="165" y="548"/>
      <point x="188" y="617"/>
    </contour>
    <contour>
      <point x="585" y="269" type="curve" smooth="yes"/>
      <point x="612" y="269"/>
      <point x="625" y="246"/>
      <point x="625" y="208" type="curve" smooth="yes"/>
      <point x="625" y="151"/>
      <point x="602" y="83"/>
      <point x="555" y="83" type="curve" smooth="yes"/>
      <point x="528" y="83"/>
      <point x="515" y="106"/>
      <point x="515" y="144" type="curve" smooth="yes"/>
      <point x="515" y="200"/>
      <point x="538" y="269"/>
    </contour>
    <contour>
      <point x="245" y="707" type="curve" smooth="yes"/>
      <point x="125" y="707"/>
      <point x="62" y="596"/>
      <point x="62" y="485" type="curve" smooth="yes"/>
      <point x="62" y="396"/>
      <point x="115" y="341"/>
      <point x="195" y="341" type="curve" smooth="yes"/>
      <point x="315" y="341"/>
      <point x="378" y="452"/>
      <point x="378" y="563" type="curve" smooth="yes"/>
      <point x="378" y="652"/>
      <point x="325" y="707"/>
    </contour>
    <contour>
      <point x="595" y="359" type="curve" smooth="yes"/>
      <point x="475" y="359"/>
      <point x="412" y="248"/>
      <point x="412" y="137" type="curve" smooth="yes"/>
      <point x="412" y="48"/>
      <point x="465" y="-7"/>
      <point x="545" y="-7" type="curve" smooth="yes"/>
      <point x="665" y="-7"/>
      <point x="728" y="104"/>
      <point x="728" y="215" type="curve" smooth="yes"/>
      <point x="728" y="304"/>
      <point x="675" y="359"/>
    </contour>
    <contour>
      <point x="643" y="700" type="line"/>
      <point x="24" y="0" type="line"/>
      <point x="147" y="0" type="line"/>
      <point x="766" y="700" type="line"/>
    </contour>
  </outline>
</glyph>
<glyph name="ampersand" format="2">
  <advance width="665"/>
  <unicode hex="0026"/>
  <outline>
    <contour>
      <point x="336" y="335" type="curve"/>
      <point x="276" y="429" type="line"/>
      <point x="119" y="388"/>
      <point x="5" y="318"/>
      <point x="5" y="175" type="curve" smooth="yes"/>
      <point x="5" y="66"/>
      <point x="77" y="-12"/>
      <point x="240" y="-12" type="curve" smooth="yes"/>
      <point x="448" y="-12"/>
      <point x="587" y="136"/>
      <point x="661" y="349" type="curve"/>
      <point x="541" y="368" type="line"/>
      <point x="470" y="178"/>
      <point x="374" y="104"/>
      <point x="266" y="104" type="curve" smooth="yes"/>
      <point x="208" y="104"/>
      <point x="157" y="127"/>
      <point x="157" y="190" type="curve" smooth="yes"/>
      <point x="157" y="254"/>
      <point x="199" y="305"/>
    </contour>
    <contour>
      <point x="625" y="0" type="line"/>
      <point x="330" y="435" type="line" smooth="yes"/>
      <point x="300" y="479"/>
      <point x="291" y="501"/>
      <point x="291" y="527" type="curve" smooth="yes"/>
      <point x="291" y="568"/>
      <point x="320" y="602"/>
      <point x="369" y="602" type="curve" smooth="yes"/>
      <point x="402" y="602"/>
      <point x="428" y="586"/>
      <point x="428" y="548" type="curve" smooth="yes"/>
      <point x="428" y="507"/>
      <point x="400" y="475"/>
      <point x="291" y="430" type="curve"/>
      <point x="349" y="341" type="line"/>
      <point x="495" y="393"/>
      <point x="563" y="465"/>
      <point x="563" y="559" type="curve" smooth="yes"/>
      <point x="563" y="645"/>
      <point x="507" y="712"/>
      <point x="382" y="712" type="curve" smooth="yes"/>
      <point x="219" y="712"/>
      <point x="154" y="603"/>
      <point x="154" y="508" type="curve" smooth="yes"/>
      <point x="154" y="449"/>
      <point x="183" y="409"/>
      <point x="202" y="381" type="curve" smooth="yes"/>
      <point x="464" y="0" type="line"/>
    </contour>
  </outline>
</glyph>
<glyph name="parenleft" format="2">
  <advance width="379"/>
  <unicode hex="0028"/>
  <outline>
    <contour>
      <point x="493" y="745" type="curve"/>
      <point x="334" y="745" type="line"/>
      <point x="150" y="615"/>
      <point x="35" y="427"/>
      <point x="35" y="241" type="curve" smooth="yes"/>
      <point x="35" y="112"/>
      <point x="89" y="-15"/>
      <point x="183" y="-113" type="curve"/>
      <point x="328" y="-113" type="line"/>
      <point x="237" y="-14"/>
      <point x="189" y="103"/>
      <point x="189" y="226" type="curve" smooth="yes"/>
      <point x="189" y="414"/>
      <point x="287" y="597"/>
    </contour>
  </outline>
</glyph>
<glyph name="asterisk" format="2">
  <advance width="430"/>
  <unicode hex="002A"/>
  <outline>
    <contour>
      <point x="138" y="291" type="line"/>
      <point x="243" y="407" type="line"/>
      <point x="307" y="291" type="line"/>
      <point x="391" y="346" type="line"/>
      <point x="326" y="466" type="line"/>
      <point x="473" y="512" type="line"/>
      <point x="459" y="603" type="line"/>
      <point x="316" y="559" type="line"/>
      <point x="341" y="700" type="line"/>
      <point x="243" y="700" type="line"/>
      <point x="219" y="566" type="line"/>
      <point x="92" y="609" type="line"/>
      <point x="49" y="521" type="line"/>
      <point x="177" y="477" type="line"/>
      <point x="65" y="352" type="line"/>
    </contour>
  </outline>
</glyph>
<glyph name="plus" format="2">
  <advance width="576"/>
  <unicode hex="002B"/>
  <outline>
    <contour>
      <point x="537" y="280" type="line"/>
      <point x="559" y="400" type="line"/>
      <point x="71" y="400" type="line"/>
      <point x="49" y="280" type="line"/>
    </contour>
    <contour>
      <point x="412" y="594" type="line"/>
      <point x="286" y="594" type="line"/>
      <point x="196" y="86" type="line"/>
      <point x="322" y="86" type="line"/>
    </contour>
  </outline>
</glyph>
<glyph name="comma" format="2">
  <advance width="265"/>
  <unicode hex="002C"/>
  <outline>
    <contour>
      <point x="41" y="149" type="line"/>
      <point x="15" y="0" type="line"/>
      <point x="83" y="0" type="line"/>
      <point x="81" y="-12" type="line" smooth="yes"/>
      <point x="73" y="-63"/>
      <point x="49" y="-97"/>
      <point x="-22" y="-97" type="curve"/>
      <point x="-33" y="-161" type="line"/>
      <point x="91" y="-161"/>
      <point x="145" y="-96"/>
      <point x="160" y="-12" type="curve" smooth="yes"/>
      <point x="188" y="149" type="line"/>
    </contour>
  </outline>
</glyph>
<glyph name="period" format="2">
  <advance width="265"/>
  <unicode hex="002E"/>
  <outline>
    <contour>
      <point x="41" y="149" type="line"/>
      <point x="15" y="0" type="line"/>
      <point x="162" y="0" type="line"/>
      <point x="188" y="149" type="line"/>
    </contour>
  </outline>
</glyph>
<glyph name="slash" format="2">
  <advance width="453"/>
  <unicode hex="002F"/>
  <outline>
    <contour>
      <point x="402" y="745" type="line"/>
      <point x="-113" y="-113" type="line"/>
      <point x="42" y="-113" type="line"/>
      <point x="557" y="745" type="line"/>
    </contour>
  </outline>
</glyph>
<glyph name="zero" format="2">
  <advance width="598"/>
  <unicode hex="0030"/>
  <outline>
    <contour>
      <point x="366" y="712" type="curve" smooth="yes"/>
      <point x="154" y="712"/>
      <point x="39" y="476"/>
      <point x="39" y="258" type="curve" smooth="yes"/>
      <point x="39" y="88"/>
      <point x="121" y="-12"/>
      <point x="262" y="-12" type="curve" smooth="yes"/>
      <point x="474" y="-12"/>
      <point x="589" y="224"/>
      <point x="589" y="442" type="curve" smooth="yes"/>
      <point x="589" y="612"/>
      <point x="507" y="712"/>
    </contour>
    <contour>
      <point x="353" y="589" type="curve" smooth="yes"/>
      <point x="413" y="589"/>
      <point x="445" y="542"/>
      <point x="445" y="445" type="curve" smooth="yes"/>
      <point x="445" y="312"/>
      <point x="395" y="111"/>
      <point x="275" y="111" type="curve" smooth="yes"/>
      <point x="215" y="111"/>
      <point x="183" y="159"/>
      <point x="183" y="255" type="curve" smooth="yes"/>
      <point x="183" y="389"/>
      <point x="233" y="589"/>
    </contour>
  </outline>
</glyph>
<glyph name="two" format="2">
  <advance width="545"/>
  <unicode hex="0032"/>
  <outline>
    <contour>
      <point x="97" y="120" type="line"/>
      <point x="119" y="59" type="line"/>
      <point x="390" y="239"/>
      <point x="556" y="360"/>
      <point x="556" y="520" type="curve" smooth="yes"/>
      <point x="556" y="624"/>
      <point x="485" y="712"/>
      <point x="338" y="712" type="curve" smooth="yes"/>
      <point x="174" y="712"/>
      <point x="71" y="603"/>
      <point x="71" y="477" type="curve" smooth="yes"/>
      <point x="71" y="460"/>
      <point x="73" y="440"/>
      <point x="80" y="422" type="curve"/>
      <point x="219" y="437" type="line"/>
      <point x="214" y="451"/>
      <point x="212" y="465"/>
      <point x="212" y="478" type="curve" smooth="yes"/>
      <point x="212" y="535"/>
      <point x="252" y="586"/>
      <point x="324" y="586" type="curve" smooth="yes"/>
      <point x="383" y="586"/>
      <point x="410" y="552"/>
      <point x="410" y="505" type="curve" smooth="yes"/>
      <point x="410" y="399"/>
      <point x="275" y="310"/>
      <point x="9" y="117" type="curve"/>
      <point x="-12" y="0" type="line"/>
      <point x="470" y="0" type="line"/>
      <point x="491" y="120" type="line"/>
    </contour>
  </outline>
</glyph>
<glyph name="four" format="2">
  <advance width="621"/>
  <unicode hex="0034"/>
  <outline>
    <contour>
      <point x="564" y="700" type="line"/>
      <point x="410" y="700" type="line"/>
      <point x="28" y="276" type="line"/>
      <point x="7" y="160" type="line"/>
      <point x="581" y="160" type="line"/>
      <point x="602" y="275" type="line"/>
      <point x="82" y="275" type="line"/>
      <point x="119" y="211" type="line"/>
      <point x="526" y="661" type="line"/>
      <point x="416" y="661" type="line"/>
      <point x="299" y="0" type="line"/>
      <point x="440" y="0" type="line"/>
    </contour>
  </outline>
</glyph>
<glyph name="five" format="2">
  <advance width="560"/>
  <unicode hex="0035"/>
  <outline>
    <contour>
      <point x="284" y="660" type="line"/>
      <point x="200" y="580" type="line"/>
      <point x="569" y="580" type="line"/>
      <point x="590" y="700" type="line"/>
      <point x="166" y="700" type="line"/>
      <point x="63" y="312" type="line"/>
      <point x="189" y="291" type="line"/>
      <point x="213" y="332"/>
      <point x="251" y="361"/>
      <point x="305" y="361" type="curve" smooth="yes"/>
      <point x="366" y="361"/>
      <point x="395" y="326"/>
      <point x="395" y="262" type="curve" smooth="yes"/>
      <point x="395" y="183"/>
      <point x="351" y="104"/>
      <point x="261" y="104" type="curve" smooth="yes"/>
      <point x="193" y="104"/>
      <point x="168" y="145"/>
      <point x="168" y="187" type="curve" smooth="yes"/>
      <point x="168" y="192"/>
      <point x="169" y="196"/>
      <point x="169" y="200" type="curve"/>
      <point x="17" y="222" type="line"/>
      <point x="15" y="209"/>
      <point x="14" y="196"/>
      <point x="14" y="184" type="curve" smooth="yes"/>
      <point x="14" y="56"/>
      <point x="116" y="-12"/>
      <point x="250" y="-12" type="curve" smooth="yes"/>
      <point x="438" y="-12"/>
      <point x="541" y="125"/>
      <point x="541" y="283" type="curve" smooth="yes"/>
      <point x="541" y="405"/>
      <point x="472" y="473"/>
      <point x="359" y="473" type="curve" smooth="yes"/>
      <point x="255" y="473"/>
      <point x="186" y="413"/>
      <point x="159" y="358" type="curve"/>
      <point x="203" y="356" type="line"/>
    </contour>
  </outline>
</glyph>
<glyph name="seven" format="2">
  <advance width="575"/>
  <unicode hex="0037"/>
  <outline>
    <contour>
      <point x="115" y="700" type="line"/>
      <point x="71" y="452" type="line"/>
      <point x="210" y="452" type="line"/>
      <point x="238" y="612" type="line"/>
      <point x="178" y="580" type="line"/>
      <point x="560" y="580" type="line"/>
      <point x="508" y="628" type="line"/>
      <point x="324" y="422"/>
      <point x="149" y="243"/>
      <point x="91" y="0" type="curve"/>
      <point x="245" y="0" type="line"/>
      <point x="300" y="239"/>
      <point x="457" y="397"/>
      <point x="630" y="591" type="curve"/>
      <point x="650" y="700" type="line"/>
    </contour>
  </outline>
</glyph>
<glyph name="eight" format="2">
  <advance width="572"/>
  <unicode hex="0038"/>
  <outline>
    <contour>
      <point x="345" y="602" type="curve" smooth="yes"/>
      <point x="403" y="602"/>
      <point x="442" y="568"/>
      <point x="442" y="519" type="curve" smooth="yes"/>
      <point x="442" y="465"/>
      <point x="393" y="424"/>
      <point x="326" y="424" type="curve" smooth="yes"/>
      <point x="268" y="424"/>
      <point x="229" y="456"/>
      <point x="229" y="505" type="curve" smooth="yes"/>
      <point x="229" y="559"/>
      <point x="278" y="602"/>
    </contour>
    <contour>
      <point x="357" y="712" type="curve" smooth="yes"/>
      <point x="201" y="712"/>
      <point x="90" y="617"/>
      <point x="90" y="503" type="curve" smooth="yes"/>
      <point x="90" y="426"/>
      <point x="147" y="383"/>
      <point x="211" y="369" type="curve"/>
      <point x="214" y="387" type="line"/>
      <point x="102" y="369"/>
      <point x="15" y="296"/>
      <point x="15" y="182" type="curve" smooth="yes"/>
      <point x="15" y="71"/>
      <point x="106" y="-12"/>
      <point x="258" y="-12" type="curve" smooth="yes"/>
      <point x="433" y="-12"/>
      <point x="547" y="99"/>
      <point x="547" y="225" type="curve" smooth="yes"/>
      <point x="547" y="311"/>
      <point x="488" y="362"/>
      <point x="412" y="381" type="curve"/>
      <point x="409" y="363" type="line"/>
      <point x="493" y="374"/>
      <point x="584" y="429"/>
      <point x="584" y="535" type="curve" smooth="yes"/>
      <point x="584" y="640"/>
      <point x="493" y="712"/>
    </contour>
    <contour>
      <point x="297" y="319" type="curve" smooth="yes"/>
      <point x="361" y="319"/>
      <point x="404" y="282"/>
      <point x="404" y="223" type="curve" smooth="yes"/>
      <point x="404" y="155"/>
      <point x="346" y="100"/>
      <point x="268" y="100" type="curve" smooth="yes"/>
      <point x="204" y="100"/>
      <point x="160" y="140"/>
      <point x="160" y="199" type="curve" smooth="yes"/>
      <point x="160" y="267"/>
      <point x="219" y="319"/>
    </contour>
  </outline>
</glyph>
<glyph name="at" format="2">
  <advance width="862"/>
  <unicode hex="0040"/>
  <outline>
    <contour>
      <point x="24" y="162" type="curve" smooth="yes"/>
      <point x="24" y="-21"/>
      <point x="140" y="-140"/>
      <point x="365" y="-140" type="curve" smooth="yes"/>
      <point x="456" y="-140"/>
      <point x="546" y="-119"/>
      <point x="621" y="-79" type="curve"/>
      <point x="600" y="4" type="line"/>
      <point x="534" y="-27"/>
      <point x="459" y="-49"/>
      <point x="375" y="-49" type="curve" smooth="yes"/>
      <point x="201" y="-49"/>
      <point x="120" y="36"/>
      <point x="120" y="171" type="curve" smooth="yes"/>
      <point x="120" y="383"/>
      <point x="282" y="557"/>
      <point x="506" y="557" type="curve" smooth="yes"/>
      <point x="629" y="557"/>
      <point x="745" y="502"/>
      <point x="745" y="352" type="curve" smooth="yes"/>
      <point x="745" y="248"/>
      <point x="693" y="146"/>
      <point x="617" y="146" type="curve" smooth="yes"/>
      <point x="589" y="146"/>
      <point x="570" y="160"/>
      <point x="582" y="200" type="curve" smooth="yes"/>
      <point x="654" y="451" type="line"/>
      <point x="549" y="451" type="line"/>
      <point x="536" y="404" type="line"/>
      <point x="520" y="437"/>
      <point x="484" y="457"/>
      <point x="437" y="457" type="curve" smooth="yes"/>
      <point x="314" y="457"/>
      <point x="219" y="323"/>
      <point x="219" y="197" type="curve" smooth="yes"/>
      <point x="219" y="105"/>
      <point x="277" y="52"/>
      <point x="354" y="52" type="curve" smooth="yes"/>
      <point x="398" y="52"/>
      <point x="439" y="69"/>
      <point x="472" y="103" type="curve"/>
      <point x="487" y="69"/>
      <point x="529" y="52"/>
      <point x="582" y="52" type="curve" smooth="yes"/>
      <point x="737" y="52"/>
      <point x="841" y="170"/>
      <point x="841" y="363" type="curve" smooth="yes"/>
      <point x="841" y="548"/>
      <point x="695" y="646"/>
      <point x="518" y="646" type="curve" smooth="yes"/>
      <point x="232" y="646"/>
      <point x="24" y="440"/>
    </contour>
    <contour>
      <point x="502" y="296" type="curve" smooth="yes"/>
      <point x="502" y="231"/>
      <point x="461" y="142"/>
      <point x="388" y="142" type="curve" smooth="yes"/>
      <point x="350" y="142"/>
      <point x="328" y="166"/>
      <point x="328" y="213" type="curve" smooth="yes"/>
      <point x="328" y="278"/>
      <point x="368" y="367"/>
      <point x="441" y="367" type="curve" smooth="yes"/>
      <point x="479" y="367"/>
      <point x="502" y="343"/>
    </contour>
  </outline>
</glyph>
<glyph name="A" format="2">
  <advance width="670"/>
  <unicode hex="0041"/>
  <outline>
    <contour>
      <point x="163" y="272" type="line"/>
      <point x="142" y="150" type="line"/>
      <point x="491" y="150" type="line"/>
      <point x="512" y="272" type="line"/>
    </contour>
    <contour>
      <point x="486" y="0" type="line"/>
      <point x="627" y="0" type="line"/>
      <point x="494" y="700" type="line"/>
      <point x="338" y="700" type="line"/>
      <point x="-47" y="0" type="line"/>
      <point x="105" y="0" type="line"/>
      <point x="453" y="644" type="line"/>
      <point x="370" y="644" type="line"/>
    </contour>
  </outline>
</glyph>
<glyph name="C" format="2">
  <advance width="745"/>
  <unicode hex="0043"/>
  <guideline x="393" y="712" angle="90" name="center" identifier="rB6evpv1cN"/>
  <outline>
    <contour>
      <point x="44" y="292" type="curve" smooth="yes"/>
      <point x="44" y="111"/>
      <point x="169" y="-12"/>
      <point x="354" y="-12" type="curve" smooth="yes"/>
      <point x="509" y="-12"/>
      <point x="641" y="74"/>
      <point x="700" y="203" type="curve"/>
      <point x="575" y="252" type="line"/>
      <point x="529" y="161"/>
      <point x="455" y="115"/>
      <point x="371" y="115" type="curve" smooth="yes"/>
      <point x="270" y="115"/>
      <point x="201" y="183"/>
      <point x="201" y="301" type="curve" smooth="yes"/>
      <point x="201" y="438"/>
      <point x="286" y="583"/>
      <point x="439" y="583" type="curve" smooth="yes"/>
      <point x="524" y="583"/>
      <point x="596" y="539"/>
      <point x="606" y="440" type="curve"/>
      <point x="743" y="472" type="line"/>
      <point x="728" y="609"/>
      <point x="622" y="712"/>
      <point x="454" y="712" type="curve" smooth="yes"/>
      <point x="214" y="712"/>
      <point x="44" y="510"/>
    </contour>
  </outline>
</glyph>
<glyph name="D" format="2">
  <advance width="766"/>
  <unicode hex="0044"/>
  <guideline x="353.2663806552264" y="700.1150546021844" angle="90" name="center" identifier="CqOe9pQ2DS"/>
  <outline>
    <contour>
      <point x="107" y="123" type="line"/>
      <point x="85" y="0" type="line"/>
      <point x="321" y="0" type="line" smooth="yes"/>
      <point x="602" y="0"/>
      <point x="748" y="186"/>
      <point x="748" y="408" type="curve" smooth="yes"/>
      <point x="748" y="580"/>
      <point x="645" y="700"/>
      <point x="443" y="700" type="curve" smooth="yes"/>
      <point x="209" y="700" type="line"/>
      <point x="187" y="577" type="line"/>
      <point x="416" y="577" type="line" smooth="yes"/>
      <point x="520" y="577"/>
      <point x="592" y="525"/>
      <point x="592" y="396" type="curve" smooth="yes"/>
      <point x="592" y="243"/>
      <point x="493" y="123"/>
      <point x="336" y="123" type="curve" smooth="yes"/>
    </contour>
    <contour>
      <point x="147" y="700" type="line"/>
      <point x="23" y="0" type="line"/>
      <point x="173" y="0" type="line"/>
      <point x="297" y="700" type="line"/>
    </contour>
  </outline>
</glyph>
<glyph name="E" format="2">
  <advance width="670"/>
  <unicode hex="0045"/>
  <guideline x="351" y="848" angle="90" name="center" identifier="Pj9EjChW0o"/>
  <outline>
    <contour>
      <point x="147" y="700" type="line"/>
      <point x="23" y="0" type="line"/>
      <point x="173" y="0" type="line"/>
      <point x="297" y="700" type="line"/>
    </contour>
    <contour>
      <point x="186" y="576" type="line"/>
      <point x="680" y="576" type="line"/>
      <point x="702" y="700" type="line"/>
      <point x="208" y="700" type="line"/>
    </contour>
    <contour>
      <point x="146" y="294" type="line"/>
      <point x="492" y="294" type="line"/>
      <point x="514" y="417" type="line"/>
      <point x="168" y="417" type="line"/>
    </contour>
    <contour>
      <point x="88" y="0" type="line"/>
      <point x="596" y="0" type="line"/>
      <point x="618" y="124" type="line"/>
      <point x="110" y="124" type="line"/>
    </contour>
  </outline>
</glyph>
<glyph name="I" format="2">
  <advance width="285"/>
  <unicode hex="0049"/>
  <outline>
    <contour>
      <point x="147" y="700" type="line"/>
      <point x="23" y="0" type="line"/>
      <point x="174" y="0" type="line"/>
      <point x="298" y="700" type="line"/>
    </contour>
    <contour>
      <point x="23" y="0" type="line"/>
      <point x="172" y="0" type="line"/>
      <point x="194" y="124" type="line"/>
      <point x="45" y="124" type="line"/>
    </contour>
    <contour>
      <point x="125" y="576" type="line"/>
      <point x="274" y="576" type="line"/>
      <point x="296" y="700" type="line"/>
      <point x="147" y="700" type="line"/>
    </contour>
  </outline>
</glyph>
<glyph name="J" format="2">
  <advance width="605"/>
  <unicode hex="004A"/>
  <guideline x="468" y="700" angle="90" name="center" identifier="KvoJXLkZyT"/>
  <outline>
    <contour>
      <point x="534" y="212" type="curve" smooth="yes"/>
      <point x="621" y="700" type="line"/>
      <point x="471" y="700" type="line"/>
      <point x="386" y="222" type="line" smooth="yes"/>
      <point x="375" y="162"/>
      <point x="342" y="109"/>
      <point x="268" y="109" type="curve" smooth="yes"/>
      <point x="203" y="109"/>
      <point x="166" y="149"/>
      <point x="166" y="214" type="curve" smooth="yes"/>
      <point x="166" y="225"/>
      <point x="167" y="237"/>
      <point x="169" y="250" type="curve"/>
      <point x="23" y="269" type="line"/>
      <point x="19" y="245"/>
      <point x="17" y="223"/>
      <point x="17" y="202" type="curve" smooth="yes"/>
      <point x="17" y="67"/>
      <point x="111" y="-12"/>
      <point x="262" y="-12" type="curve" smooth="yes"/>
      <point x="421" y="-12"/>
      <point x="509" y="74"/>
    </contour>
  </outline>
</glyph>
<glyph name="K" format="2">
  <advance width="686"/>
  <unicode hex="004B"/>
  <guideline x="346.7728414312337" y="697.9009669494516" angle="90" name="center" identifier="v8QLljHLlV"/>
  <outline>
    <contour>
      <point x="138" y="310" type="line"/>
      <point x="121" y="133" type="line"/>
      <point x="343" y="334" type="line"/>
      <point x="381" y="360" type="line"/>
      <point x="744" y="700" type="line"/>
      <point x="552" y="700" type="line"/>
    </contour>
    <contour>
      <point x="147" y="700" type="line"/>
      <point x="23" y="0" type="line"/>
      <point x="174" y="0" type="line"/>
      <point x="298" y="700" type="line"/>
    </contour>
    <contour>
      <point x="274" y="334" type="line"/>
      <point x="483" y="0" type="line"/>
      <point x="652" y="0" type="line"/>
      <point x="379" y="436" type="line"/>
    </contour>
  </outline>
</glyph>
<glyph name="L" format="2">
  <advance width="630"/>
  <unicode hex="004C"/>
  <guideline x="142" y="700" angle="90" name="acute" identifier="V6HVXnwLb1"/>
  <outline>
    <contour>
      <point x="147" y="700" type="line"/>
      <point x="23" y="0" type="line"/>
      <point x="174" y="0" type="line"/>
      <point x="298" y="700" type="line"/>
    </contour>
    <contour>
      <point x="84" y="0" type="line"/>
      <point x="547" y="0" type="line"/>
      <point x="569" y="124" type="line"/>
      <point x="106" y="124" type="line"/>
    </contour>
  </outline>
</glyph>
<glyph name="O" format="2">
  <advance width="786"/>
  <unicode hex="004F"/>
  <outline>
    <contour>
      <point x="611" y="396" type="curve" smooth="yes"/>
      <point x="611" y="253"/>
      <point x="520" y="116"/>
      <point x="373" y="116" type="curve" smooth="yes"/>
      <point x="270" y="116"/>
      <point x="201" y="186"/>
      <point x="201" y="304" type="curve" smooth="yes"/>
      <point x="201" y="447"/>
      <point x="292" y="584"/>
      <point x="439" y="584" type="curve" smooth="yes"/>
      <point x="542" y="584"/>
      <point x="611" y="514"/>
    </contour>
    <contour>
      <point x="44" y="294" type="curve" smooth="yes"/>
      <point x="44" y="112"/>
      <point x="169" y="-12"/>
      <point x="360" y="-12" type="curve" smooth="yes"/>
      <point x="603" y="-12"/>
      <point x="768" y="177"/>
      <point x="768" y="406" type="curve" smooth="yes"/>
      <point x="768" y="588"/>
      <point x="643" y="712"/>
      <point x="452" y="712" type="curve" smooth="yes"/>
      <point x="209" y="712"/>
      <point x="44" y="523"/>
    </contour>
  </outline>
</glyph>
<glyph name="Q" format="2">
  <advance width="786"/>
  <unicode hex="0051"/>
  <outline>
    <contour>
      <point x="272" y="-51" type="curve" smooth="yes"/>
      <point x="272" y="-146"/>
      <point x="345" y="-185"/>
      <point x="469" y="-185" type="curve" smooth="yes"/>
      <point x="498" y="-185"/>
      <point x="532" y="-183"/>
      <point x="558" y="-179" type="curve"/>
      <point x="578" y="-68" type="line"/>
      <point x="559" y="-70"/>
      <point x="541" y="-71"/>
      <point x="523" y="-71" type="curve" smooth="yes"/>
      <point x="446" y="-71"/>
      <point x="428" y="-51"/>
      <point x="428" y="-26" type="curve" smooth="yes"/>
      <point x="428" y="-22"/>
      <point x="428" y="-18"/>
      <point x="429" y="-14" type="curve" smooth="yes"/>
      <point x="436" y="25" type="line"/>
      <point x="283" y="30" type="line"/>
      <point x="275" y="-15" type="line" smooth="yes"/>
      <point x="273" y="-28"/>
      <point x="272" y="-40"/>
    </contour>
    <contour>
      <point x="611" y="396" type="curve" smooth="yes"/>
      <point x="611" y="253"/>
      <point x="520" y="116"/>
      <point x="373" y="116" type="curve" smooth="yes"/>
      <point x="270" y="116"/>
      <point x="201" y="186"/>
      <point x="201" y="304" type="curve" smooth="yes"/>
      <point x="201" y="447"/>
      <point x="292" y="584"/>
      <point x="439" y="584" type="curve" smooth="yes"/>
      <point x="542" y="584"/>
      <point x="611" y="514"/>
    </contour>
    <contour>
      <point x="44" y="294" type="curve" smooth="yes"/>
      <point x="44" y="112"/>
      <point x="169" y="-12"/>
      <point x="360" y="-12" type="curve" smooth="yes"/>
      <point x="603" y="-12"/>
      <point x="768" y="177"/>
      <point x="768" y="406" type="curve" smooth="yes"/>
      <point x="768" y="588"/>
      <point x="643" y="712"/>
      <point x="452" y="712" type="curve" smooth="yes"/>
      <point x="209" y="712"/>
      <point x="44" y="523"/>
    </contour>
  </outline>
</glyph>
<glyph name="S" format="2">
  <advance width="654"/>
  <unicode hex="0053"/>
  <guideline x="324" y="712" angle="90" name="center" identifier="M5YQhG4xdn"/>
  <outline>
    <contour>
      <point x="20" y="209" type="curve" smooth="yes"/>
      <point x="20" y="76"/>
      <point x="133" y="-13"/>
      <point x="311" y="-13" type="curve" smooth="yes"/>
      <point x="522" y="-13"/>
      <point x="621" y="108"/>
      <point x="621" y="236" type="curve" smooth="yes"/>
      <point x="621" y="334"/>
      <point x="557" y="383"/>
      <point x="449" y="405" type="curve" smooth="yes"/>
      <point x="343" y="427" type="line" smooth="yes"/>
      <point x="260" y="444"/>
      <point x="240" y="467"/>
      <point x="240" y="499" type="curve" smooth="yes"/>
      <point x="240" y="546"/>
      <point x="282" y="592"/>
      <point x="369" y="592" type="curve" smooth="yes"/>
      <point x="452" y="592"/>
      <point x="493" y="549"/>
      <point x="493" y="496" type="curve" smooth="yes"/>
      <point x="493" y="493"/>
      <point x="493" y="491"/>
      <point x="493" y="488" type="curve"/>
      <point x="651" y="480" type="line"/>
      <point x="652" y="488"/>
      <point x="652" y="495"/>
      <point x="652" y="503" type="curve" smooth="yes"/>
      <point x="652" y="618"/>
      <point x="555" y="712"/>
      <point x="387" y="712" type="curve" smooth="yes"/>
      <point x="199" y="712"/>
      <point x="81" y="605"/>
      <point x="81" y="468" type="curve" smooth="yes"/>
      <point x="81" y="368"/>
      <point x="152" y="323"/>
      <point x="265" y="299" type="curve" smooth="yes"/>
      <point x="371" y="276" type="line" smooth="yes"/>
      <point x="440" y="261"/>
      <point x="461" y="240"/>
      <point x="461" y="205" type="curve" smooth="yes"/>
      <point x="461" y="151"/>
      <point x="410" y="107"/>
      <point x="321" y="107" type="curve" smooth="yes"/>
      <point x="230" y="107"/>
      <point x="179" y="153"/>
      <point x="181" y="233" type="curve"/>
      <point x="22" y="246" type="line"/>
      <point x="20" y="233"/>
      <point x="20" y="221"/>
    </contour>
  </outline>
</glyph>
<glyph name="V" format="2">
  <advance width="671"/>
  <unicode hex="0056"/>
  <outline>
    <contour>
      <point x="229" y="700" type="line"/>
      <point x="76" y="700" type="line"/>
      <point x="217" y="0" type="line"/>
      <point x="367" y="0" type="line"/>
      <point x="751" y="700" type="line"/>
      <point x="589" y="700" type="line"/>
      <point x="243" y="57" type="line"/>
      <point x="352" y="57" type="line"/>
    </contour>
  </outline>
</glyph>
<glyph name="W" format="2">
  <advance width="936"/>
  <unicode hex="0057"/>
  <outline>
    <contour>
      <point x="700" y="0" type="line"/>
      <point x="1015" y="700" type="line"/>
      <point x="856" y="700" type="line"/>
      <point x="570" y="36" type="line"/>
      <point x="677" y="36" type="line"/>
      <point x="614" y="700" type="line"/>
      <point x="473" y="700" type="line"/>
      <point x="178" y="36" type="line"/>
      <point x="287" y="36" type="line"/>
      <point x="231" y="700" type="line"/>
      <point x="79" y="700" type="line"/>
      <point x="147" y="0" type="line"/>
      <point x="295" y="0" type="line"/>
      <point x="584" y="647" type="line"/>
      <point x="491" y="647" type="line"/>
      <point x="554" y="0" type="line"/>
    </contour>
  </outline>
</glyph>
<glyph name="Y" format="2">
  <advance width="656"/>
  <unicode hex="0059"/>
  <outline>
    <contour>
      <point x="400" y="352" type="line"/>
      <point x="231" y="700" type="line"/>
      <point x="71" y="700" type="line"/>
      <point x="263" y="307" type="line"/>
      <point x="209" y="0" type="line"/>
      <point x="360" y="0" type="line"/>
      <point x="414" y="307" type="line"/>
      <point x="747" y="700" type="line"/>
      <point x="579" y="700" type="line"/>
      <point x="285" y="352" type="line"/>
    </contour>
  </outline>
</glyph>
<glyph name="Z" format="2">
  <advance width="646"/>
  <unicode hex="005A"/>
  <outline>
    <contour>
      <point x="-5" y="0" type="line"/>
      <point x="563" y="0" type="line"/>
      <point x="585" y="124" type="line"/>
      <point x="95" y="124" type="line"/>
      <point x="167" y="60" type="line"/>
      <point x="663" y="602" type="line"/>
      <point x="681" y="700" type="line"/>
      <point x="117" y="700" type="line"/>
      <point x="95" y="576" type="line"/>
      <point x="586" y="576" type="line"/>
      <point x="493" y="623" type="line"/>
      <point x="13" y="99" type="line"/>
    </contour>
  </outline>
</glyph>
<glyph name="asciicircum" format="2">
  <advance width="584"/>
  <unicode hex="005E"/>
  <outline>
    <contour>
      <point x="440" y="700" type="line"/>
      <point x="302" y="700" type="line"/>
      <point x="36" y="361" type="line"/>
      <point x="189" y="361" type="line"/>
      <point x="417" y="649" type="line"/>
      <point x="319" y="649" type="line"/>
      <point x="445" y="361" type="line"/>
      <point x="586" y="361" type="line"/>
    </contour>
  </outline>
</glyph>
<glyph name="underscore" format="2">
  <advance width="426"/>
  <unicode hex="005F"/>
  <outline>
    <contour>
      <point x="-66" y="-161" type="line"/>
      <point x="344" y="-161" type="line"/>
      <point x="364" y="-49" type="line"/>
      <point x="-46" y="-49" type="line"/>
    </contour>
  </outline>
</glyph>
<glyph name="b" format="2">
  <advance width="584"/>
  <unicode hex="0062"/>
  <guideline x="310" y="0" angle="90" name="center" identifier="kPILcKwDzG"/>
  <outline>
    <contour>
      <point x="130" y="700" type="line"/>
      <point x="5" y="0" type="line"/>
      <point x="145" y="0" type="line"/>
      <point x="168" y="123" type="line"/>
      <point x="135" y="124" type="line"/>
      <point x="152" y="40"/>
      <point x="212" y="-13"/>
      <point x="303" y="-13" type="curve" smooth="yes"/>
      <point x="458" y="-13"/>
      <point x="557" y="146"/>
      <point x="557" y="309" type="curve" smooth="yes"/>
      <point x="557" y="440"/>
      <point x="480" y="512"/>
      <point x="382" y="512" type="curve" smooth="yes"/>
      <point x="298" y="512"/>
      <point x="225" y="462"/>
      <point x="181" y="384" type="curve"/>
      <point x="214" y="383" type="line"/>
      <point x="270" y="700" type="line"/>
    </contour>
    <contour>
      <point x="413" y="287" type="curve" smooth="yes"/>
      <point x="413.0" y="198.0"/>
      <point x="368" y="104"/>
      <point x="276" y="104" type="curve" smooth="yes"/>
      <point x="217" y="104"/>
      <point x="181" y="144"/>
      <point x="181" y="214" type="curve" smooth="yes"/>
      <point x="181.0" y="303.0"/>
      <point x="225" y="396"/>
      <point x="317" y="396" type="curve" smooth="yes"/>
      <point x="376" y="396"/>
      <point x="413" y="358"/>
    </contour>
  </outline>
</glyph>
<glyph name="d" format="2">
  <advance width="584"/>
  <unicode hex="0064"/>
  <guideline x="287" y="646" angle="90" name="center" identifier="DlAqy0TA4N"/>
  <outline>
    <contour>
      <point x="27" y="194" type="curve" smooth="yes"/>
      <point x="27" y="59"/>
      <point x="108" y="-12"/>
      <point x="207" y="-12" type="curve"/>
      <point x="288" y="-12"/>
      <point x="359" y="36"/>
      <point x="403" y="114" type="curve"/>
      <point x="370" y="115" type="line"/>
      <point x="350" y="0" type="line"/>
      <point x="490" y="0" type="line"/>
      <point x="614" y="700" type="line"/>
      <point x="474" y="700" type="line"/>
      <point x="416" y="375" type="line"/>
      <point x="449" y="374" type="line"/>
      <point x="432" y="458"/>
      <point x="370" y="512"/>
      <point x="280" y="512" type="curve" smooth="yes"/>
      <point x="130" y="512"/>
      <point x="27" y="360"/>
    </contour>
    <contour>
      <point x="403" y="287" type="curve" smooth="yes"/>
      <point x="403" y="203"/>
      <point x="363" y="104"/>
      <point x="268" y="104" type="curve" smooth="yes"/>
      <point x="207" y="104"/>
      <point x="170" y="143"/>
      <point x="170" y="214" type="curve" smooth="yes"/>
      <point x="170" y="298"/>
      <point x="214" y="396"/>
      <point x="309" y="396" type="curve" smooth="yes"/>
      <point x="370" y="396"/>
      <point x="403" y="358"/>
    </contour>
  </outline>
</glyph>
<glyph name="e" format="2">
  <advance width="548"/>
  <unicode hex="0065"/>
  <guideline x="282.31275351014034" y="487.517492199688" angle="90" name="center" identifier="X8YB5FDkBU"/>
  <outline>
    <contour>
      <point x="28" y="206" type="curve" smooth="yes"/>
      <point x="28" y="73"/>
      <point x="113" y="-12"/>
      <point x="249" y="-12" type="curve" smooth="yes"/>
      <point x="361" y="-12"/>
      <point x="454" y="46"/>
      <point x="494" y="130" type="curve"/>
      <point x="375" y="168" type="line"/>
      <point x="350" y="123"/>
      <point x="315" y="98"/>
      <point x="263" y="98" type="curve" smooth="yes"/>
      <point x="203" y="98"/>
      <point x="168" y="132"/>
      <point x="168" y="205" type="curve" smooth="yes"/>
      <point x="168" y="297"/>
      <point x="210" y="400"/>
      <point x="305" y="400" type="curve" smooth="yes"/>
      <point x="360" y="400"/>
      <point x="389" y="366"/>
      <point x="389" y="303" type="curve" smooth="yes"/>
      <point x="389" y="287"/>
      <point x="387" y="269"/>
      <point x="383" y="248" type="curve"/>
      <point x="440" y="308" type="line"/>
      <point x="111" y="308" type="line"/>
      <point x="94" y="204" type="line"/>
      <point x="514" y="204" type="line"/>
      <point x="520" y="236" type="line" smooth="yes"/>
      <point x="524" y="258"/>
      <point x="526" y="278"/>
      <point x="526" y="299" type="curve" smooth="yes"/>
      <point x="526" y="425"/>
      <point x="450" y="512"/>
      <point x="318" y="512" type="curve" smooth="yes"/>
      <point x="144" y="512"/>
      <point x="28" y="371"/>
    </contour>
  </outline>
</glyph>
<glyph name="f" format="2">
  <advance width="330"/>
  <unicode hex="0066"/>
  <outline>
    <contour>
      <point x="28" y="393" type="line"/>
      <point x="349" y="393" type="line"/>
      <point x="368" y="500" type="line"/>
      <point x="47" y="500" type="line"/>
    </contour>
    <contour>
      <point x="274" y="533" type="line" smooth="yes"/>
      <point x="282" y="576"/>
      <point x="305" y="594"/>
      <point x="346" y="594" type="curve"/>
      <point x="356" y="594"/>
      <point x="368" y="593"/>
      <point x="383" y="590" type="curve"/>
      <point x="403" y="699" type="line"/>
      <point x="388" y="702"/>
      <point x="364" y="705"/>
      <point x="337" y="705" type="curve"/>
      <point x="219" y="705"/>
      <point x="154" y="650"/>
      <point x="134" y="539" type="curve" smooth="yes"/>
      <point x="39" y="0" type="line"/>
      <point x="179" y="0" type="line"/>
    </contour>
  </outline>
</glyph>
<glyph name="h" format="2">
  <advance width="556"/>
  <unicode hex="0068"/>
  <outline>
    <contour>
      <point x="134" y="700" type="line"/>
      <point x="11" y="0" type="line"/>
      <point x="151" y="0" type="line"/>
      <point x="203" y="293" type="line" smooth="yes"/>
      <point x="214" y="353"/>
      <point x="252" y="391"/>
      <point x="307" y="391" type="curve" smooth="yes"/>
      <point x="355" y="391"/>
      <point x="376" y="361"/>
      <point x="376" y="320" type="curve" smooth="yes"/>
      <point x="376" y="312"/>
      <point x="375" y="304"/>
      <point x="374" y="296" type="curve" smooth="yes"/>
      <point x="322" y="0" type="line"/>
      <point x="462" y="0" type="line"/>
      <point x="520" y="327" type="line" smooth="yes"/>
      <point x="523" y="342"/>
      <point x="524" y="355"/>
      <point x="524" y="369" type="curve" smooth="yes"/>
      <point x="524" y="455"/>
      <point x="468" y="512"/>
      <point x="377" y="512" type="curve" smooth="yes"/>
      <point x="292" y="512"/>
      <point x="237" y="460"/>
      <point x="200" y="405" type="curve"/>
      <point x="223" y="405" type="line"/>
      <point x="274" y="700" type="line"/>
    </contour>
  </outline>
</glyph>
<glyph name="l" format="2">
  <advance width="250"/>
  <unicode hex="006C"/>
  <outline>
    <contour>
      <point x="135" y="700" type="line"/>
      <point x="11" y="0" type="line"/>
      <point x="151" y="0" type="line"/>
      <point x="275" y="700" type="line"/>
    </contour>
    <contour>
      <point x="116" y="593" type="line"/>
      <point x="256" y="593" type="line"/>
      <point x="275" y="700" type="line"/>
      <point x="135" y="700" type="line"/>
    </contour>
    <contour>
      <point x="11" y="0" type="line"/>
      <point x="151" y="0" type="line"/>
      <point x="169" y="107" type="line"/>
      <point x="30" y="107" type="line"/>
    </contour>
  </outline>
</glyph>
<glyph name="r" format="2">
  <advance width="375"/>
  <unicode hex="0072"/>
  <guideline x="192" y="602" angle="90" name="top" identifier="C016H4hyzz"/>
  <guideline x="125" y="7" angle="90" name="stem" identifier="4PkZz0MXKR"/>
  <outline>
    <contour>
      <point x="180" y="194" type="line" smooth="yes"/>
      <point x="200" y="307"/>
      <point x="257" y="374"/>
      <point x="336" y="374" type="curve" smooth="yes"/>
      <point x="348" y="374"/>
      <point x="360" y="372"/>
      <point x="373" y="369" type="curve"/>
      <point x="397" y="506" type="line"/>
      <point x="390" y="508"/>
      <point x="382" y="510"/>
      <point x="370" y="510" type="curve" smooth="yes"/>
      <point x="294" y="510"/>
      <point x="228" y="445"/>
      <point x="184" y="348" type="curve"/>
      <point x="207" y="347" type="line"/>
      <point x="234" y="500" type="line"/>
      <point x="94" y="500" type="line"/>
      <point x="6" y="0" type="line"/>
      <point x="146" y="0" type="line"/>
    </contour>
  </outline>
</glyph>
<glyph name="s" format="2">
  <advance width="509"/>
  <unicode hex="0073"/>
  <outline>
    <contour>
      <point x="10" y="176" type="line"/>
      <point x="9" y="169"/>
      <point x="8" y="161"/>
      <point x="8" y="151" type="curve" smooth="yes"/>
      <point x="8" y="53"/>
      <point x="86" y="-12"/>
      <point x="233" y="-12" type="curve" smooth="yes"/>
      <point x="389" y="-12"/>
      <point x="472" y="72"/>
      <point x="472" y="172" type="curve" smooth="yes"/>
      <point x="472" y="242"/>
      <point x="428" y="277"/>
      <point x="334" y="298" type="curve" smooth="yes"/>
      <point x="258" y="315" type="line" smooth="yes"/>
      <point x="209" y="326"/>
      <point x="194" y="339"/>
      <point x="194" y="359" type="curve" smooth="yes"/>
      <point x="194" y="384"/>
      <point x="218" y="413"/>
      <point x="273" y="413" type="curve" smooth="yes"/>
      <point x="323" y="413"/>
      <point x="349" y="388"/>
      <point x="349" y="352" type="curve" smooth="yes"/>
      <point x="349" y="349"/>
      <point x="349" y="347"/>
      <point x="349" y="345" type="curve"/>
      <point x="490" y="334" type="line"/>
      <point x="491" y="341"/>
      <point x="492" y="349"/>
      <point x="492" y="358" type="curve" smooth="yes"/>
      <point x="492" y="449"/>
      <point x="414" y="512"/>
      <point x="284" y="512" type="curve" smooth="yes"/>
      <point x="136" y="512"/>
      <point x="48" y="432"/>
      <point x="48" y="328" type="curve" smooth="yes"/>
      <point x="48" y="257"/>
      <point x="92" y="225"/>
      <point x="189" y="203" type="curve" smooth="yes"/>
      <point x="265" y="186" type="line" smooth="yes"/>
      <point x="314" y="175"/>
      <point x="325" y="159"/>
      <point x="325" y="141" type="curve" smooth="yes"/>
      <point x="325" y="117"/>
      <point x="303" y="88"/>
      <point x="242" y="88" type="curve" smooth="yes"/>
      <point x="181" y="88"/>
      <point x="154" y="118"/>
      <point x="154" y="154" type="curve" smooth="yes"/>
      <point x="154" y="156"/>
      <point x="154" y="159"/>
      <point x="154" y="161" type="curve"/>
    </contour>
  </outline>
</glyph>
<glyph name="v" format="2">
  <advance width="540"/>
  <unicode hex="0076"/>
  <outline>
    <contour>
      <point x="152" y="0" type="line"/>
      <point x="307" y="0" type="line"/>
      <point x="585" y="500" type="line"/>
      <point x="435" y="500" type="line"/>
      <point x="190" y="39" type="line"/>
      <point x="278" y="39" type="line"/>
      <point x="193" y="500" type="line"/>
      <point x="49" y="500" type="line"/>
    </contour>
  </outline>
</glyph>
<glyph name="z" format="2">
  <advance width="489"/>
  <unicode hex="007A"/>
  <outline>
    <contour>
      <point x="7" y="96" type="line"/>
      <point x="-10" y="0" type="line"/>
      <point x="408" y="0" type="line"/>
      <point x="427" y="108" type="line"/>
      <point x="62" y="108" type="line"/>
      <point x="145" y="66" type="line"/>
      <point x="477" y="410" type="line"/>
      <point x="493" y="500" type="line"/>
      <point x="77" y="500" type="line"/>
      <point x="58" y="390" type="line"/>
      <point x="426" y="390" type="line"/>
      <point x="340" y="441" type="line"/>
    </contour>
  </outline>
</glyph>
<glyph name="cent" format="2">
  <advance width="530"/>
  <unicode hex="00A2"/>
  <outline>
    <contour>
      <point x="167" y="-112" type="line"/>
      <point x="261" y="-112" type="line"/>
      <point x="386" y="597" type="line"/>
      <point x="292" y="597" type="line"/>
    </contour>
    <contour>
      <point x="529" y="341" type="line"/>
      <point x="521" y="441"/>
      <point x="438" y="512"/>
      <point x="318" y="512" type="curve" smooth="yes"/>
      <point x="137" y="512"/>
      <point x="28" y="356"/>
      <point x="28" y="205" type="curve" smooth="yes"/>
      <point x="28" y="69"/>
      <point x="114" y="-12"/>
      <point x="251" y="-12" type="curve" smooth="yes"/>
      <point x="359" y="-12"/>
      <point x="455" y="42"/>
      <point x="497" y="139" type="curve"/>
      <point x="367" y="178" type="line"/>
      <point x="343" y="121"/>
      <point x="308" y="102"/>
      <point x="264" y="102" type="curve" smooth="yes"/>
      <point x="207" y="102"/>
      <point x="169" y="134"/>
      <point x="169" y="210" type="curve" smooth="yes"/>
      <point x="169" y="306"/>
      <point x="216" y="398"/>
      <point x="308" y="398" type="curve" smooth="yes"/>
      <point x="351" y="398"/>
      <point x="393" y="377"/>
      <point x="393" y="312" type="curve"/>
    </contour>
  </outline>
</glyph>
<glyph name="sterling" format="2">
  <advance width="618"/>
  <unicode hex="00A3"/>
  <outline>
    <contour>
      <point x="394" y="712" type="curve" smooth="yes"/>
      <point x="200" y="712"/>
      <point x="127" y="567"/>
      <point x="127" y="453" type="curve" smooth="yes"/>
      <point x="127" y="374"/>
      <point x="165" y="325"/>
      <point x="165" y="263" type="curve" smooth="yes"/>
      <point x="165" y="196"/>
      <point x="127" y="120"/>
      <point x="37" y="120" type="curve" smooth="yes"/>
      <point x="22" y="120" type="line"/>
      <point x="1" y="0" type="line"/>
      <point x="523" y="0" type="line"/>
      <point x="544" y="120" type="line"/>
      <point x="214" y="120" type="line"/>
      <point x="282" y="159"/>
      <point x="304" y="223"/>
      <point x="304" y="281" type="curve" smooth="yes"/>
      <point x="304" y="354"/>
      <point x="269" y="400"/>
      <point x="269" y="463" type="curve" smooth="yes"/>
      <point x="269" y="530"/>
      <point x="305" y="592"/>
      <point x="384" y="592" type="curve" smooth="yes"/>
      <point x="434" y="592"/>
      <point x="469" y="565"/>
      <point x="469" y="520" type="curve" smooth="yes"/>
      <point x="469" y="499"/>
      <point x="461" y="477"/>
      <point x="454" y="464" type="curve"/>
      <point x="584" y="449" type="line"/>
      <point x="602" y="477"/>
      <point x="608" y="510"/>
      <point x="608" y="539" type="curve" smooth="yes"/>
      <point x="608" y="632"/>
      <point x="536" y="712"/>
    </contour>
    <contour>
      <point x="454" y="255" type="line"/>
      <point x="473" y="361" type="line"/>
      <point x="77" y="361" type="line"/>
      <point x="58" y="255" type="line"/>
    </contour>
  </outline>
</glyph>
<glyph name="currency" format="2">
  <advance width="666"/>
  <unicode hex="00A4"/>
  <outline>
    <contour>
      <point x="233" y="327" type="curve" smooth="yes"/>
      <point x="233" y="389"/>
      <point x="282" y="456"/>
      <point x="357" y="456" type="curve" smooth="yes"/>
      <point x="414" y="456"/>
      <point x="449" y="417"/>
      <point x="449" y="363" type="curve" smooth="yes"/>
      <point x="449" y="301"/>
      <point x="400" y="234"/>
      <point x="325" y="234" type="curve" smooth="yes"/>
      <point x="268" y="234"/>
      <point x="233" y="273"/>
    </contour>
    <contour>
      <point x="193" y="439" type="line"/>
      <point x="282" y="511" type="line"/>
      <point x="198" y="617" type="line"/>
      <point x="109" y="544" type="line"/>
    </contour>
    <contour>
      <point x="311" y="122" type="curve" smooth="yes"/>
      <point x="455" y="122"/>
      <point x="565" y="240"/>
      <point x="565" y="378" type="curve" smooth="yes"/>
      <point x="565" y="487"/>
      <point x="484" y="568"/>
      <point x="371" y="568" type="curve" smooth="yes"/>
      <point x="227" y="568"/>
      <point x="117" y="450"/>
      <point x="117" y="312" type="curve" smooth="yes"/>
      <point x="117" y="203"/>
      <point x="198" y="122"/>
    </contour>
    <contour>
      <point x="484" y="73" type="line"/>
      <point x="573" y="146" type="line"/>
      <point x="489" y="251" type="line"/>
      <point x="400" y="179" type="line"/>
    </contour>
    <contour>
      <point x="454" y="509" type="line"/>
      <point x="523" y="423" type="line"/>
      <point x="643" y="522" type="line"/>
      <point x="574" y="607" type="line"/>
    </contour>
    <contour>
      <point x="39" y="168" type="line"/>
      <point x="108" y="83" type="line"/>
      <point x="228" y="181" type="line"/>
      <point x="159" y="267" type="line"/>
    </contour>
  </outline>
</glyph>
<glyph name="yen" format="2">
  <advance width="628"/>
  <unicode hex="00A5"/>
  <outline>
    <contour>
      <point x="383" y="380" type="line"/>
      <point x="238" y="700" type="line"/>
      <point x="89" y="700" type="line"/>
      <point x="257" y="332" type="line"/>
      <point x="198" y="0" type="line"/>
      <point x="342" y="0" type="line"/>
      <point x="401" y="332" type="line"/>
      <point x="699" y="700" type="line"/>
      <point x="549" y="700" type="line"/>
      <point x="290" y="380" type="line"/>
    </contour>
    <contour>
      <point x="76" y="310" type="line"/>
      <point x="574" y="310" type="line"/>
      <point x="591" y="408" type="line"/>
      <point x="93" y="408" type="line"/>
    </contour>
    <contour>
      <point x="49" y="157" type="line"/>
      <point x="547" y="157" type="line"/>
      <point x="564" y="255" type="line"/>
      <point x="66" y="255" type="line"/>
    </contour>
  </outline>
</glyph>
<glyph name="section" format="2">
  <advance width="531"/>
  <unicode hex="00A7"/>
  <outline>
    <contour>
      <point x="385" y="105" type="line"/>
      <point x="475" y="175"/>
      <point x="515" y="231"/>
      <point x="515" y="307" type="curve" smooth="yes"/>
      <point x="515" y="372"/>
      <point x="478" y="420"/>
      <point x="388" y="453" type="curve" smooth="yes"/>
      <point x="293" y="488" type="line" smooth="yes"/>
      <point x="247" y="505"/>
      <point x="231" y="525"/>
      <point x="231" y="547" type="curve" smooth="yes"/>
      <point x="231" y="569"/>
      <point x="247" y="613"/>
      <point x="317" y="613" type="curve" smooth="yes"/>
      <point x="369" y="613"/>
      <point x="397" y="586"/>
      <point x="397" y="546" type="curve" smooth="yes"/>
      <point x="397" y="543"/>
      <point x="397" y="540"/>
      <point x="397" y="537" type="curve"/>
      <point x="536" y="525" type="line"/>
      <point x="537" y="533"/>
      <point x="538" y="543"/>
      <point x="538" y="553" type="curve" smooth="yes"/>
      <point x="538" y="649"/>
      <point x="459" y="712"/>
      <point x="328" y="712" type="curve" smooth="yes"/>
      <point x="165" y="712"/>
      <point x="88" y="620"/>
      <point x="88" y="518" type="curve" smooth="yes"/>
      <point x="88" y="453"/>
      <point x="129" y="411"/>
      <point x="220" y="377" type="curve" smooth="yes"/>
      <point x="315" y="342" type="line" smooth="yes"/>
      <point x="357" y="326"/>
      <point x="374" y="302"/>
      <point x="374" y="272" type="curve" smooth="yes"/>
      <point x="374" y="249"/>
      <point x="365" y="222"/>
      <point x="299" y="169" type="curve"/>
    </contour>
    <contour>
      <point x="-5" y="80" type="line"/>
      <point x="-7" y="69"/>
      <point x="-8" y="56"/>
      <point x="-8" y="44" type="curve" smooth="yes"/>
      <point x="-8" y="-64"/>
      <point x="72" y="-126"/>
      <point x="218" y="-126" type="curve" smooth="yes"/>
      <point x="384" y="-126"/>
      <point x="459" y="-39"/>
      <point x="459" y="69" type="curve" smooth="yes"/>
      <point x="459" y="139"/>
      <point x="412" y="186"/>
      <point x="325" y="218" type="curve" smooth="yes"/>
      <point x="230" y="253" type="line" smooth="yes"/>
      <point x="186" y="269"/>
      <point x="171" y="289"/>
      <point x="171" y="318" type="curve" smooth="yes"/>
      <point x="171" y="346"/>
      <point x="195" y="387"/>
      <point x="258" y="424" type="curve"/>
      <point x="188" y="486" type="line"/>
      <point x="88" y="432"/>
      <point x="35" y="362"/>
      <point x="35" y="281" type="curve" smooth="yes"/>
      <point x="35" y="217"/>
      <point x="72" y="172"/>
      <point x="159" y="140" type="curve" smooth="yes"/>
      <point x="254" y="105" type="line" smooth="yes"/>
      <point x="297" y="89"/>
      <point x="315" y="67"/>
      <point x="315" y="40" type="curve" smooth="yes"/>
      <point x="315" y="10"/>
      <point x="291" y="-26"/>
      <point x="226" y="-26" type="curve" smooth="yes"/>
      <point x="168" y="-26"/>
      <point x="137" y="1"/>
      <point x="137" y="48" type="curve" smooth="yes"/>
      <point x="137" y="53"/>
      <point x="137" y="57"/>
      <point x="138" y="63" type="curve"/>
    </contour>
  </outline>
</glyph>
<glyph name="ordfeminine" format="2">
  <advance width="405"/>
  <unicode hex="00AA"/>
  <outline>
    <contour>
      <point x="270" y="712" type="curve" smooth="yes"/>
      <point x="153" y="712"/>
      <point x="98" y="648"/>
      <point x="83" y="589" type="curve"/>
      <point x="197" y="567" type="line"/>
      <point x="204" y="602"/>
      <point x="216" y="624"/>
      <point x="260" y="624" type="curve" smooth="yes"/>
      <point x="301" y="624"/>
      <point x="314.0" y="606.0"/>
      <point x="308" y="570" type="curve" smooth="yes"/>
      <point x="287" y="452" type="line" smooth="yes"/>
      <point x="279" y="410"/>
      <point x="246" y="383"/>
      <point x="202" y="383" type="curve" smooth="yes"/>
      <point x="172" y="383"/>
      <point x="155" y="395"/>
      <point x="155" y="421" type="curve" smooth="yes"/>
      <point x="155" y="448"/>
      <point x="174" y="467"/>
      <point x="225" y="471" type="curve" smooth="yes"/>
      <point x="351" y="482" type="line"/>
      <point x="364" y="558" type="line"/>
      <point x="195" y="545" type="line" smooth="yes"/>
      <point x="96" y="538"/>
      <point x="37" y="490"/>
      <point x="37" y="411" type="curve" smooth="yes"/>
      <point x="37" y="340"/>
      <point x="88" y="300"/>
      <point x="168" y="300" type="curve" smooth="yes"/>
      <point x="235" y="300"/>
      <point x="278" y="331"/>
      <point x="314" y="384" type="curve"/>
      <point x="286" y="385" type="line"/>
      <point x="278" y="317"/>
      <point x="322.78947" y="298.17544"/>
      <point x="375" y="296" type="curve" smooth="yes"/>
      <point x="387" y="296"/>
      <point x="395" y="296"/>
      <point x="405" y="297" type="curve"/>
      <point x="419" y="381" type="line"/>
      <point x="417" y="381"/>
      <point x="416" y="381"/>
      <point x="413" y="381" type="curve" smooth="yes"/>
      <point x="401" y="381"/>
      <point x="391" y="388"/>
      <point x="395" y="408" type="curve" smooth="yes"/>
      <point x="424" y="574" type="line" smooth="yes"/>
      <point x="441" y="661"/>
      <point x="383.04348" y="712.0"/>
    </contour>
  </outline>
</glyph>
<glyph name="plusminus" format="2">
  <advance width="576"/>
  <unicode hex="00B1"/>
  <outline>
    <contour>
      <point x="552" y="361" type="line"/>
      <point x="573" y="481" type="line"/>
      <point x="85" y="481" type="line"/>
      <point x="64" y="361" type="line"/>
    </contour>
    <contour>
      <point x="425" y="667" type="line"/>
      <point x="299" y="667" type="line"/>
      <point x="212" y="175" type="line"/>
      <point x="338" y="175" type="line"/>
    </contour>
    <contour>
      <point x="488" y="0" type="line"/>
      <point x="509" y="120" type="line"/>
      <point x="21" y="120" type="line"/>
      <point x="0" y="0" type="line"/>
    </contour>
  </outline>
</glyph>
<glyph name="paragraph" format="2">
  <advance width="675"/>
  <unicode hex="00B6"/>
  <outline>
    <contour>
      <point x="507" y="700" type="line"/>
      <point x="395" y="700" type="line"/>
      <point x="251" y="-113" type="line"/>
      <point x="363" y="-113" type="line"/>
    </contour>
    <contour>
      <point x="669" y="700" type="line"/>
      <point x="557" y="700" type="line"/>
      <point x="413" y="-113" type="line"/>
      <point x="525" y="-113" type="line"/>
    </contour>
    <contour>
      <point x="376" y="280" type="line"/>
      <point x="435" y="610" type="line"/>
      <point x="717" y="610" type="line"/>
      <point x="733" y="700" type="line"/>
      <point x="321" y="700" type="line" smooth="yes"/>
      <point x="167" y="700"/>
      <point x="67" y="591"/>
      <point x="67" y="460" type="curve" smooth="yes"/>
      <point x="67" y="352"/>
      <point x="138" y="280"/>
      <point x="255" y="280" type="curve" smooth="yes"/>
    </contour>
  </outline>
</glyph>
<glyph name="ordmasculine" format="2">
  <advance width="412"/>
  <unicode hex="00BA"/>
  <outline>
    <contour>
      <point x="333" y="537" type="curve" smooth="yes"/>
      <point x="333" y="473"/>
      <point x="303" y="393"/>
      <point x="232" y="393" type="curve" smooth="yes"/>
      <point x="190" y="393"/>
      <point x="165" y="421"/>
      <point x="165" y="473" type="curve" smooth="yes"/>
      <point x="165" y="537"/>
      <point x="195" y="617"/>
      <point x="266" y="617" type="curve" smooth="yes"/>
      <point x="308" y="617"/>
      <point x="333" y="589"/>
    </contour>
    <contour>
      <point x="46" y="469" type="curve" smooth="yes"/>
      <point x="46" y="363"/>
      <point x="116" y="298"/>
      <point x="220" y="298" type="curve" smooth="yes"/>
      <point x="372" y="298"/>
      <point x="452" y="418"/>
      <point x="452" y="541" type="curve" smooth="yes"/>
      <point x="452" y="647"/>
      <point x="382" y="712"/>
      <point x="278" y="712" type="curve" smooth="yes"/>
      <point x="126" y="712"/>
      <point x="46" y="592"/>
    </contour>
  </outline>
</glyph>
<glyph name="Idieresis" format="2">
  <advance width="285"/>
  <unicode hex="00CF"/>
  <outline>
    <contour>
      <point x="84" y="899" type="line"/>
      <point x="60" y="760" type="line"/>
      <point x="207" y="760" type="line"/>
      <point x="231" y="899" type="line"/>
    </contour>
    <contour>
      <point x="285" y="899" type="line"/>
      <point x="261" y="760" type="line"/>
      <point x="408" y="760" type="line"/>
      <point x="432" y="899" type="line"/>
    </contour>
    <component base="I"/>
  </outline>
</glyph>
<glyph name="multiply" format="2">
  <advance width="576"/>
  <unicode hex="00D7"/>
  <outline>
    <contour>
      <point x="33" y="187" type="line"/>
      <point x="104" y="101" type="line"/>
      <point x="565" y="493" type="line"/>
      <point x="494" y="579" type="line"/>
    </contour>
    <contour>
      <point x="415" y="105" type="line"/>
      <point x="506" y="183" type="line"/>
      <point x="183" y="575" type="line"/>
      <point x="92" y="497" type="line"/>
    </contour>
  </outline>
</glyph>
<glyph name="Oslash" format="2">
  <advance width="786"/>
  <unicode hex="00D8"/>
  <outline>
    <contour>
      <point x="-11" y="55" type="line"/>
      <point x="71" y="-32" type="line"/>
      <point x="798" y="646" type="line"/>
      <point x="716" y="733" type="line"/>
    </contour>
    <contour>
      <point x="612" y="395" type="curve" smooth="yes"/>
      <point x="612" y="252"/>
      <point x="521" y="115"/>
      <point x="374" y="115" type="curve" smooth="yes"/>
      <point x="271" y="115"/>
      <point x="202" y="185"/>
      <point x="202" y="303" type="curve" smooth="yes"/>
      <point x="202" y="446"/>
      <point x="293" y="583"/>
      <point x="440" y="583" type="curve" smooth="yes"/>
      <point x="543" y="583"/>
      <point x="612" y="513"/>
    </contour>
    <contour>
      <point x="45" y="293" type="curve" smooth="yes"/>
      <point x="45" y="111"/>
      <point x="170" y="-13"/>
      <point x="361" y="-13" type="curve" smooth="yes"/>
      <point x="604" y="-13"/>
      <point x="769" y="176"/>
      <point x="769" y="405" type="curve" smooth="yes"/>
      <point x="769" y="587"/>
      <point x="644" y="711"/>
      <point x="453" y="711" type="curve" smooth="yes"/>
      <point x="210" y="711"/>
      <point x="45" y="522"/>
    </contour>
  </outline>
</glyph>
<glyph name="germandbls" format="2">
  <advance width="570"/>
  <unicode hex="00DF"/>
  <outline>
    <contour>
      <point x="99" y="513" type="curve" smooth="yes"/>
      <point x="8" y="0" type="line"/>
      <point x="148" y="0" type="line"/>
      <point x="239" y="510" type="line" smooth="yes"/>
      <point x="249" y="564"/>
      <point x="284" y="604"/>
      <point x="344" y="604" type="curve" smooth="yes"/>
      <point x="390" y="604"/>
      <point x="423" y="579"/>
      <point x="423" y="529" type="curve" smooth="yes"/>
      <point x="423" y="478"/>
      <point x="389" y="423"/>
      <point x="307" y="423" type="curve" smooth="yes"/>
      <point x="277" y="423" type="line"/>
      <point x="258" y="316" type="line"/>
      <point x="286" y="316" type="line" smooth="yes"/>
      <point x="358" y="316"/>
      <point x="402" y="289"/>
      <point x="402" y="221" type="curve" smooth="yes"/>
      <point x="402" y="162"/>
      <point x="368" y="101"/>
      <point x="284" y="101" type="curve" smooth="yes"/>
      <point x="255" y="101"/>
      <point x="233" y="108"/>
      <point x="217" y="116" type="curve"/>
      <point x="197" y="3" type="line"/>
      <point x="212" y="-2"/>
      <point x="252" y="-12"/>
      <point x="299" y="-12" type="curve" smooth="yes"/>
      <point x="470" y="-12"/>
      <point x="544" y="122"/>
      <point x="544" y="224" type="curve" smooth="yes"/>
      <point x="544" y="314"/>
      <point x="491" y="356"/>
      <point x="441" y="373" type="curve"/>
      <point x="440" y="367" type="line"/>
      <point x="497" y="388"/>
      <point x="565" y="451"/>
      <point x="565" y="546" type="curve" smooth="yes"/>
      <point x="565" y="647"/>
      <point x="489" y="712"/>
      <point x="358" y="712" type="curve" smooth="yes"/>
      <point x="213" y="712"/>
      <point x="119" y="628"/>
    </contour>
  </outline>
</glyph>
<glyph name="icircumflex" format="2">
  <advance width="250"/>
  <unicode hex="00EE"/>
  <outline>
    <contour>
      <point x="139" y="700.0" type="line"/>
      <point x="15" y="564.0" type="line"/>
      <point x="125" y="564.0" type="line"/>
      <point x="248" y="662.0" type="line"/>
      <point x="152" y="662.0" type="line"/>
      <point x="241" y="564.0" type="line"/>
      <point x="347" y="564.0" type="line"/>
      <point x="271" y="700.0" type="line"/>
    </contour>
    <component base="dotlessi"/>
  </outline>
</glyph>
<glyph name="oslash" format="2">
  <advance width="566"/>
  <unicode hex="00F8"/>
  <outline>
    <contour>
      <point x="-11" y="28" type="line"/>
      <point x="50" y="-32" type="line"/>
      <point x="577" y="462" type="line"/>
      <point x="516" y="522" type="line"/>
    </contour>
    <contour>
      <point x="250" y="-12" type="curve" smooth="yes"/>
      <point x="429" y="-12"/>
      <point x="538" y="138"/>
      <point x="538" y="293" type="curve" smooth="yes"/>
      <point x="538" y="428"/>
      <point x="447" y="512"/>
      <point x="316" y="512" type="curve" smooth="yes"/>
      <point x="137" y="512"/>
      <point x="28" y="362"/>
      <point x="28" y="207" type="curve" smooth="yes"/>
      <point x="28" y="72"/>
      <point x="119" y="-12"/>
    </contour>
    <contour>
      <point x="305" y="396" type="curve" smooth="yes"/>
      <point x="363" y="396"/>
      <point x="397" y="359"/>
      <point x="397" y="286" type="curve" smooth="yes"/>
      <point x="397" y="202"/>
      <point x="354" y="104"/>
      <point x="261" y="104" type="curve" smooth="yes"/>
      <point x="203" y="104"/>
      <point x="169" y="141"/>
      <point x="169" y="214" type="curve" smooth="yes"/>
      <point x="169" y="298"/>
      <point x="212" y="396"/>
    </contour>
  </outline>
</glyph>
<glyph name="thorn" format="2">
  <advance width="584"/>
  <unicode hex="00FE"/>
  <outline>
    <contour>
      <point x="557" y="309" type="curve" smooth="yes"/>
      <point x="557" y="440"/>
      <point x="480" y="512"/>
      <point x="382" y="512" type="curve" smooth="yes"/>
      <point x="298" y="512"/>
      <point x="225" y="462"/>
      <point x="181" y="384" type="curve"/>
      <point x="214" y="383" type="line"/>
      <point x="269" y="700" type="line"/>
      <point x="129" y="700" type="line"/>
      <point x="-26" y="-180" type="line"/>
      <point x="114" y="-180" type="line"/>
      <point x="168" y="123" type="line"/>
      <point x="135" y="124" type="line"/>
      <point x="152" y="40"/>
      <point x="212" y="-13"/>
      <point x="303" y="-13" type="curve" smooth="yes"/>
      <point x="458" y="-13"/>
      <point x="557" y="146"/>
    </contour>
    <contour>
      <point x="413" y="287" type="curve" smooth="yes"/>
      <point x="413" y="198"/>
      <point x="368" y="104"/>
      <point x="276" y="104" type="curve" smooth="yes"/>
      <point x="217" y="104"/>
      <point x="181" y="144"/>
      <point x="181" y="214" type="curve" smooth="yes"/>
      <point x="181" y="303"/>
      <point x="225" y="396"/>
      <point x="317" y="396" type="curve" smooth="yes"/>
      <point x="376" y="396"/>
      <point x="413" y="358"/>
    </contour>
  </outline>
</glyph>
<glyph name="aogonek" format="2">
  <advance width="535"/>
  <unicode hex="0105"/>
  <outline>
    <contour>
      <point x="378" y="-209" type="curve" smooth="yes"/>
      <point x="400" y="-209"/>
      <point x="429" y="-207"/>
      <point x="451" y="-202" type="curve"/>
      <point x="466" y="-115" type="line"/>
      <point x="445" y="-119"/>
      <point x="429" y="-121"/>
      <point x="411" y="-121" type="curve" smooth="yes"/>
      <point x="384" y="-120"/>
      <point x="371" y="-111"/>
      <point x="371" y="-95" type="curve" smooth="yes"/>
      <point x="371" y="-63"/>
      <point x="415" y="-36"/>
      <point x="472" y="-5" type="curve"/>
      <point x="371" y="8" type="line"/>
      <point x="308" y="-28"/>
      <point x="251" y="-72"/>
      <point x="251" y="-133" type="curve" smooth="yes"/>
      <point x="251" y="-180"/>
      <point x="296" y="-209"/>
    </contour>
    <component base="a"/>
  </outline>
</glyph>
<glyph name="dcroat" format="2">
  <advance width="584"/>
  <unicode hex="0111"/>
  <outline>
    <contour>
      <point x="325" y="547" type="line"/>
      <point x="643" y="547" type="line"/>
      <point x="657" y="627" type="line"/>
      <point x="339" y="627" type="line"/>
    </contour>
    <component base="d"/>
  </outline>
</glyph>
<glyph name="eogonek" format="2">
  <advance width="548"/>
  <unicode hex="0119"/>
  <outline>
    <contour>
      <point x="28" y="206" type="curve" smooth="yes"/>
      <point x="28" y="93"/>
      <point x="101" y="-11"/>
      <point x="239" y="-11" type="curve" smooth="yes"/>
      <point x="246" y="-11"/>
      <point x="262" y="-10"/>
      <point x="263" y="-10" type="curve"/>
      <point x="222" y="9" type="line"/>
      <point x="153" y="-29"/>
      <point x="109" y="-73"/>
      <point x="109" y="-128" type="curve" smooth="yes"/>
      <point x="109" y="-175"/>
      <point x="154" y="-204"/>
      <point x="236" y="-204" type="curve" smooth="yes"/>
      <point x="258" y="-204"/>
      <point x="287" y="-202"/>
      <point x="309" y="-197" type="curve"/>
      <point x="324" y="-110" type="line"/>
      <point x="303" y="-114"/>
      <point x="287" y="-116"/>
      <point x="269" y="-116" type="curve" smooth="yes"/>
      <point x="242" y="-115"/>
      <point x="229" y="-106"/>
      <point x="229" y="-90" type="curve" smooth="yes"/>
      <point x="229" y="-58"/>
      <point x="271" y="-29"/>
      <point x="335" y="-5" type="curve" smooth="yes"/>
      <point x="407" y="22"/>
      <point x="464" y="68"/>
      <point x="494" y="130" type="curve"/>
      <point x="375" y="168" type="line"/>
      <point x="350" y="123"/>
      <point x="315" y="98"/>
      <point x="263" y="98" type="curve" smooth="yes"/>
      <point x="204" y="98"/>
      <point x="169" y="131"/>
      <point x="168" y="204" type="curve"/>
      <point x="514" y="204" type="line"/>
      <point x="520" y="236" type="line" smooth="yes"/>
      <point x="524" y="258"/>
      <point x="526" y="278"/>
      <point x="526" y="299" type="curve" smooth="yes"/>
      <point x="526" y="425"/>
      <point x="450" y="512"/>
      <point x="318" y="512" type="curve" smooth="yes"/>
      <point x="144" y="512"/>
      <point x="28" y="371"/>
    </contour>
    <contour>
      <point x="187" y="308" type="line"/>
      <point x="207" y="360"/>
      <point x="246" y="400"/>
      <point x="305" y="400" type="curve" smooth="yes"/>
      <point x="358" y="400"/>
      <point x="387" y="368"/>
      <point x="389" y="308" type="curve"/>
    </contour>
  </outline>
</glyph>
<glyph name="Hbar" format="2">
  <advance width="736"/>
  <unicode hex="0126"/>
  <outline>
    <contour>
      <point x="49" y="500" type="line"/>
      <point x="775" y="500" type="line"/>
      <point x="794" y="608" type="line"/>
      <point x="68" y="608" type="line"/>
    </contour>
    <contour>
      <point x="135" y="279" type="line"/>
      <point x="612" y="279" type="line"/>
      <point x="634" y="403" type="line"/>
      <point x="157" y="403" type="line"/>
    </contour>
    <contour>
      <point x="598" y="700" type="line"/>
      <point x="474" y="0" type="line"/>
      <point x="625" y="0" type="line"/>
      <point x="749" y="700" type="line"/>
    </contour>
    <contour>
      <point x="147" y="700" type="line"/>
      <point x="23" y="0" type="line"/>
      <point x="174" y="0" type="line"/>
      <point x="298" y="700" type="line"/>
    </contour>
  </outline>
</glyph>
<glyph name="hbar" format="2">
  <advance width="556"/>
  <unicode hex="0127"/>
  <outline>
    <contour>
      <point x="364" y="547" type="line"/>
      <point x="378" y="627" type="line"/>
      <point x="60" y="627" type="line"/>
      <point x="46" y="547" type="line"/>
    </contour>
    <component base="h"/>
  </outline>
</glyph>
<glyph name="Itilde" format="2">
  <advance width="285"/>
  <unicode hex="0128"/>
  <outline>
    <contour>
      <point x="189" y="894" type="curve" smooth="yes"/>
      <point x="133" y="894"/>
      <point x="94" y="844"/>
      <point x="77" y="760" type="curve"/>
      <point x="169" y="760" type="line"/>
      <point x="174" y="780"/>
      <point x="181" y="793"/>
      <point x="195" y="793" type="curve" smooth="yes"/>
      <point x="216" y="793"/>
      <point x="261" y="765"/>
      <point x="303" y="765" type="curve" smooth="yes"/>
      <point x="359" y="765"/>
      <point x="397" y="815"/>
      <point x="415" y="899" type="curve"/>
      <point x="322" y="899" type="line"/>
      <point x="317" y="879"/>
      <point x="312" y="866"/>
      <point x="298" y="866" type="curve" smooth="yes"/>
      <point x="277" y="866"/>
      <point x="231" y="894"/>
    </contour>
    <component base="I"/>
  </outline>
</glyph>
<glyph name="Imacron" format="2">
  <advance width="285"/>
  <unicode hex="012A"/>
  <outline>
    <contour>
      <point x="89" y="760" type="line"/>
      <point x="375" y="760" type="line"/>
      <point x="393" y="860" type="line"/>
      <point x="107" y="860" type="line"/>
    </contour>
    <component base="I"/>
  </outline>
</glyph>
<glyph name="imacron" format="2">
  <advance width="250"/>
  <unicode hex="012B"/>
  <outline>
    <contour>
      <point x="49" y="587.0" type="line"/>
      <point x="319" y="587.0" type="line"/>
      <point x="337" y="688.0" type="line"/>
      <point x="67" y="688.0" type="line"/>
    </contour>
    <component base="dotlessi"/>
  </outline>
</glyph>
<glyph name="Ibreve" format="2">
  <advance width="285"/>
  <unicode hex="012C"/>
  <outline>
    <contour>
      <point x="102" y="895" type="line"/>
      <point x="91" y="824"/>
      <point x="134" y="754"/>
      <point x="239" y="754" type="curve" smooth="yes"/>
      <point x="344" y="754"/>
      <point x="403" y="824"/>
      <point x="414" y="895" type="curve"/>
      <point x="307" y="895" type="line"/>
      <point x="304" y="866"/>
      <point x="283" y="845"/>
      <point x="251" y="845" type="curve" smooth="yes"/>
      <point x="219" y="845"/>
      <point x="206" y="866"/>
      <point x="209" y="895" type="curve"/>
    </contour>
    <component base="I"/>
  </outline>
</glyph>
<glyph name="dotlessi" format="2">
  <advance width="250"/>
  <unicode hex="0131"/>
  <outline>
    <contour>
      <point x="30" y="107" type="line"/>
      <point x="11" y="0" type="line"/>
      <point x="151" y="0" type="line"/>
      <point x="169" y="107" type="line"/>
    </contour>
    <contour>
      <point x="99" y="500" type="line"/>
      <point x="81" y="393" type="line"/>
      <point x="219" y="393" type="line"/>
      <point x="239" y="500" type="line"/>
    </contour>
    <contour>
      <point x="99" y="500" type="line"/>
      <point x="11" y="0" type="line"/>
      <point x="151" y="0" type="line"/>
      <point x="239" y="500" type="line"/>
    </contour>
  </outline>
</glyph>
<glyph name="IJ" format="2">
  <advance width="860"/>
  <unicode hex="0132"/>
  <outline>
    <contour>
      <point x="147" y="700" type="line"/>
      <point x="23" y="0" type="line"/>
      <point x="174" y="0" type="line"/>
      <point x="298" y="700" type="line"/>
    </contour>
    <contour>
      <point x="789" y="201" type="curve" smooth="yes"/>
      <point x="877" y="700" type="line"/>
      <point x="727" y="700" type="line"/>
      <point x="640" y="209" type="line" smooth="yes"/>
      <point x="630" y="153"/>
      <point x="600" y="109"/>
      <point x="532" y="109" type="curve" smooth="yes"/>
      <point x="464" y="109"/>
      <point x="428" y="153"/>
      <point x="445" y="250" type="curve"/>
      <point x="298" y="272" type="line"/>
      <point x="262" y="85"/>
      <point x="361.48592" y="-12.0"/>
      <point x="523" y="-12" type="curve" smooth="yes"/>
      <point x="678" y="-12"/>
      <point x="766" y="71"/>
    </contour>
  </outline>
</glyph>
<glyph name="ij" format="2">
  <advance width="500"/>
  <unicode hex="0133"/>
  <outline>
    <contour>
      <point x="30" y="107" type="line"/>
      <point x="11" y="0" type="line"/>
      <point x="151" y="0" type="line"/>
      <point x="169" y="107" type="line"/>
    </contour>
    <contour>
      <point x="99" y="500" type="line"/>
      <point x="81" y="393" type="line"/>
      <point x="219" y="393" type="line"/>
      <point x="239" y="500" type="line"/>
    </contour>
    <contour>
      <point x="99" y="500" type="line"/>
      <point x="11" y="0" type="line"/>
      <point x="151" y="0" type="line"/>
      <point x="239" y="500" type="line"/>
    </contour>
    <contour>
      <point x="133" y="700" type="line"/>
      <point x="109" y="564" type="line"/>
      <point x="253" y="564" type="line"/>
      <point x="277" y="700" type="line"/>
    </contour>
    <contour>
      <point x="388" y="-74" type="curve" smooth="yes"/>
      <point x="489" y="500" type="line"/>
      <point x="349" y="500" type="line"/>
      <point x="255" y="-35" type="line" smooth="yes"/>
      <point x="249" y="-68"/>
      <point x="237" y="-81"/>
      <point x="209" y="-81" type="curve" smooth="yes"/>
      <point x="200" y="-81"/>
      <point x="192" y="-80"/>
      <point x="178" y="-78" type="curve"/>
      <point x="161" y="-180" type="line"/>
      <point x="175" y="-185"/>
      <point x="206" y="-190"/>
      <point x="234" y="-190" type="curve" smooth="yes"/>
      <point x="299" y="-190"/>
      <point x="372" y="-163"/>
    </contour>
    <contour>
      <point x="331" y="393" type="line"/>
      <point x="470" y="393" type="line"/>
      <point x="489" y="500" type="line"/>
      <point x="349" y="500" type="line"/>
    </contour>
    <contour>
      <point x="383" y="700" type="line"/>
      <point x="359" y="564" type="line"/>
      <point x="503" y="564" type="line"/>
      <point x="527" y="700" type="line"/>
    </contour>
  </outline>
</glyph>
<glyph name="jcircumflex" format="2">
  <advance width="250"/>
  <unicode hex="0135"/>
  <outline>
    <contour>
      <point x="139" y="700" type="line"/>
      <point x="15" y="564" type="line"/>
      <point x="125" y="564" type="line"/>
      <point x="248" y="662" type="line"/>
      <point x="152" y="662" type="line"/>
      <point x="241" y="564" type="line"/>
      <point x="347" y="564" type="line"/>
      <point x="271" y="700" type="line"/>
    </contour>
    <component base="dotlessj"/>
  </outline>
</glyph>
<glyph name="Ldot" format="2">
  <advance width="630"/>
  <unicode hex="013F"/>
  <outline>
    <contour>
      <point x="426" y="485" type="line"/>
      <point x="400" y="336" type="line"/>
      <point x="547" y="336" type="line"/>
      <point x="573" y="485" type="line"/>
    </contour>
    <component base="L"/>
  </outline>
</glyph>
<glyph name="ldot" format="2">
  <advance width="347"/>
  <unicode hex="0140"/>
  <outline>
    <contour>
      <point x="268" y="446" type="line"/>
      <point x="243" y="303" type="line"/>
      <point x="374" y="303" type="line"/>
      <point x="399" y="446" type="line"/>
    </contour>
    <component base="l"/>
  </outline>
</glyph>
<glyph name="Lslash" format="2">
  <advance width="630"/>
  <unicode hex="0141"/>
  <outline>
    <contour>
      <point x="-7" y="173" type="line"/>
      <point x="452" y="370" type="line"/>
      <point x="474" y="502" type="line"/>
      <point x="16" y="305" type="line"/>
    </contour>
    <component base="L"/>
  </outline>
</glyph>
<glyph name="Eng" format="2">
  <advance width="774"/>
  <unicode hex="014A"/>
  <outline>
    <contour>
      <point x="329" y="-55" type="curve"/>
      <point x="309" y="-171" type="line"/>
      <point x="344" y="-183"/>
      <point x="391" y="-192"/>
      <point x="439" y="-192" type="curve" smooth="yes"/>
      <point x="564" y="-192"/>
      <point x="639" y="-133"/>
      <point x="661" y="-11" type="curve" smooth="yes"/>
      <point x="787" y="700" type="line"/>
      <point x="642" y="700" type="line"/>
      <point x="560" y="235" type="line"/>
      <point x="335" y="700" type="line"/>
      <point x="147" y="700" type="line"/>
      <point x="23" y="0" type="line"/>
      <point x="169" y="0" type="line"/>
      <point x="262" y="527" type="line"/>
      <point x="516" y="3" type="line"/>
      <point x="514" y="-7" type="line" smooth="yes"/>
      <point x="507" y="-43"/>
      <point x="485" y="-71"/>
      <point x="423" y="-71" type="curve" smooth="yes"/>
      <point x="384" y="-71"/>
      <point x="352" y="-62"/>
    </contour>
  </outline>
</glyph>
<glyph name="eng" format="2">
  <advance width="556"/>
  <unicode hex="014B"/>
  <outline>
    <contour>
      <point x="449" y="-74" type="curve" smooth="yes"/>
      <point x="520" y="327" type="line" smooth="yes"/>
      <point x="523" y="342"/>
      <point x="524" y="355"/>
      <point x="524" y="369" type="curve" smooth="yes"/>
      <point x="524" y="455"/>
      <point x="468" y="512"/>
      <point x="377" y="512" type="curve" smooth="yes"/>
      <point x="312" y="512"/>
      <point x="265" y="481"/>
      <point x="229" y="442" type="curve"/>
      <point x="239" y="500" type="line"/>
      <point x="99" y="500" type="line"/>
      <point x="11" y="0" type="line"/>
      <point x="151" y="0" type="line"/>
      <point x="203" y="293" type="line" smooth="yes"/>
      <point x="214" y="353"/>
      <point x="252" y="391"/>
      <point x="307" y="391" type="curve" smooth="yes"/>
      <point x="355" y="391"/>
      <point x="376" y="361"/>
      <point x="376" y="320" type="curve" smooth="yes"/>
      <point x="376" y="312"/>
      <point x="375" y="304"/>
      <point x="374" y="296" type="curve" smooth="yes"/>
      <point x="316" y="-35" type="line" smooth="yes"/>
      <point x="310" y="-68"/>
      <point x="298" y="-81"/>
      <point x="270" y="-81" type="curve" smooth="yes"/>
      <point x="261" y="-81"/>
      <point x="253" y="-80"/>
      <point x="239" y="-78" type="curve"/>
      <point x="222" y="-180" type="line"/>
      <point x="236" y="-185"/>
      <point x="267" y="-190"/>
      <point x="295" y="-190" type="curve" smooth="yes"/>
      <point x="360" y="-190"/>
      <point x="433" y="-164"/>
    </contour>
  </outline>
</glyph>
<glyph name="OE" format="2">
  <advance width="1211"/>
  <unicode hex="0152"/>
  <outline>
    <contour>
      <point x="43" y="297" type="curve" smooth="yes"/>
      <point x="43" y="110"/>
      <point x="173" y="-13"/>
      <point x="364" y="-13" type="curve" smooth="yes"/>
      <point x="449" y="-13"/>
      <point x="520" y="12"/>
      <point x="576" y="55" type="curve"/>
      <point x="566" y="0" type="line"/>
      <point x="1137" y="0" type="line"/>
      <point x="1159" y="124" type="line"/>
      <point x="736" y="124" type="line"/>
      <point x="766" y="294" type="line"/>
      <point x="1033" y="294" type="line"/>
      <point x="1055" y="417" type="line"/>
      <point x="788" y="417" type="line"/>
      <point x="816" y="576" type="line"/>
      <point x="1221" y="576" type="line"/>
      <point x="1243" y="700" type="line"/>
      <point x="690" y="700" type="line"/>
      <point x="676" y="618" type="line"/>
      <point x="628" y="677"/>
      <point x="553" y="712"/>
      <point x="449" y="712" type="curve" smooth="yes"/>
      <point x="204" y="712"/>
      <point x="43" y="519"/>
    </contour>
    <contour>
      <point x="629" y="391" type="curve" smooth="yes"/>
      <point x="629" y="244"/>
      <point x="530" y="115"/>
      <point x="383" y="115" type="curve" smooth="yes"/>
      <point x="276" y="115"/>
      <point x="199" y="183"/>
      <point x="199" y="307" type="curve" smooth="yes"/>
      <point x="199" y="452"/>
      <point x="298" y="583"/>
      <point x="445" y="583" type="curve" smooth="yes"/>
      <point x="552" y="583"/>
      <point x="629" y="513"/>
    </contour>
  </outline>
</glyph>
<glyph name="Tbar" format="2">
  <advance width="675"/>
  <unicode hex="0166"/>
  <outline>
    <contour>
      <point x="123" y="281" type="line"/>
      <point x="564" y="281" type="line"/>
      <point x="585" y="403" type="line"/>
      <point x="144" y="403" type="line"/>
    </contour>
    <contour>
      <point x="333" y="651" type="line"/>
      <point x="218" y="0" type="line"/>
      <point x="369" y="0" type="line"/>
      <point x="484" y="651" type="line"/>
    </contour>
    <contour>
      <point x="76" y="576" type="line"/>
      <point x="715" y="576" type="line"/>
      <point x="737" y="700" type="line"/>
      <point x="98" y="700" type="line"/>
    </contour>
  </outline>
</glyph>
<glyph name="uogonek" format="2">
  <advance width="556"/>
  <unicode hex="0173"/>
  <outline>
    <contour>
      <point x="462" y="0" type="line"/>
      <point x="550" y="500" type="line"/>
      <point x="410" y="500" type="line"/>
      <point x="358" y="207" type="line" smooth="yes"/>
      <point x="347" y="147"/>
      <point x="310" y="109"/>
      <point x="255" y="109" type="curve" smooth="yes"/>
      <point x="207" y="109"/>
      <point x="184" y="139"/>
      <point x="184" y="180" type="curve" smooth="yes"/>
      <point x="184" y="188"/>
      <point x="185" y="196"/>
      <point x="186" y="204" type="curve" smooth="yes"/>
      <point x="238" y="500" type="line"/>
      <point x="98" y="500" type="line"/>
      <point x="40" y="173" type="line" smooth="yes"/>
      <point x="37" y="158"/>
      <point x="36" y="145"/>
      <point x="36" y="131" type="curve" smooth="yes"/>
      <point x="36" y="45"/>
      <point x="95" y="-12"/>
      <point x="185" y="-12" type="curve" smooth="yes"/>
      <point x="271" y="-12"/>
      <point x="324" y="40"/>
      <point x="361" y="95" type="curve"/>
      <point x="338" y="95" type="line"/>
      <point x="318" y="-22" type="line"/>
    </contour>
    <component base="ogonek" xOffset="135"/>
  </outline>
</glyph>
<glyph name="Bhook" format="2">
  <advance width="836"/>
  <unicode hex="0181"/>
  <outline>
    <contour>
      <point x="297" y="700" type="line"/>
      <point x="173" y="0" type="line"/>
      <point x="322" y="0" type="line"/>
      <point x="446" y="700" type="line"/>
    </contour>
    <contour>
      <point x="516" y="0" type="line" smooth="yes"/>
      <point x="700" y="0"/>
      <point x="797" y="121"/>
      <point x="797" y="233" type="curve" smooth="yes"/>
      <point x="797" y="308"/>
      <point x="752" y="347"/>
      <point x="704" y="370" type="curve"/>
      <point x="701" y="352" type="line"/>
      <point x="769" y="370"/>
      <point x="834" y="433"/>
      <point x="834" y="531" type="curve" smooth="yes"/>
      <point x="834" y="628"/>
      <point x="769" y="700"/>
      <point x="640" y="700" type="curve" smooth="yes"/>
      <point x="361" y="700" type="line"/>
      <point x="339" y="577" type="line"/>
      <point x="607" y="577" type="line" smooth="yes"/>
      <point x="654" y="577"/>
      <point x="687" y="556"/>
      <point x="687" y="511" type="curve" smooth="yes"/>
      <point x="687" y="469"/>
      <point x="656" y="420"/>
      <point x="583" y="420" type="curve" smooth="yes"/>
      <point x="310" y="420" type="line"/>
      <point x="289" y="298" type="line"/>
      <point x="559" y="298" type="line" smooth="yes"/>
      <point x="605" y="298"/>
      <point x="647" y="277"/>
      <point x="647" y="223" type="curve" smooth="yes"/>
      <point x="647" y="160"/>
      <point x="594" y="123"/>
      <point x="530" y="123" type="curve" smooth="yes"/>
      <point x="259" y="123" type="line"/>
      <point x="237" y="0" type="line"/>
    </contour>
    <contour>
      <point x="382" y="700" type="line"/>
      <point x="289" y="700" type="line" smooth="yes"/>
      <point x="104" y="700"/>
      <point x="26" y="570"/>
      <point x="26" y="460" type="curve" smooth="yes"/>
      <point x="26" y="430"/>
      <point x="34" y="400"/>
      <point x="46" y="377" type="curve"/>
      <point x="184" y="377" type="line"/>
      <point x="172" y="404"/>
      <point x="165" y="433"/>
      <point x="165" y="459" type="curve" smooth="yes"/>
      <point x="165" y="519"/>
      <point x="197" y="576"/>
      <point x="271" y="576" type="curve" smooth="yes"/>
      <point x="360" y="576" type="line"/>
    </contour>
  </outline>
</glyph>
<glyph name="Ereversed" format="2">
  <advance width="670"/>
  <unicode hex="018E"/>
  <outline>
    <contour>
      <point x="683" y="700" type="line"/>
      <point x="533" y="700" type="line"/>
      <point x="409" y="0" type="line"/>
      <point x="559" y="0" type="line"/>
    </contour>
    <contour>
      <point x="600" y="576" type="line"/>
      <point x="622" y="700" type="line"/>
      <point x="128" y="700" type="line"/>
      <point x="106" y="576" type="line"/>
    </contour>
    <contour>
      <point x="540" y="294" type="line"/>
      <point x="562" y="417" type="line"/>
      <point x="216" y="417" type="line"/>
      <point x="194" y="294" type="line"/>
    </contour>
    <contour>
      <point x="494" y="0" type="line"/>
      <point x="516" y="124" type="line"/>
      <point x="8" y="124" type="line"/>
      <point x="-14" y="0" type="line"/>
    </contour>
  </outline>
</glyph>
<glyph name="Schwa" format="2">
  <advance width="776"/>
  <unicode hex="018F"/>
  <outline>
    <contour>
      <point x="348" y="-12" type="curve" smooth="yes"/>
      <point x="601" y="-12"/>
      <point x="760" y="186"/>
      <point x="760" y="409" type="curve" smooth="yes"/>
      <point x="760" y="592"/>
      <point x="638" y="712"/>
      <point x="444" y="712" type="curve" smooth="yes"/>
      <point x="291" y="712"/>
      <point x="163" y="634"/>
      <point x="95" y="522" type="curve"/>
      <point x="225" y="469" type="line"/>
      <point x="268" y="535"/>
      <point x="337" y="585"/>
      <point x="428" y="585" type="curve" smooth="yes"/>
      <point x="536" y="585"/>
      <point x="604" y="520"/>
      <point x="604" y="401" type="curve" smooth="yes"/>
      <point x="604" y="266"/>
      <point x="526" y="116"/>
      <point x="365" y="116" type="curve" smooth="yes"/>
      <point x="257" y="116"/>
      <point x="196" y="177"/>
      <point x="196" y="281" type="curve" smooth="yes"/>
      <point x="196" y="299"/>
      <point x="201" y="328"/>
      <point x="204" y="348" type="curve"/>
      <point x="154" y="280" type="line"/>
      <point x="647" y="280" type="line"/>
      <point x="668" y="403" type="line"/>
      <point x="60" y="403" type="line"/>
      <point x="54" y="368" type="line" smooth="yes"/>
      <point x="49" y="340"/>
      <point x="47" y="313"/>
      <point x="47" y="287" type="curve" smooth="yes"/>
      <point x="47" y="106"/>
      <point x="163" y="-12"/>
    </contour>
  </outline>
</glyph>
<glyph name="Eopen" format="2">
  <advance width="647"/>
  <unicode hex="0190"/>
  <outline>
    <contour>
      <point x="630" y="211" type="curve"/>
      <point x="480" y="207" type="line"/>
      <point x="470" y="144"/>
      <point x="423" y="107"/>
      <point x="323" y="107" type="curve" smooth="yes"/>
      <point x="222" y="107"/>
      <point x="172" y="143"/>
      <point x="172" y="197" type="curve" smooth="yes"/>
      <point x="172" y="259"/>
      <point x="236" y="303"/>
      <point x="341" y="303" type="curve" smooth="yes"/>
      <point x="433" y="303" type="line"/>
      <point x="454" y="421" type="line"/>
      <point x="375" y="421" type="line" smooth="yes"/>
      <point x="294" y="421"/>
      <point x="243" y="448"/>
      <point x="243" y="498" type="curve" smooth="yes"/>
      <point x="243" y="541"/>
      <point x="283" y="594"/>
      <point x="389" y="594" type="curve" smooth="yes"/>
      <point x="481" y="594"/>
      <point x="523" y="556"/>
      <point x="523" y="505" type="curve" smooth="yes"/>
      <point x="523" y="499"/>
      <point x="523" y="493"/>
      <point x="522" y="487" type="curve"/>
      <point x="671" y="481" type="line"/>
      <point x="673" y="493"/>
      <point x="674" y="506"/>
      <point x="674" y="520" type="curve" smooth="yes"/>
      <point x="674" y="643"/>
      <point x="563" y="712"/>
      <point x="400" y="712" type="curve" smooth="yes"/>
      <point x="212" y="712"/>
      <point x="88" y="613"/>
      <point x="88" y="496" type="curve" smooth="yes"/>
      <point x="88" y="422"/>
      <point x="141" y="384"/>
      <point x="200" y="367" type="curve"/>
      <point x="201" y="373" type="line"/>
      <point x="90" y="358"/>
      <point x="16" y="285"/>
      <point x="16" y="182" type="curve" smooth="yes"/>
      <point x="16" y="62"/>
      <point x="122" y="-12"/>
      <point x="311" y="-12" type="curve" smooth="yes"/>
      <point x="480" y="-12"/>
      <point x="608" y="55"/>
    </contour>
  </outline>
</glyph>
<glyph name="fhook" format="2">
  <advance width="485"/>
  <unicode hex="0192"/>
  <outline>
    <contour>
      <point x="115" y="366" type="line"/>
      <point x="457" y="366" type="line"/>
      <point x="475" y="470" type="line"/>
      <point x="133" y="470" type="line"/>
    </contour>
    <contour>
      <point x="253" y="149" type="curve" smooth="yes"/>
      <point x="413" y="542" type="line" smooth="yes"/>
      <point x="430" y="583"/>
      <point x="454" y="600"/>
      <point x="491" y="600" type="curve" smooth="yes"/>
      <point x="503" y="600"/>
      <point x="520" y="598"/>
      <point x="536" y="595" type="curve"/>
      <point x="555" y="705" type="line"/>
      <point x="533" y="710"/>
      <point x="509" y="712"/>
      <point x="489" y="712" type="curve" smooth="yes"/>
      <point x="386" y="712"/>
      <point x="314" y="663"/>
      <point x="270" y="554" type="curve" smooth="yes"/>
      <point x="109" y="158" type="line" smooth="yes"/>
      <point x="93" y="118"/>
      <point x="74" y="100"/>
      <point x="30" y="100" type="curve" smooth="yes"/>
      <point x="18" y="100"/>
      <point x="2" y="102"/>
      <point x="-14" y="105" type="curve"/>
      <point x="-34" y="-6" type="line"/>
      <point x="-17" y="-10"/>
      <point x="7" y="-12"/>
      <point x="28" y="-12" type="curve"/>
      <point x="128" y="-12"/>
      <point x="207" y="36"/>
    </contour>
  </outline>
</glyph>
<glyph name="Khook" format="2">
  <advance width="686"/>
  <unicode hex="0198"/>
  <outline>
    <contour>
      <point x="147" y="700" type="line"/>
      <point x="23" y="0" type="line"/>
      <point x="174" y="0" type="line"/>
      <point x="298" y="700" type="line"/>
    </contour>
    <contour>
      <point x="274" y="334" type="line"/>
      <point x="483" y="0" type="line"/>
      <point x="652" y="0" type="line"/>
      <point x="379" y="436" type="line"/>
    </contour>
    <contour>
      <point x="579" y="544" type="line" smooth="yes"/>
      <point x="610" y="572"/>
      <point x="636" y="581"/>
      <point x="662" y="581" type="curve" smooth="yes"/>
      <point x="693" y="581"/>
      <point x="714" y="570"/>
      <point x="730" y="561" type="curve"/>
      <point x="756" y="690" type="line"/>
      <point x="729" y="704"/>
      <point x="696" y="712"/>
      <point x="661" y="712" type="curve" smooth="yes"/>
      <point x="601" y="712"/>
      <point x="541" y="689"/>
      <point x="479" y="630" type="curve" smooth="yes"/>
      <point x="138" y="310" type="line"/>
      <point x="121" y="133" type="line"/>
      <point x="343" y="334" type="line"/>
      <point x="381" y="360" type="line"/>
    </contour>
  </outline>
</glyph>
<glyph name="khook" format="2">
  <advance width="534"/>
  <unicode hex="0199"/>
  <outline>
    <contour>
      <point x="129" y="259" type="line"/>
      <point x="101" y="93" type="line"/>
      <point x="279" y="248" type="line"/>
      <point x="321" y="271" type="line"/>
      <point x="583" y="500" type="line"/>
      <point x="405" y="500" type="line"/>
    </contour>
    <contour>
      <point x="208" y="263" type="line"/>
      <point x="345" y="0" type="line"/>
      <point x="495" y="0" type="line"/>
      <point x="315" y="347" type="line"/>
    </contour>
    <contour>
      <point x="242" y="543" type="line" smooth="yes"/>
      <point x="249" y="582"/>
      <point x="275" y="600"/>
      <point x="303" y="600" type="curve" smooth="yes"/>
      <point x="321" y="600"/>
      <point x="337" y="595"/>
      <point x="356" y="586" type="curve"/>
      <point x="377" y="691" type="line"/>
      <point x="354" y="703"/>
      <point x="315" y="712"/>
      <point x="274" y="712" type="curve" smooth="yes"/>
      <point x="193" y="712"/>
      <point x="122" y="660"/>
      <point x="103" y="553" type="curve" smooth="yes"/>
      <point x="6" y="0" type="line"/>
      <point x="146" y="0" type="line"/>
    </contour>
  </outline>
</glyph>
<glyph name="Uhorn" format="2">
  <advance width="736"/>
  <unicode hex="01AF"/>
  <outline>
    <contour>
      <point x="673" y="258" type="curve" smooth="yes"/>
      <point x="751" y="700" type="line"/>
      <point x="606" y="700" type="line"/>
      <point x="530" y="271" type="line" smooth="yes"/>
      <point x="513" y="177"/>
      <point x="451" y="117"/>
      <point x="354" y="117" type="curve" smooth="yes"/>
      <point x="265" y="117"/>
      <point x="212" y="169"/>
      <point x="212" y="247" type="curve" smooth="yes"/>
      <point x="212" y="258"/>
      <point x="213" y="270"/>
      <point x="215" y="283" type="curve" smooth="yes"/>
      <point x="289" y="700" type="line"/>
      <point x="143" y="700" type="line"/>
      <point x="69" y="280" type="line" smooth="yes"/>
      <point x="65" y="259"/>
      <point x="63" y="238"/>
      <point x="63" y="219" type="curve" smooth="yes"/>
      <point x="63" y="78"/>
      <point x="163" y="-12"/>
      <point x="342" y="-12" type="curve" smooth="yes"/>
      <point x="536" y="-12"/>
      <point x="644" y="93"/>
    </contour>
    <component base="horncmb.uc" xOffset="390"/>
  </outline>
</glyph>
<glyph name="yhook" format="2">
  <advance width="539"/>
  <unicode hex="01B4"/>
  <outline>
    <contour>
      <point x="168" y="-61" type="line"/>
      <point x="272" y="116" type="line"/>
      <point x="189" y="500" type="line"/>
      <point x="40" y="500" type="line"/>
    </contour>
    <contour>
      <point x="481" y="338" type="line" smooth="yes"/>
      <point x="503" y="376"/>
      <point x="525" y="394"/>
      <point x="550" y="394" type="curve" smooth="yes"/>
      <point x="559" y="394"/>
      <point x="570" y="393"/>
      <point x="579" y="387" type="curve"/>
      <point x="602" y="495" type="line"/>
      <point x="576" y="507"/>
      <point x="552" y="512"/>
      <point x="527" y="512" type="curve" smooth="yes"/>
      <point x="457" y="512"/>
      <point x="403" y="468"/>
      <point x="363" y="396" type="curve" smooth="yes"/>
      <point x="176" y="58" type="line"/>
      <point x="155" y="32" type="line"/>
      <point x="26" y="-180" type="line"/>
      <point x="183" y="-180" type="line"/>
    </contour>
  </outline>
</glyph>
<glyph name="Icaron" format="2">
  <advance width="285"/>
  <unicode hex="01CF"/>
  <outline>
    <contour>
      <point x="302" y="760.0" type="line"/>
      <point x="434" y="892.0" type="line"/>
      <point x="314" y="892.0" type="line"/>
      <point x="186" y="805.0" type="line"/>
      <point x="292" y="805.0" type="line"/>
      <point x="196" y="892.0" type="line"/>
      <point x="78" y="892.0" type="line"/>
      <point x="162" y="760.0" type="line"/>
    </contour>
    <component base="I"/>
  </outline>
</glyph>
<glyph name="icaron" format="2">
  <advance width="250"/>
  <unicode hex="01D0"/>
  <outline>
    <contour>
      <point x="247" y="564.0" type="line"/>
      <point x="371" y="700.0" type="line"/>
      <point x="261" y="700.0" type="line"/>
      <point x="137" y="602.0" type="line"/>
      <point x="233" y="602.0" type="line"/>
      <point x="145" y="700.0" type="line"/>
      <point x="39" y="700.0" type="line"/>
      <point x="115" y="564.0" type="line"/>
    </contour>
    <component base="dotlessi"/>
  </outline>
</glyph>
<glyph name="Oogonek" format="2">
  <advance width="786"/>
  <unicode hex="01EA"/>
  <outline>
    <contour>
      <point x="768" y="406" type="curve" smooth="yes"/>
      <point x="768" y="588"/>
      <point x="643" y="712"/>
      <point x="452" y="712" type="curve" smooth="yes"/>
      <point x="209" y="712"/>
      <point x="44" y="523"/>
      <point x="44" y="294" type="curve" smooth="yes"/>
      <point x="44" y="127"/>
      <point x="150" y="8"/>
      <point x="315" y="-10" type="curve"/>
      <point x="276" y="-34"/>
      <point x="232" y="-75"/>
      <point x="232" y="-128" type="curve" smooth="yes"/>
      <point x="232" y="-175"/>
      <point x="277" y="-204"/>
      <point x="359" y="-204" type="curve" smooth="yes"/>
      <point x="381" y="-204"/>
      <point x="410" y="-202"/>
      <point x="432" y="-197" type="curve"/>
      <point x="447" y="-110" type="line"/>
      <point x="426" y="-114"/>
      <point x="410" y="-116"/>
      <point x="392" y="-116" type="curve" smooth="yes"/>
      <point x="365" y="-115"/>
      <point x="352" y="-106"/>
      <point x="352" y="-90" type="curve" smooth="yes"/>
      <point x="352" y="-59"/>
      <point x="398" y="-24"/>
      <point x="470" y="-2" type="curve" smooth="yes"/>
      <point x="652" y="54"/>
      <point x="768" y="212"/>
    </contour>
    <contour>
      <point x="373" y="116" type="curve" smooth="yes"/>
      <point x="270" y="116"/>
      <point x="201" y="186"/>
      <point x="201" y="304" type="curve" smooth="yes"/>
      <point x="201" y="447"/>
      <point x="292" y="584"/>
      <point x="439" y="584" type="curve" smooth="yes"/>
      <point x="542" y="584"/>
      <point x="611" y="514"/>
      <point x="611" y="396" type="curve" smooth="yes"/>
      <point x="611" y="253"/>
      <point x="520" y="116"/>
    </contour>
  </outline>
</glyph>
<glyph name="oogonek" format="2">
  <advance width="566"/>
  <unicode hex="01EB"/>
  <outline>
    <contour>
      <point x="28" y="207" type="curve" smooth="yes"/>
      <point x="28" y="91"/>
      <point x="96" y="12"/>
      <point x="198" y="-7" type="curve"/>
      <point x="157" y="-32"/>
      <point x="111" y="-73"/>
      <point x="111" y="-128" type="curve" smooth="yes"/>
      <point x="111" y="-175"/>
      <point x="156" y="-204"/>
      <point x="238" y="-204" type="curve" smooth="yes"/>
      <point x="260" y="-204"/>
      <point x="289" y="-202"/>
      <point x="311" y="-197" type="curve"/>
      <point x="326" y="-110" type="line"/>
      <point x="305" y="-114"/>
      <point x="289" y="-116"/>
      <point x="271" y="-116" type="curve" smooth="yes"/>
      <point x="244" y="-115"/>
      <point x="231" y="-106"/>
      <point x="231" y="-90" type="curve" smooth="yes"/>
      <point x="231" y="-58"/>
      <point x="271" y="-29"/>
      <point x="340" y="-3" type="curve" smooth="yes"/>
      <point x="464" y="44"/>
      <point x="538" y="165"/>
      <point x="538" y="293" type="curve" smooth="yes"/>
      <point x="538" y="428"/>
      <point x="447" y="512"/>
      <point x="316" y="512" type="curve" smooth="yes"/>
      <point x="137" y="512"/>
      <point x="28" y="362"/>
    </contour>
    <contour>
      <point x="305" y="396" type="curve" smooth="yes"/>
      <point x="363" y="396"/>
      <point x="397" y="359"/>
      <point x="397" y="286" type="curve" smooth="yes"/>
      <point x="397" y="202"/>
      <point x="354" y="104"/>
      <point x="261" y="104" type="curve" smooth="yes"/>
      <point x="203" y="104"/>
      <point x="169" y="141"/>
      <point x="169" y="214" type="curve" smooth="yes"/>
      <point x="169" y="298"/>
      <point x="212" y="396"/>
    </contour>
  </outline>
</glyph>
<glyph name="bhook" format="2">
  <advance width="584"/>
  <unicode hex="0253"/>
  <outline>
    <contour>
      <point x="276" y="104" type="curve" smooth="yes"/>
      <point x="217" y="104"/>
      <point x="181" y="144"/>
      <point x="181" y="214" type="curve" smooth="yes"/>
      <point x="181" y="303"/>
      <point x="225" y="396"/>
      <point x="317" y="396" type="curve" smooth="yes"/>
      <point x="376" y="396"/>
      <point x="413" y="358"/>
      <point x="413" y="287" type="curve" smooth="yes"/>
      <point x="413" y="198"/>
      <point x="368" y="104"/>
    </contour>
    <contour>
      <point x="242" y="543" type="line" smooth="yes"/>
      <point x="249" y="582"/>
      <point x="275" y="600"/>
      <point x="303" y="600" type="curve" smooth="yes"/>
      <point x="321" y="600"/>
      <point x="337" y="595"/>
      <point x="356" y="586" type="curve"/>
      <point x="377" y="691" type="line"/>
      <point x="354" y="703"/>
      <point x="315" y="712"/>
      <point x="274" y="712" type="curve" smooth="yes"/>
      <point x="193" y="712"/>
      <point x="122" y="660"/>
      <point x="103" y="553" type="curve" smooth="yes"/>
      <point x="5" y="0" type="line"/>
      <point x="145" y="0" type="line"/>
      <point x="168" y="123" type="line"/>
      <point x="135" y="124" type="line"/>
      <point x="152" y="40"/>
      <point x="212" y="-13"/>
      <point x="303" y="-13" type="curve" smooth="yes"/>
      <point x="458" y="-13"/>
      <point x="557" y="146"/>
      <point x="557" y="309" type="curve" smooth="yes"/>
      <point x="557" y="440"/>
      <point x="480" y="512"/>
      <point x="382" y="512" type="curve" smooth="yes"/>
      <point x="298" y="512"/>
      <point x="225" y="462"/>
      <point x="181" y="384" type="curve"/>
      <point x="214" y="383" type="line"/>
    </contour>
  </outline>
</glyph>
<glyph name="dhook" format="2">
  <advance width="584"/>
  <unicode hex="0257"/>
  <outline>
    <contour>
      <point x="585" y="537" type="line" smooth="yes"/>
      <point x="592" y="576"/>
      <point x="609" y="594"/>
      <point x="640" y="594" type="curve" smooth="yes"/>
      <point x="657" y="594"/>
      <point x="673" y="589"/>
      <point x="682" y="586" type="curve"/>
      <point x="704" y="691" type="line"/>
      <point x="690" y="697"/>
      <point x="648" y="707"/>
      <point x="617" y="707" type="curve" smooth="yes"/>
      <point x="532" y="707"/>
      <point x="466" y="656"/>
      <point x="447" y="549" type="curve" smooth="yes"/>
      <point x="416" y="375" type="line"/>
      <point x="449" y="374" type="line"/>
      <point x="432" y="458"/>
      <point x="370" y="512"/>
      <point x="280" y="512" type="curve" smooth="yes"/>
      <point x="130" y="512"/>
      <point x="27" y="360"/>
      <point x="27" y="194" type="curve" smooth="yes"/>
      <point x="27" y="59"/>
      <point x="108" y="-12"/>
      <point x="207" y="-12" type="curve"/>
      <point x="288" y="-12"/>
      <point x="359" y="36"/>
      <point x="403" y="114" type="curve"/>
      <point x="370" y="115" type="line"/>
      <point x="350" y="0" type="line"/>
      <point x="490" y="0" type="line"/>
    </contour>
    <contour>
      <point x="170" y="214" type="curve" smooth="yes"/>
      <point x="170" y="298"/>
      <point x="214" y="396"/>
      <point x="309" y="396" type="curve" smooth="yes"/>
      <point x="370" y="396"/>
      <point x="403" y="358"/>
      <point x="403" y="287" type="curve" smooth="yes"/>
      <point x="403" y="203"/>
      <point x="363" y="104"/>
      <point x="268" y="104" type="curve" smooth="yes"/>
      <point x="207" y="104"/>
      <point x="170" y="143"/>
    </contour>
  </outline>
</glyph>
<glyph name="schwa" format="2">
  <advance width="548"/>
  <unicode hex="0259"/>
  <outline>
    <contour>
      <point x="525" y="294" type="curve" smooth="yes"/>
      <point x="525" y="428"/>
      <point x="439" y="512"/>
      <point x="304" y="512" type="curve" smooth="yes"/>
      <point x="195" y="512"/>
      <point x="96" y="454"/>
      <point x="53" y="370" type="curve"/>
      <point x="177" y="332" type="line"/>
      <point x="203" y="377"/>
      <point x="242" y="400"/>
      <point x="291" y="400" type="curve" smooth="yes"/>
      <point x="349" y="400"/>
      <point x="385" y="367"/>
      <point x="385" y="293" type="curve" smooth="yes"/>
      <point x="385" y="203"/>
      <point x="347" y="102"/>
      <point x="249" y="102" type="curve" smooth="yes"/>
      <point x="194" y="102"/>
      <point x="162" y="134"/>
      <point x="162" y="201" type="curve" smooth="yes"/>
      <point x="162" y="215"/>
      <point x="163" y="233"/>
      <point x="167" y="252" type="curve"/>
      <point x="101" y="192" type="line"/>
      <point x="442" y="192" type="line"/>
      <point x="460" y="296" type="line"/>
      <point x="32" y="296" type="line"/>
      <point x="27" y="264" type="line" smooth="yes"/>
      <point x="24" y="245"/>
      <point x="21" y="225"/>
      <point x="21" y="204" type="curve" smooth="yes"/>
      <point x="21" y="72"/>
      <point x="104" y="-12"/>
      <point x="236" y="-12" type="curve" smooth="yes"/>
      <point x="426" y="-12"/>
      <point x="525" y="138"/>
    </contour>
  </outline>
</glyph>
<glyph name="istroke" format="2">
  <advance width="250"/>
  <unicode hex="0268"/>
  <outline>
    <contour>
      <point x="252" y="251" type="line"/>
      <point x="268" y="345" type="line"/>
      <point x="16" y="345" type="line"/>
      <point x="0" y="251" type="line"/>
    </contour>
    <component base="i"/>
  </outline>
</glyph>
<glyph name="nhookleft" format="2">
  <advance width="556"/>
  <unicode hex="0272"/>
  <outline>
    <contour>
      <point x="-86" y="-180" type="line"/>
      <point x="-71" y="-186"/>
      <point x="-45" y="-190"/>
      <point x="-19" y="-190" type="curve" smooth="yes"/>
      <point x="47" y="-190"/>
      <point x="122" y="-166"/>
      <point x="138" y="-75" type="curve" smooth="yes"/>
      <point x="203" y="293" type="line" smooth="yes"/>
      <point x="214" y="353"/>
      <point x="252" y="391"/>
      <point x="307" y="391" type="curve" smooth="yes"/>
      <point x="355" y="391"/>
      <point x="376" y="361"/>
      <point x="376" y="320" type="curve" smooth="yes"/>
      <point x="376" y="312"/>
      <point x="375" y="304"/>
      <point x="374" y="296" type="curve" smooth="yes"/>
      <point x="322" y="0" type="line"/>
      <point x="462" y="0" type="line"/>
      <point x="520" y="327" type="line" smooth="yes"/>
      <point x="523" y="342"/>
      <point x="524" y="355"/>
      <point x="524" y="369" type="curve" smooth="yes"/>
      <point x="524" y="455"/>
      <point x="468" y="512"/>
      <point x="377" y="512" type="curve" smooth="yes"/>
      <point x="312" y="512"/>
      <point x="265" y="481"/>
      <point x="229" y="442" type="curve"/>
      <point x="239" y="500" type="line"/>
      <point x="99" y="500" type="line"/>
      <point x="5" y="-35" type="line" smooth="yes"/>
      <point x="-1" y="-67"/>
      <point x="-12" y="-81"/>
      <point x="-40" y="-81" type="curve" smooth="yes"/>
      <point x="-49" y="-81"/>
      <point x="-58" y="-80"/>
      <point x="-68" y="-78" type="curve"/>
    </contour>
  </outline>
</glyph>
<glyph name="nretroflex" format="2">
  <advance width="556"/>
  <unicode hex="0273"/>
  <outline>
    <contour>
      <point x="99" y="500" type="line"/>
      <point x="11" y="0" type="line"/>
      <point x="151" y="0" type="line"/>
      <point x="203" y="293" type="line" smooth="yes"/>
      <point x="214" y="353"/>
      <point x="252" y="391"/>
      <point x="307" y="391" type="curve" smooth="yes"/>
      <point x="355" y="391"/>
      <point x="376" y="361"/>
      <point x="376" y="320" type="curve" smooth="yes"/>
      <point x="376" y="312"/>
      <point x="375" y="304"/>
      <point x="374" y="296" type="curve" smooth="yes"/>
      <point x="310" y="-65" type="line" smooth="yes"/>
      <point x="308" y="-76"/>
      <point x="308" y="-82"/>
      <point x="308" y="-90" type="curve" smooth="yes"/>
      <point x="308" y="-168"/>
      <point x="378" y="-189"/>
      <point x="444" y="-189" type="curve" smooth="yes"/>
      <point x="464" y="-189"/>
      <point x="484" y="-187"/>
      <point x="496" y="-185" type="curve"/>
      <point x="514" y="-80" type="line"/>
      <point x="505" y="-81"/>
      <point x="497" y="-82"/>
      <point x="489" y="-82" type="curve" smooth="yes"/>
      <point x="467" y="-82"/>
      <point x="454" y="-72"/>
      <point x="454" y="-51" type="curve" smooth="yes"/>
      <point x="454" y="-46"/>
      <point x="455" y="-40"/>
      <point x="456" y="-34" type="curve" smooth="yes"/>
      <point x="520" y="327" type="line" smooth="yes"/>
      <point x="523" y="342"/>
      <point x="524" y="355"/>
      <point x="524" y="369" type="curve" smooth="yes"/>
      <point x="524" y="455"/>
      <point x="468" y="512"/>
      <point x="377" y="512" type="curve" smooth="yes"/>
      <point x="312" y="512"/>
      <point x="265" y="481"/>
      <point x="229" y="442" type="curve"/>
      <point x="239" y="500" type="line"/>
    </contour>
  </outline>
</glyph>
<glyph name="macroncmb" format="2">
  <advance width="600"/>
  <unicode hex="0304"/>
  <outline>
    <contour>
      <point x="202" y="587" type="line"/>
      <point x="512" y="587" type="line"/>
      <point x="530" y="688" type="line"/>
      <point x="220" y="688" type="line"/>
    </contour>
  </outline>
</glyph>
<glyph name="dotaccentcmb" format="2">
  <advance width="600"/>
  <unicode hex="0307"/>
  <outline>
    <contour>
      <point x="309" y="700" type="line"/>
      <point x="285" y="564" type="line"/>
      <point x="429" y="564" type="line"/>
      <point x="453" y="700" type="line"/>
    </contour>
  </outline>
</glyph>
<glyph name="dieresiscmb" format="2">
  <advance width="600"/>
  <unicode hex="0308"/>
  <outline>
    <contour>
      <point x="212" y="700" type="line"/>
      <point x="188" y="564" type="line"/>
      <point x="328" y="564" type="line"/>
      <point x="352" y="700" type="line"/>
    </contour>
    <contour>
      <point x="404" y="700" type="line"/>
      <point x="380" y="564" type="line"/>
      <point x="520" y="564" type="line"/>
      <point x="544" y="700" type="line"/>
    </contour>
  </outline>
</glyph>
<glyph name="commaturnedabovecmb" format="2">
  <advance width="600"/>
  <unicode hex="0312"/>
  <outline>
    <contour>
      <point x="429.0" y="564.0" type="line"/>
      <point x="453.0" y="700.0" type="line"/>
      <point x="387.0" y="700.0" type="line"/>
      <point x="388.0" y="702.0" type="line" smooth="yes"/>
      <point x="394.0" y="741.0"/>
      <point x="413.0" y="771.0"/>
      <point x="478.0" y="771.0" type="curve"/>
      <point x="489.0" y="834.0" type="line"/>
      <point x="372.0" y="834.0"/>
      <point x="322.0" y="773.0"/>
      <point x="310.0" y="702.0" type="curve" smooth="yes"/>
      <point x="285.0" y="564.0" type="line"/>
    </contour>
  </outline>
</glyph>
<glyph name="horncmb" format="2">
  <advance width="600"/>
  <unicode hex="031B"/>
  <outline>
    <contour>
      <point x="357" y="586" type="line"/>
      <point x="357" y="579"/>
      <point x="358" y="571"/>
      <point x="358" y="565" type="curve" smooth="yes"/>
      <point x="358.0" y="514"/>
      <point x="342" y="500"/>
      <point x="302" y="500" type="curve" smooth="yes"/>
      <point x="235" y="500" type="line"/>
      <point x="218" y="402" type="line"/>
      <point x="303" y="402" type="line" smooth="yes"/>
      <point x="422" y="402"/>
      <point x="459.0" y="462"/>
      <point x="459" y="556" type="curve" smooth="yes"/>
      <point x="459" y="567"/>
      <point x="458" y="577"/>
      <point x="456" y="586" type="curve"/>
    </contour>
  </outline>
</glyph>
<glyph name="cedillacmb" format="2">
  <advance width="600"/>
  <unicode hex="0327"/>
  <outline>
    <contour>
      <point x="77.0" y="-212.0" type="line"/>
      <point x="115" y="-228"/>
      <point x="156.0" y="-235.0"/>
      <point x="198.0" y="-235.0" type="curve" smooth="yes"/>
      <point x="302.0" y="-235.0"/>
      <point x="368.0" y="-180.0"/>
      <point x="368.0" y="-116.0" type="curve" smooth="yes"/>
      <point x="368.0" y="-61.0"/>
      <point x="320.0" y="-39.0"/>
      <point x="258.0" y="-39.0" type="curve" smooth="yes"/>
      <point x="241.0" y="-39.0"/>
      <point x="224.0" y="-42.0"/>
      <point x="200.0" y="-51.0" type="curve"/>
      <point x="231.0" y="-65.0" type="line"/>
      <point x="296.0" y="10.0" type="line"/>
      <point x="213.0" y="10.0" type="line"/>
      <point x="143.0" y="-71.0" type="line"/>
      <point x="161.0" y="-112.0" type="line"/>
      <point x="187.0" y="-107.0"/>
      <point x="201.0" y="-106.0"/>
      <point x="216.0" y="-106.0" type="curve" smooth="yes"/>
      <point x="240.0" y="-107.0"/>
      <point x="258.0" y="-111.0"/>
      <point x="258.0" y="-126.0" type="curve" smooth="yes"/>
      <point x="258.0" y="-139.0"/>
      <point x="243.0" y="-154.0"/>
      <point x="198.0" y="-154.0" type="curve" smooth="yes"/>
      <point x="168.0" y="-154.0"/>
      <point x="139" y="-147"/>
      <point x="91.0" y="-132.0" type="curve"/>
    </contour>
  </outline>
</glyph>
<glyph name="rlinebelow" format="2">
  <advance width="375"/>
  <unicode hex="1E5F"/>
  <outline>
    <contour>
      <point x="-87" y="-178.0" type="line"/>
      <point x="183" y="-178.0" type="line"/>
      <point x="201" y="-77.0" type="line"/>
      <point x="-69" y="-77.0" type="line"/>
    </contour>
    <component base="r"/>
  </outline>
</glyph>
<glyph name="Uhorntilde" format="2">
  <advance width="736"/>
  <unicode hex="1EEE"/>
  <outline>
    <contour>
      <point x="673" y="258" type="curve" smooth="yes"/>
      <point x="751" y="700" type="line"/>
      <point x="606" y="700" type="line"/>
      <point x="530" y="271" type="line" smooth="yes"/>
      <point x="513" y="177"/>
      <point x="451" y="117"/>
      <point x="354" y="117" type="curve" smooth="yes"/>
      <point x="265" y="117"/>
      <point x="212" y="169"/>
      <point x="212" y="247" type="curve" smooth="yes"/>
      <point x="212" y="258"/>
      <point x="213" y="270"/>
      <point x="215" y="283" type="curve" smooth="yes"/>
      <point x="289" y="700" type="line"/>
      <point x="143" y="700" type="line"/>
      <point x="69" y="280" type="line" smooth="yes"/>
      <point x="65" y="259"/>
      <point x="63" y="238"/>
      <point x="63" y="219" type="curve" smooth="yes"/>
      <point x="63" y="78"/>
      <point x="163" y="-12"/>
      <point x="342" y="-12" type="curve" smooth="yes"/>
      <point x="536" y="-12"/>
      <point x="644" y="93"/>
    </contour>
    <contour>
      <point x="776" y="791" type="line"/>
      <point x="775" y="782"/>
      <point x="775" y="779"/>
      <point x="774" y="774" type="curve" smooth="yes"/>
      <point x="765" y="722"/>
      <point x="753" y="700"/>
      <point x="707" y="700" type="curve" smooth="yes"/>
      <point x="620" y="700" type="line"/>
      <point x="590" y="601" type="line"/>
      <point x="692" y="601" type="line" smooth="yes"/>
      <point x="836" y="601"/>
      <point x="870" y="670"/>
      <point x="885" y="773" type="curve" smooth="yes"/>
      <point x="886" y="780"/>
      <point x="887" y="787"/>
      <point x="887" y="791" type="curve"/>
    </contour>
    <component base="tildecmb.uc" xOffset="68"/>
  </outline>
</glyph>
<glyph name="endash" format="2">
  <advance width="684"/>
  <unicode hex="2013"/>
  <outline>
    <contour>
      <point x="49" y="238" type="line"/>
      <point x="631" y="238" type="line"/>
      <point x="651" y="354" type="line"/>
      <point x="69" y="354" type="line"/>
    </contour>
  </outline>
</glyph>
<glyph name="quotedblleft" format="2">
  <advance width="439"/>
  <unicode hex="201C"/>
  <outline>
    <contour>
      <point x="413" y="402" type="line"/>
      <point x="439" y="551" type="line"/>
      <point x="371" y="551" type="line"/>
      <point x="373" y="563" type="line" smooth="yes"/>
      <point x="381" y="614"/>
      <point x="405" y="648"/>
      <point x="476" y="648" type="curve"/>
      <point x="487" y="712" type="line"/>
      <point x="363" y="712"/>
      <point x="309" y="647"/>
      <point x="294" y="563" type="curve" smooth="yes"/>
      <point x="266" y="402" type="line"/>
    </contour>
    <contour>
      <point x="217" y="402" type="line"/>
      <point x="243" y="551" type="line"/>
      <point x="175" y="551" type="line"/>
      <point x="177" y="563" type="line" smooth="yes"/>
      <point x="185" y="614"/>
      <point x="209" y="648"/>
      <point x="280" y="648" type="curve"/>
      <point x="291" y="712" type="line"/>
      <point x="167" y="712"/>
      <point x="113" y="647"/>
      <point x="98" y="563" type="curve" smooth="yes"/>
      <point x="70" y="402" type="line"/>
    </contour>
  </outline>
</glyph>
<glyph name="quotedblright" format="2">
  <advance width="439"/>
  <unicode hex="201D"/>
  <outline>
    <contour>
      <point x="122" y="700" type="line"/>
      <point x="96" y="551" type="line"/>
      <point x="164" y="551" type="line"/>
      <point x="162" y="539" type="line" smooth="yes"/>
      <point x="154" y="488"/>
      <point x="130" y="454"/>
      <point x="59" y="454" type="curve"/>
      <point x="48" y="390" type="line"/>
      <point x="172" y="390"/>
      <point x="226" y="455"/>
      <point x="241" y="539" type="curve" smooth="yes"/>
      <point x="269" y="700" type="line"/>
    </contour>
    <contour>
      <point x="318" y="700" type="line"/>
      <point x="292" y="551" type="line"/>
      <point x="360" y="551" type="line"/>
      <point x="358" y="539" type="line" smooth="yes"/>
      <point x="350" y="488"/>
      <point x="326" y="454"/>
      <point x="255" y="454" type="curve"/>
      <point x="244" y="390" type="line"/>
      <point x="368" y="390"/>
      <point x="422" y="455"/>
      <point x="437" y="539" type="curve" smooth="yes"/>
      <point x="465" y="700" type="line"/>
    </contour>
  </outline>
</glyph>
<glyph name="quotedblbase" format="2">
  <advance width="439"/>
  <unicode hex="201E"/>
  <outline>
    <contour>
      <point x="25" y="149" type="line"/>
      <point x="-1" y="0" type="line"/>
      <point x="67" y="0" type="line"/>
      <point x="65" y="-12" type="line" smooth="yes"/>
      <point x="57" y="-63"/>
      <point x="33" y="-97"/>
      <point x="-38" y="-97" type="curve"/>
      <point x="-49" y="-161" type="line"/>
      <point x="75" y="-161"/>
      <point x="129" y="-96"/>
      <point x="144" y="-12" type="curve" smooth="yes"/>
      <point x="172" y="149" type="line"/>
    </contour>
    <contour>
      <point x="221" y="149" type="line"/>
      <point x="195" y="0" type="line"/>
      <point x="263" y="0" type="line"/>
      <point x="261" y="-12" type="line" smooth="yes"/>
      <point x="253" y="-63"/>
      <point x="229" y="-97"/>
      <point x="158" y="-97" type="curve"/>
      <point x="147" y="-161" type="line"/>
      <point x="271" y="-161"/>
      <point x="325" y="-96"/>
      <point x="340" y="-12" type="curve" smooth="yes"/>
      <point x="368" y="149" type="line"/>
    </contour>
  </outline>
</glyph>
<glyph name="ellipsis" format="2">
  <advance width="785"/>
  <unicode hex="2026"/>
  <outline>
    <contour>
      <point x="41" y="149" type="line"/>
      <point x="15" y="0" type="line"/>
      <point x="162" y="0" type="line"/>
      <point x="188" y="149" type="line"/>
    </contour>
    <contour>
      <point x="301" y="149" type="line"/>
      <point x="275" y="0" type="line"/>
      <point x="422" y="0" type="line"/>
      <point x="448" y="149" type="line"/>
    </contour>
    <contour>
      <point x="561" y="149" type="line"/>
      <point x="535" y="0" type="line"/>
      <point x="682" y="0" type="line"/>
      <point x="708" y="149" type="line"/>
    </contour>
  </outline>
</glyph>
<glyph name="perthousand" format="2">
  <advance width="1083"/>
  <unicode hex="2030"/>
  <outline>
    <contour>
      <point x="275" y="556" type="curve" smooth="yes"/>
      <point x="275" y="499"/>
      <point x="252" y="431"/>
      <point x="205" y="431" type="curve" smooth="yes"/>
      <point x="178" y="431"/>
      <point x="165" y="454"/>
      <point x="165" y="492" type="curve" smooth="yes"/>
      <point x="165" y="548"/>
      <point x="188" y="617"/>
      <point x="235" y="617" type="curve" smooth="yes"/>
      <point x="262" y="617"/>
      <point x="275" y="594"/>
    </contour>
    <contour>
      <point x="625" y="208" type="curve" smooth="yes"/>
      <point x="625" y="151"/>
      <point x="602" y="83"/>
      <point x="555" y="83" type="curve" smooth="yes"/>
      <point x="528" y="83"/>
      <point x="515" y="106"/>
      <point x="515" y="144" type="curve" smooth="yes"/>
      <point x="515" y="200"/>
      <point x="538" y="269"/>
      <point x="585" y="269" type="curve" smooth="yes"/>
      <point x="612" y="269"/>
      <point x="625" y="246"/>
    </contour>
    <contour>
      <point x="956" y="208" type="curve" smooth="yes"/>
      <point x="956" y="151"/>
      <point x="933" y="83"/>
      <point x="886" y="83" type="curve" smooth="yes"/>
      <point x="859" y="83"/>
      <point x="846" y="106"/>
      <point x="846" y="144" type="curve" smooth="yes"/>
      <point x="846" y="200"/>
      <point x="869" y="269"/>
      <point x="916" y="269" type="curve" smooth="yes"/>
      <point x="943" y="269"/>
      <point x="956" y="246"/>
    </contour>
    <contour>
      <point x="62" y="485" type="curve" smooth="yes"/>
      <point x="62" y="396"/>
      <point x="115" y="341"/>
      <point x="195" y="341" type="curve" smooth="yes"/>
      <point x="315" y="341"/>
      <point x="378" y="452"/>
      <point x="378" y="563" type="curve" smooth="yes"/>
      <point x="378" y="652"/>
      <point x="325" y="707"/>
      <point x="245" y="707" type="curve" smooth="yes"/>
      <point x="125" y="707"/>
      <point x="62" y="596"/>
    </contour>
    <contour>
      <point x="412" y="137" type="curve" smooth="yes"/>
      <point x="412" y="48"/>
      <point x="465" y="-7"/>
      <point x="545" y="-7" type="curve" smooth="yes"/>
      <point x="665" y="-7"/>
      <point x="728" y="104"/>
      <point x="728" y="215" type="curve" smooth="yes"/>
      <point x="728" y="304"/>
      <point x="675" y="359"/>
      <point x="595" y="359" type="curve" smooth="yes"/>
      <point x="475" y="359"/>
      <point x="412" y="248"/>
    </contour>
    <contour>
      <point x="743" y="137" type="curve" smooth="yes"/>
      <point x="743" y="48"/>
      <point x="796" y="-7"/>
      <point x="876" y="-7" type="curve" smooth="yes"/>
      <point x="996" y="-7"/>
      <point x="1059" y="104"/>
      <point x="1059" y="215" type="curve" smooth="yes"/>
      <point x="1059" y="304"/>
      <point x="1006" y="359"/>
      <point x="926" y="359" type="curve" smooth="yes"/>
      <point x="806" y="359"/>
      <point x="743" y="248"/>
    </contour>
    <contour>
      <point x="643" y="700" type="line"/>
      <point x="24" y="0" type="line"/>
      <point x="147" y="0" type="line"/>
      <point x="766" y="700" type="line"/>
    </contour>
  </outline>
</glyph>
<glyph name="second" format="2">
  <advance width="422"/>
  <unicode hex="2033"/>
  <outline>
    <contour>
      <point x="138" y="700" type="line"/>
      <point x="22" y="363" type="line"/>
      <point x="130" y="363" type="line"/>
      <point x="298" y="700" type="line"/>
    </contour>
    <contour>
      <point x="341" y="700" type="line"/>
      <point x="225" y="363" type="line"/>
      <point x="333" y="363" type="line"/>
      <point x="501" y="700" type="line"/>
    </contour>
  </outline>
</glyph>
<glyph name="fraction" format="2">
  <advance width="126"/>
  <unicode hex="2044"/>
  <outline>
    <contour>
      <point x="-311" y="0" type="line"/>
      <point x="-183" y="0" type="line"/>
      <point x="437" y="700" type="line"/>
      <point x="309" y="700" type="line"/>
    </contour>
  </outline>
</glyph>
<glyph name="colonmonetary" format="2">
  <advance width="577"/>
  <unicode hex="20A1"/>
  <outline>
    <contour>
      <point x="586" y="480" type="line"/>
      <point x="586" y="615"/>
      <point x="516" y="712"/>
      <point x="378" y="712" type="curve" smooth="yes"/>
      <point x="151" y="712"/>
      <point x="41" y="478"/>
      <point x="41" y="257" type="curve" smooth="yes"/>
      <point x="41" y="91"/>
      <point x="126" y="-12"/>
      <point x="272" y="-12" type="curve" smooth="yes"/>
      <point x="401" y="-12"/>
      <point x="500" y="75"/>
      <point x="543" y="202" type="curve"/>
      <point x="427" y="232" type="line"/>
      <point x="395" y="140"/>
      <point x="350" y="101"/>
      <point x="289" y="101" type="curve" smooth="yes"/>
      <point x="223" y="101"/>
      <point x="173" y="148"/>
      <point x="173" y="262" type="curve" smooth="yes"/>
      <point x="173" y="416"/>
      <point x="231" y="597"/>
      <point x="366" y="597" type="curve" smooth="yes"/>
      <point x="426" y="597"/>
      <point x="472" y="562"/>
      <point x="471" y="462" type="curve"/>
    </contour>
    <contour>
      <point x="91" y="-112" type="line"/>
      <point x="170" y="-112" type="line"/>
      <point x="413" y="797" type="line"/>
      <point x="334" y="797" type="line"/>
    </contour>
    <contour>
      <point x="200" y="-112" type="line"/>
      <point x="279" y="-112" type="line"/>
      <point x="522" y="797" type="line"/>
      <point x="443" y="797" type="line"/>
    </contour>
  </outline>
</glyph>
<glyph name="newsheqel" format="2">
  <advance width="737"/>
  <unicode hex="20AA"/>
  <outline>
    <contour>
      <point x="400" y="700" type="line" smooth="yes"/>
      <point x="527" y="700"/>
      <point x="570" y="638"/>
      <point x="549" y="519" type="curve" smooth="yes"/>
      <point x="485" y="158" type="line"/>
      <point x="373" y="158" type="line"/>
      <point x="437" y="518" type="line" smooth="yes"/>
      <point x="445" y="564"/>
      <point x="429" y="591"/>
      <point x="381" y="591" type="curve" smooth="yes"/>
      <point x="255" y="591" type="line"/>
      <point x="151" y="0" type="line"/>
      <point x="37" y="0" type="line"/>
      <point x="161" y="700" type="line"/>
    </contour>
    <contour>
      <point x="383" y="0" type="line" smooth="yes"/>
      <point x="248" y="0"/>
      <point x="203" y="61"/>
      <point x="224" y="181" type="curve" smooth="yes"/>
      <point x="288" y="542" type="line"/>
      <point x="400" y="542" type="line"/>
      <point x="336" y="182" type="line" smooth="yes"/>
      <point x="327" y="130"/>
      <point x="346" y="109"/>
      <point x="394" y="109" type="curve" smooth="yes"/>
      <point x="518" y="109" type="line"/>
      <point x="622" y="700" type="line"/>
      <point x="736" y="700" type="line"/>
      <point x="612" y="0" type="line"/>
    </contour>
  </outline>
</glyph>
<glyph name="guarani" format="2">
  <advance width="598"/>
  <unicode hex="20B2"/>
  <outline>
    <contour>
      <point x="171" y="-111" type="line"/>
      <point x="265" y="-114" type="line"/>
      <point x="425" y="795" type="line"/>
      <point x="331" y="798" type="line"/>
    </contour>
    <contour>
      <point x="393" y="139" type="line"/>
      <point x="369" y="0" type="line"/>
      <point x="486" y="0" type="line"/>
      <point x="553" y="382" type="line"/>
      <point x="385" y="382" type="line"/>
      <point x="365" y="269" type="line"/>
      <point x="453" y="269" type="line"/>
      <point x="430" y="313" type="line"/>
      <point x="425" y="285" type="line" smooth="yes"/>
      <point x="403" y="163"/>
      <point x="340" y="104"/>
      <point x="273" y="104" type="curve" smooth="yes"/>
      <point x="214" y="104"/>
      <point x="173" y="147"/>
      <point x="173" y="252" type="curve" smooth="yes"/>
      <point x="173" y="404"/>
      <point x="225" y="593"/>
      <point x="350" y="593" type="curve" smooth="yes"/>
      <point x="415" y="593"/>
      <point x="439" y="547"/>
      <point x="439" y="467" type="curve"/>
      <point x="565" y="492" type="line"/>
      <point x="565" y="620"/>
      <point x="503" y="712"/>
      <point x="362" y="712" type="curve" smooth="yes"/>
      <point x="144" y="712"/>
      <point x="32" y="470"/>
      <point x="32" y="248" type="curve" smooth="yes"/>
      <point x="32" y="87"/>
      <point x="109" y="-12"/>
      <point x="232" y="-12" type="curve" smooth="yes"/>
      <point x="323" y="-12"/>
      <point x="384" y="47"/>
      <point x="423" y="138" type="curve"/>
    </contour>
  </outline>
</glyph>
<glyph name="turkishlira" format="2">
  <advance width="614"/>
  <unicode hex="20BA"/>
  <outline>
    <contour>
      <point x="28" y="266" type="line"/>
      <point x="447" y="468" type="line"/>
      <point x="465" y="572" type="line"/>
      <point x="47" y="370" type="line"/>
    </contour>
    <contour>
      <point x="0" y="109" type="line"/>
      <point x="419" y="311" type="line"/>
      <point x="438" y="416" type="line"/>
      <point x="19" y="214" type="line"/>
    </contour>
    <contour>
      <point x="171" y="700" type="line"/>
      <point x="47" y="0" type="line"/>
      <point x="184" y="0" type="line"/>
      <point x="308" y="700" type="line"/>
    </contour>
    <contour>
      <point x="105" y="0" type="line"/>
      <point x="294" y="0" type="line" smooth="yes"/>
      <point x="454" y="0"/>
      <point x="540" y="83"/>
      <point x="587" y="231" type="curve"/>
      <point x="468" y="263" type="line"/>
      <point x="431" y="163"/>
      <point x="383" y="115"/>
      <point x="281" y="115" type="curve" smooth="yes"/>
      <point x="125" y="115" type="line"/>
    </contour>
  </outline>
</glyph>
<glyph name="trademark" format="2">
  <advance width="852"/>
  <unicode hex="2122"/>
  <outline>
    <contour>
      <point x="205" y="677" type="line"/>
      <point x="306" y="677" type="line"/>
      <point x="248" y="347" type="line"/>
      <point x="147" y="347" type="line"/>
    </contour>
    <contour>
      <point x="81" y="610" type="line"/>
      <point x="97" y="700" type="line"/>
      <point x="423" y="700" type="line"/>
      <point x="407" y="610" type="line"/>
    </contour>
    <contour>
      <point x="530" y="676" type="line"/>
      <point x="570" y="347" type="line"/>
      <point x="627" y="347" type="line"/>
      <point x="785" y="675" type="line"/>
      <point x="758" y="675" type="line"/>
      <point x="700" y="347" type="line"/>
      <point x="795" y="347" type="line"/>
      <point x="857" y="700" type="line"/>
      <point x="711" y="700" type="line"/>
      <point x="600" y="472" type="line"/>
      <point x="640" y="472" type="line"/>
      <point x="610" y="700" type="line"/>
      <point x="467" y="700" type="line"/>
      <point x="405" y="347" type="line"/>
      <point x="500" y="347" type="line"/>
      <point x="558" y="676" type="line"/>
    </contour>
  </outline>
</glyph>
<glyph name="onetenth" format="2">
  <advance width="1025"/>
  <unicode hex="2152"/>
  <outline>
    <contour>
      <point x="483" y="0" type="line"/>
      <point x="593" y="0" type="line"/>
      <point x="663" y="392" type="line"/>
      <point x="562" y="392" type="line"/>
      <point x="550" y="324"/>
      <point x="527" y="303"/>
      <point x="441" y="303" type="curve"/>
      <point x="426" y="219" type="line"/>
      <point x="585" y="219" type="line"/>
      <point x="535" y="293" type="line"/>
    </contour>
    <contour>
      <point x="796" y="-7" type="curve" smooth="yes"/>
      <point x="924" y="-7"/>
      <point x="994" y="118"/>
      <point x="994" y="242" type="curve" smooth="yes"/>
      <point x="994" y="339"/>
      <point x="939" y="397"/>
      <point x="852" y="397" type="curve" smooth="yes"/>
      <point x="724" y="397"/>
      <point x="654" y="272"/>
      <point x="654" y="148" type="curve" smooth="yes"/>
      <point x="654" y="51"/>
      <point x="709" y="-7"/>
    </contour>
    <contour>
      <point x="116" y="308" type="line"/>
      <point x="226" y="308" type="line"/>
      <point x="296" y="700" type="line"/>
      <point x="195" y="700" type="line"/>
      <point x="183" y="632"/>
      <point x="160" y="611"/>
      <point x="74" y="611" type="curve"/>
      <point x="59" y="527" type="line"/>
      <point x="218" y="527" type="line"/>
      <point x="168" y="601" type="line"/>
    </contour>
    <contour>
      <point x="-6" y="0" type="line"/>
      <point x="122" y="0" type="line"/>
      <point x="742" y="700" type="line"/>
      <point x="614" y="700" type="line"/>
    </contour>
    <contour>
      <point x="805" y="85" type="curve" smooth="yes"/>
      <point x="779" y="85"/>
      <point x="765" y="106"/>
      <point x="765" y="152" type="curve" smooth="yes"/>
      <point x="765" y="217"/>
      <point x="789" y="305"/>
      <point x="843" y="305" type="curve" smooth="yes"/>
      <point x="869" y="305"/>
      <point x="883" y="284"/>
      <point x="883" y="238" type="curve" smooth="yes"/>
      <point x="883" y="173"/>
      <point x="859" y="85"/>
    </contour>
  </outline>
</glyph>
<glyph name="arrowup" format="2">
  <advance width="682"/>
  <unicode hex="2191"/>
  <outline>
    <contour>
      <point x="119" y="276" type="line"/>
      <point x="359" y="517" type="line"/>
      <point x="599" y="276" type="line"/>
      <point x="697" y="374" type="line"/>
      <point x="359" y="712" type="line"/>
      <point x="21" y="374" type="line"/>
    </contour>
    <contour>
      <point x="288" y="0" type="line"/>
      <point x="430" y="0" type="line"/>
      <point x="430" y="628" type="line"/>
      <point x="288" y="628" type="line"/>
    </contour>
  </outline>
</glyph>
<glyph name="minus" format="2">
  <advance width="576"/>
  <unicode hex="2212"/>
  <outline>
    <contour>
      <point x="537" y="280" type="line"/>
      <point x="559" y="400" type="line"/>
      <point x="71" y="400" type="line"/>
      <point x="49" y="280" type="line"/>
    </contour>
  </outline>
</glyph>
<glyph name="notequal" format="2">
  <advance width="576"/>
  <unicode hex="2260"/>
  <outline>
    <contour>
      <point x="36" y="70" type="line"/>
      <point x="165" y="70" type="line"/>
      <point x="572" y="610" type="line"/>
      <point x="443" y="610" type="line"/>
    </contour>
    <component base="equal"/>
  </outline>
</glyph>
<glyph name="lessequal" format="2">
  <advance width="576"/>
  <unicode hex="2264"/>
  <outline>
    <contour>
      <point x="486" y="0" type="line"/>
      <point x="507" y="120" type="line"/>
      <point x="19" y="120" type="line"/>
      <point x="-2" y="0" type="line"/>
    </contour>
    <contour>
      <point x="83" y="483" type="line"/>
      <point x="61" y="358" type="line"/>
      <point x="514" y="158" type="line"/>
      <point x="535" y="277" type="line"/>
      <point x="145" y="447" type="line"/>
      <point x="133" y="378" type="line"/>
      <point x="583" y="548" type="line"/>
      <point x="606" y="683" type="line"/>
    </contour>
  </outline>
</glyph>
<glyph name="circleblack" format="2">
  <advance width="828"/>
  <unicode hex="25CF"/>
  <outline>
    <contour>
      <point x="63" y="303" type="curve" smooth="yes"/>
      <point x="63" y="125"/>
      <point x="193" y="-12"/>
      <point x="380" y="-12" type="curve" smooth="yes"/>
      <point x="622.0" y="-12.0"/>
      <point x="793.0" y="174"/>
      <point x="793" y="399" type="curve" smooth="yes"/>
      <point x="793" y="577"/>
      <point x="663" y="712"/>
      <point x="476" y="712" type="curve" smooth="yes"/>
      <point x="234.0" y="712.0"/>
      <point x="63.0" y="528"/>
    </contour>
  </outline>
</glyph>
<glyph name="onesanscircled" format="2">
  <advance width="828"/>
  <unicode hex="2780"/>
  <outline>
    <contour>
      <point x="429" y="546" type="line"/>
      <point x="417" y="478"/>
      <point x="394" y="457"/>
      <point x="308" y="457" type="curve"/>
      <point x="293" y="373" type="line"/>
      <point x="389" y="373" type="line"/>
      <point x="350" y="154" type="line"/>
      <point x="460" y="154" type="line"/>
      <point x="530" y="546" type="line"/>
    </contour>
    <component base="circlewhite"/>
  </outline>
</glyph>
<glyph name="twosanscircled" format="2">
  <advance width="828"/>
  <unicode hex="2781"/>
  <outline>
    <contour>
      <point x="259" y="242" type="curve"/>
      <point x="244" y="154" type="line"/>
      <point x="547" y="154" type="line"/>
      <point x="563" y="245" type="line"/>
      <point x="420" y="245" type="line"/>
      <point x="523" y="306"/>
      <point x="595" y="358"/>
      <point x="595" y="438" type="curve" smooth="yes"/>
      <point x="595" y="496"/>
      <point x="556" y="552"/>
      <point x="453" y="552" type="curve" smooth="yes"/>
      <point x="341" y="552"/>
      <point x="290" y="482"/>
      <point x="290" y="419" type="curve" smooth="yes"/>
      <point x="290" y="405"/>
      <point x="292" y="393"/>
      <point x="297" y="380" type="curve"/>
      <point x="401" y="389" type="line"/>
      <point x="398" y="398"/>
      <point x="396" y="407"/>
      <point x="396" y="415" type="curve" smooth="yes"/>
      <point x="396" y="442"/>
      <point x="414" y="465"/>
      <point x="444" y="465" type="curve" smooth="yes"/>
      <point x="465" y="465"/>
      <point x="481" y="452"/>
      <point x="481" y="428" type="curve" smooth="yes"/>
      <point x="481" y="382"/>
      <point x="420" y="349"/>
    </contour>
    <component base="circlewhite"/>
  </outline>
</glyph>
<glyph name="fivesanscircled" format="2">
  <advance width="828"/>
  <unicode hex="2784"/>
  <outline>
    <contour>
      <point x="573" y="314" type="curve" smooth="yes"/>
      <point x="573" y="377"/>
      <point x="535" y="420"/>
      <point x="466" y="420" type="curve" smooth="yes"/>
      <point x="437" y="420"/>
      <point x="414" y="412"/>
      <point x="395" y="400" type="curve"/>
      <point x="409" y="454" type="line"/>
      <point x="587" y="454" type="line"/>
      <point x="603" y="546" type="line"/>
      <point x="333" y="546" type="line"/>
      <point x="277" y="327" type="line"/>
      <point x="380" y="316" type="line"/>
      <point x="389" y="328"/>
      <point x="403" y="339"/>
      <point x="423" y="339" type="curve" smooth="yes"/>
      <point x="448" y="339"/>
      <point x="460" y="321"/>
      <point x="460" y="297" type="curve" smooth="yes"/>
      <point x="460" y="266"/>
      <point x="441" y="233"/>
      <point x="406" y="233" type="curve" smooth="yes"/>
      <point x="380" y="233"/>
      <point x="365" y="252"/>
      <point x="370" y="280" type="curve"/>
      <point x="258" y="294" type="line"/>
      <point x="257" y="287"/>
      <point x="256" y="278"/>
      <point x="256" y="269" type="curve" smooth="yes"/>
      <point x="256" y="189"/>
      <point x="317" y="148"/>
      <point x="405" y="148" type="curve" smooth="yes"/>
      <point x="528" y="148"/>
      <point x="573" y="231"/>
    </contour>
    <component base="circlewhite"/>
  </outline>
</glyph>
<glyph name="sixsanscircled" format="2">
  <advance width="828"/>
  <unicode hex="2785"/>
  <outline>
    <contour>
      <point x="397" y="149" type="curve" smooth="yes"/>
      <point x="515" y="149"/>
      <point x="571" y="234"/>
      <point x="571" y="312" type="curve" smooth="yes"/>
      <point x="571" y="377"/>
      <point x="531" y="415"/>
      <point x="464" y="415" type="curve" smooth="yes"/>
      <point x="432" y="415"/>
      <point x="404" y="405"/>
      <point x="382" y="388" type="curve"/>
      <point x="398" y="442"/>
      <point x="428" y="465"/>
      <point x="454" y="465" type="curve" smooth="yes"/>
      <point x="472" y="465"/>
      <point x="482" y="454"/>
      <point x="479" y="436" type="curve"/>
      <point x="586" y="425" type="line"/>
      <point x="587" y="431"/>
      <point x="588" y="439"/>
      <point x="588" y="444" type="curve" smooth="yes"/>
      <point x="588" y="512"/>
      <point x="545" y="552"/>
      <point x="466" y="552" type="curve"/>
      <point x="361" y="552"/>
      <point x="284" y="472"/>
      <point x="262" y="346" type="curve" smooth="yes"/>
      <point x="258" y="325"/>
      <point x="256" y="305"/>
      <point x="256" y="287" type="curve" smooth="yes"/>
      <point x="256" y="201"/>
      <point x="304" y="149"/>
    </contour>
    <contour>
      <point x="366" y="274" type="curve" smooth="yes"/>
      <point x="366" y="303"/>
      <point x="384" y="340"/>
      <point x="421" y="340" type="curve" smooth="yes"/>
      <point x="444" y="340"/>
      <point x="458" y="325"/>
      <point x="458" y="298" type="curve" smooth="yes"/>
      <point x="458" y="269"/>
      <point x="441" y="230"/>
      <point x="404" y="230" type="curve" smooth="yes"/>
      <point x="380" y="230"/>
      <point x="366" y="247"/>
    </contour>
    <component base="circlewhite"/>
  </outline>
</glyph>
<glyph name="ninesanscircled" format="2">
  <advance width="828"/>
  <unicode hex="2788"/>
  <outline>
    <contour>
      <point x="456" y="551" type="curve" smooth="yes"/>
      <point x="335" y="551"/>
      <point x="284" y="467"/>
      <point x="284" y="391" type="curve" smooth="yes"/>
      <point x="284" y="323"/>
      <point x="328" y="288"/>
      <point x="392" y="288" type="curve" smooth="yes"/>
      <point x="426" y="288"/>
      <point x="453" y="297"/>
      <point x="474" y="315" type="curve"/>
      <point x="462" y="267"/>
      <point x="442" y="227"/>
      <point x="409" y="227" type="curve" smooth="yes"/>
      <point x="386" y="227"/>
      <point x="375" y="244"/>
      <point x="379" y="269" type="curve"/>
      <point x="267" y="285" type="line"/>
      <point x="266" y="277"/>
      <point x="266" y="274"/>
      <point x="266" y="267" type="curve" smooth="yes"/>
      <point x="266" y="190"/>
      <point x="319" y="147"/>
      <point x="401" y="147" type="curve" smooth="yes"/>
      <point x="513" y="147"/>
      <point x="568" y="220"/>
      <point x="591" y="352" type="curve" smooth="yes"/>
      <point x="596" y="378"/>
      <point x="598" y="399"/>
      <point x="598" y="418" type="curve" smooth="yes"/>
      <point x="598" y="489"/>
      <point x="561" y="551"/>
    </contour>
    <contour>
      <point x="397" y="405" type="curve" smooth="yes"/>
      <point x="397" y="439"/>
      <point x="418" y="470"/>
      <point x="450" y="470" type="curve" smooth="yes"/>
      <point x="474" y="470"/>
      <point x="489" y="453"/>
      <point x="489" y="425" type="curve" smooth="yes"/>
      <point x="489" y="391"/>
      <point x="467" y="362"/>
      <point x="435" y="362" type="curve" smooth="yes"/>
      <point x="411" y="362"/>
      <point x="397" y="377"/>
    </contour>
    <component base="circlewhite"/>
  </outline>
</glyph>
<glyph name="onesansnegativecircled" format="2">
  <advance width="828"/>
  <unicode hex="278A"/>
  <outline>
    <contour>
      <point x="429" y="546" type="curve"/>
      <point x="530" y="546" type="line"/>
      <point x="460" y="154" type="line"/>
      <point x="350" y="154" type="line"/>
      <point x="389" y="373" type="line"/>
      <point x="293" y="373" type="line"/>
      <point x="308" y="457" type="line"/>
      <point x="394" y="457"/>
      <point x="417" y="478"/>
    </contour>
    <component base="circleblack"/>
  </outline>
</glyph>
<glyph name="foursansnegativecircled" format="2">
  <advance width="828"/>
  <unicode hex="278D"/>
  <outline>
    <contour>
      <point x="570" y="546" type="line"/>
      <point x="530" y="322" type="line"/>
      <point x="592" y="322" type="line"/>
      <point x="577" y="235" type="line"/>
      <point x="514" y="235" type="line"/>
      <point x="500" y="154" type="line"/>
      <point x="391" y="154" type="line"/>
      <point x="405" y="235" type="line"/>
      <point x="226" y="235" type="line"/>
      <point x="242" y="326" type="line"/>
      <point x="441" y="546" type="line"/>
    </contour>
    <contour>
      <point x="348" y="322" type="line"/>
      <point x="421" y="322" type="line"/>
      <point x="439" y="423" type="line"/>
    </contour>
    <component base="circleblack"/>
  </outline>
</glyph>
<glyph name="fivesansnegativecircled" format="2">
  <advance width="828"/>
  <unicode hex="278E"/>
  <outline>
    <contour>
      <point x="573" y="314" type="curve" smooth="yes"/>
      <point x="573" y="231"/>
      <point x="528" y="148"/>
      <point x="405" y="148" type="curve" smooth="yes"/>
      <point x="317" y="148"/>
      <point x="256" y="189"/>
      <point x="256" y="269" type="curve" smooth="yes"/>
      <point x="256" y="278"/>
      <point x="257" y="287"/>
      <point x="258" y="294" type="curve"/>
      <point x="370" y="280" type="line"/>
      <point x="365" y="252"/>
      <point x="380" y="233"/>
      <point x="406" y="233" type="curve" smooth="yes"/>
      <point x="441" y="233"/>
      <point x="460" y="266"/>
      <point x="460" y="297" type="curve" smooth="yes"/>
      <point x="460" y="321"/>
      <point x="448" y="339"/>
      <point x="423" y="339" type="curve" smooth="yes"/>
      <point x="403" y="339"/>
      <point x="389" y="328"/>
      <point x="380" y="316" type="curve"/>
      <point x="277" y="327" type="line"/>
      <point x="333" y="546" type="line"/>
      <point x="603" y="546" type="line"/>
      <point x="587" y="454" type="line"/>
      <point x="409" y="454" type="line"/>
      <point x="395" y="400" type="line"/>
      <point x="414" y="412"/>
      <point x="437" y="420"/>
      <point x="466" y="420" type="curve" smooth="yes"/>
      <point x="535" y="420"/>
      <point x="573" y="377"/>
    </contour>
    <component base="circleblack"/>
  </outline>
</glyph>
<glyph name="eightsansnegativecircled" format="2">
  <advance width="828"/>
  <unicode hex="2791"/>
  <outline>
    <contour>
      <point x="576" y="279" type="curve" smooth="yes"/>
      <point x="576" y="218"/>
      <point x="522" y="148"/>
      <point x="403" y="148" type="curve" smooth="yes"/>
      <point x="304" y="148"/>
      <point x="250" y="192"/>
      <point x="250" y="257" type="curve" smooth="yes"/>
      <point x="250" y="315"/>
      <point x="291" y="352"/>
      <point x="341" y="366" type="curve"/>
      <point x="313" y="377"/>
      <point x="294" y="399"/>
      <point x="294" y="435" type="curve" smooth="yes"/>
      <point x="294" y="497"/>
      <point x="348" y="552"/>
      <point x="452" y="552" type="curve" smooth="yes"/>
      <point x="544" y="552"/>
      <point x="593" y="511"/>
      <point x="593" y="455" type="curve" smooth="yes"/>
      <point x="593" y="404"/>
      <point x="558" y="372"/>
      <point x="517" y="360" type="curve"/>
      <point x="551" y="347"/>
      <point x="576" y="320"/>
    </contour>
    <contour>
      <point x="399" y="434" type="curve" smooth="yes"/>
      <point x="399" y="415"/>
      <point x="414" y="400"/>
      <point x="439" y="400" type="curve" smooth="yes"/>
      <point x="469" y="400"/>
      <point x="486" y="421"/>
      <point x="486" y="441" type="curve" smooth="yes"/>
      <point x="486" y="460"/>
      <point x="471" y="474"/>
      <point x="446" y="474" type="curve" smooth="yes"/>
      <point x="416" y="474"/>
      <point x="399" y="454"/>
    </contour>
    <contour>
      <point x="468" y="282" type="curve" smooth="yes"/>
      <point x="468" y="307"/>
      <point x="448" y="324"/>
      <point x="418" y="324" type="curve" smooth="yes"/>
      <point x="380" y="324"/>
      <point x="360" y="295"/>
      <point x="360" y="269" type="curve" smooth="yes"/>
      <point x="360" y="244"/>
      <point x="380" y="226"/>
      <point x="410" y="226" type="curve" smooth="yes"/>
      <point x="448" y="226"/>
      <point x="468" y="256"/>
    </contour>
    <component base="circleblack"/>
  </outline>
</glyph>
<glyph name="tensansnegativecircled" format="2">
  <advance width="828"/>
  <unicode hex="2793"/>
  <outline>
    <contour>
      <point x="670" y="407" type="curve" smooth="yes"/>
      <point x="670" y="285"/>
      <point x="610" y="147"/>
      <point x="490" y="147" type="curve" smooth="yes"/>
      <point x="414" y="147"/>
      <point x="372" y="201"/>
      <point x="372" y="291" type="curve" smooth="yes"/>
      <point x="372" y="413"/>
      <point x="432" y="551"/>
      <point x="552" y="551" type="curve" smooth="yes"/>
      <point x="628" y="551"/>
      <point x="670" y="497"/>
    </contour>
    <contour>
      <point x="293" y="546" type="curve"/>
      <point x="390" y="546" type="line"/>
      <point x="320" y="154" type="line"/>
      <point x="214" y="154" type="line"/>
      <point x="257" y="395" type="line"/>
      <point x="198" y="395" type="line"/>
      <point x="213" y="479" type="line"/>
      <point x="268" y="479"/>
      <point x="284" y="499"/>
    </contour>
    <contour>
      <point x="502" y="237" type="curve" smooth="yes"/>
      <point x="544" y="237"/>
      <point x="566" y="347"/>
      <point x="566" y="413" type="curve" smooth="yes"/>
      <point x="566" y="445"/>
      <point x="558" y="461"/>
      <point x="540" y="461" type="curve" smooth="yes"/>
      <point x="498" y="461"/>
      <point x="476" y="351"/>
      <point x="476" y="285" type="curve" smooth="yes"/>
      <point x="476" y="253"/>
      <point x="484" y="237"/>
    </contour>
    <component base="circleblack"/>
  </outline>
</glyph>
<glyph name="acutecmb.uc" format="2">
  <advance width="600"/>
  <outline>
    <contour>
      <point x="397" y="892" type="line"/>
      <point x="546" y="892" type="line"/>
      <point x="413" y="760" type="line"/>
      <point x="295" y="760" type="line"/>
    </contour>
  </outline>
</glyph>
<glyph name="approxequal.tab" format="2">
  <advance width="600"/>
  <outline>
    <contour>
      <point x="19" y="143" type="curve"/>
      <point x="127" y="143" type="line"/>
      <point x="136" y="174"/>
      <point x="150" y="191"/>
      <point x="179" y="191" type="curve" smooth="yes"/>
      <point x="228" y="191"/>
      <point x="330" y="147"/>
      <point x="400" y="147" type="curve" smooth="yes"/>
      <point x="478" y="147"/>
      <point x="535" y="202"/>
      <point x="561" y="312" type="curve"/>
      <point x="453" y="312" type="line"/>
      <point x="445" y="282"/>
      <point x="431" y="264"/>
      <point x="402" y="264" type="curve" smooth="yes"/>
      <point x="353" y="264"/>
      <point x="250" y="308"/>
      <point x="180" y="308" type="curve" smooth="yes"/>
      <point x="102" y="308"/>
      <point x="46" y="253"/>
    </contour>
    <contour>
      <point x="601" y="536" type="curve"/>
      <point x="493" y="536" type="line"/>
      <point x="484" y="505"/>
      <point x="470" y="488"/>
      <point x="441" y="488" type="curve" smooth="yes"/>
      <point x="392" y="488"/>
      <point x="290" y="532"/>
      <point x="220" y="532" type="curve" smooth="yes"/>
      <point x="142" y="532"/>
      <point x="85" y="477"/>
      <point x="59" y="367" type="curve"/>
      <point x="167" y="367" type="line"/>
      <point x="175" y="397"/>
      <point x="189" y="415"/>
      <point x="218" y="415" type="curve" smooth="yes"/>
      <point x="267" y="415"/>
      <point x="369" y="371"/>
      <point x="439" y="371" type="curve" smooth="yes"/>
      <point x="517" y="371"/>
      <point x="574" y="426"/>
    </contour>
  </outline>
</glyph>
<glyph name="backslash.uc" format="2">
  <advance width="453"/>
  <outline>
    <contour>
      <point x="216" y="745" type="line"/>
      <point x="76" y="745" type="line"/>
      <point x="284" y="-83" type="line"/>
      <point x="424" y="-83" type="line"/>
    </contour>
  </outline>
</glyph>
<glyph name="bar.uc" format="2">
  <advance width="243"/>
  <outline>
    <contour>
      <point x="137" y="745" type="line"/>
      <point x="-9" y="-83" type="line"/>
      <point x="134" y="-83" type="line"/>
      <point x="280" y="745" type="line"/>
    </contour>
  </outline>
</glyph>
<glyph name="braceleft.uc" format="2">
  <advance width="370"/>
  <outline>
    <contour>
      <point x="236" y="185" type="line" smooth="yes"/>
      <point x="250" y="264"/>
      <point x="244" y="309"/>
      <point x="179" y="331" type="curve"/>
      <point x="252" y="349"/>
      <point x="272" y="394"/>
      <point x="286" y="473" type="curve" smooth="yes"/>
      <point x="301" y="559" type="line" smooth="yes"/>
      <point x="311" y="619"/>
      <point x="343" y="642"/>
      <point x="408" y="642" type="curve" smooth="yes"/>
      <point x="424" y="642" type="line"/>
      <point x="443" y="745" type="line"/>
      <point x="412" y="745" type="line" smooth="yes"/>
      <point x="259" y="745"/>
      <point x="179" y="689"/>
      <point x="158" y="572" type="curve" smooth="yes"/>
      <point x="141" y="478" type="line" smooth="yes"/>
      <point x="129" y="410"/>
      <point x="109" y="390"/>
      <point x="56" y="390" type="curve" smooth="yes"/>
      <point x="24" y="390" type="line"/>
      <point x="4" y="272" type="line"/>
      <point x="36" y="272" type="line" smooth="yes"/>
      <point x="89" y="272"/>
      <point x="102" y="248"/>
      <point x="91" y="190" type="curve" smooth="yes"/>
      <point x="75" y="106" type="line" smooth="yes"/>
      <point x="54" y="-5"/>
      <point x="74" y="-83"/>
      <point x="265" y="-83" type="curve" smooth="yes"/>
      <point x="296" y="-83" type="line"/>
      <point x="315" y="21" type="line"/>
      <point x="299" y="21" type="line" smooth="yes"/>
      <point x="234" y="21"/>
      <point x="212" y="55"/>
      <point x="222" y="108" type="curve" smooth="yes"/>
    </contour>
  </outline>
</glyph>
<glyph name="brokenbar.uc" format="2">
  <advance width="243"/>
  <outline>
    <contour>
      <point x="137" y="745" type="line"/>
      <point x="73" y="382" type="line"/>
      <point x="216" y="382" type="line"/>
      <point x="280" y="745" type="line"/>
    </contour>
    <contour>
      <point x="55" y="280" type="line"/>
      <point x="-9" y="-83" type="line"/>
      <point x="134" y="-83" type="line"/>
      <point x="198" y="280" type="line"/>
    </contour>
  </outline>
</glyph>
<glyph name="caroncmb.alt" format="2">
  <advance width="600"/>
  <outline>
    <contour>
      <point x="342.0" y="700.0" type="line"/>
      <point x="306.0" y="540.0" type="line"/>
      <point x="411.0" y="540.0" type="line"/>
      <point x="467.0" y="700.0" type="line"/>
    </contour>
  </outline>
</glyph>
<glyph name="caroncmb.uc" format="2">
  <advance width="600"/>
  <outline>
    <contour>
      <point x="460" y="760" type="line"/>
      <point x="604" y="892" type="line"/>
      <point x="477" y="892" type="line"/>
      <point x="341" y="807" type="line"/>
      <point x="449" y="807" type="line"/>
      <point x="343" y="892" type="line"/>
      <point x="224" y="892" type="line"/>
      <point x="320" y="760" type="line"/>
    </contour>
  </outline>
</glyph>
<glyph name="caroncmb.ucalt" format="2">
  <advance width="600"/>
  <outline>
    <contour>
      <point x="336.0" y="700.0" type="line"/>
      <point x="283.0" y="434.0" type="line"/>
      <point x="394.0" y="434.0" type="line"/>
      <point x="474.0" y="700.0" type="line"/>
    </contour>
  </outline>
</glyph>
<glyph name="colon.tab" format="2">
  <advance width="600"/>
  <outline>
    <contour>
      <point x="206" y="179" type="line"/>
      <point x="174" y="0" type="line"/>
      <point x="325" y="0" type="line"/>
      <point x="357" y="179" type="line"/>
    </contour>
    <contour>
      <point x="263" y="500" type="line"/>
      <point x="231" y="321" type="line"/>
      <point x="382" y="321" type="line"/>
      <point x="414" y="500" type="line"/>
    </contour>
  </outline>
</glyph>
<glyph name="divide.tab" format="2">
  <advance width="600"/>
  <outline>
    <contour>
      <point x="549" y="280" type="line"/>
      <point x="571" y="400" type="line"/>
      <point x="83" y="400" type="line"/>
      <point x="61" y="280" type="line"/>
    </contour>
    <contour>
      <point x="219" y="203" type="line"/>
      <point x="194" y="62" type="line"/>
      <point x="339" y="62" type="line"/>
      <point x="364" y="203" type="line"/>
    </contour>
    <contour>
      <point x="292" y="617" type="line"/>
      <point x="267" y="476" type="line"/>
      <point x="412" y="476" type="line"/>
      <point x="437" y="617" type="line"/>
    </contour>
  </outline>
</glyph>
<glyph name="dotaccentcmb.uc" format="2">
  <advance width="600"/>
  <outline>
    <contour>
      <point x="339" y="899" type="line"/>
      <point x="315" y="760" type="line"/>
      <point x="465" y="760" type="line"/>
      <point x="489" y="899" type="line"/>
    </contour>
  </outline>
</glyph>
<glyph name="dotbelowcmb.uc" format="2">
  <advance width="600"/>
  <outline>
    <contour>
      <point x="169.0" y="-64.0" type="line"/>
      <point x="145.0" y="-203.0" type="line"/>
      <point x="295.0" y="-203.0" type="line"/>
      <point x="319.0" y="-64.0" type="line"/>
    </contour>
  </outline>
</glyph>
<glyph name="eight.den" format="2">
  <advance width="360"/>
  <outline>
    <contour>
      <point x="187" y="320" type="curve" smooth="yes"/>
      <point x="212" y="320"/>
      <point x="227" y="306"/>
      <point x="227" y="287" type="curve" smooth="yes"/>
      <point x="227" y="267"/>
      <point x="210" y="246"/>
      <point x="180" y="246" type="curve" smooth="yes"/>
      <point x="155" y="246"/>
      <point x="140" y="261"/>
      <point x="140" y="280" type="curve" smooth="yes"/>
      <point x="140" y="300"/>
      <point x="157" y="320"/>
    </contour>
    <contour>
      <point x="193" y="398" type="curve" smooth="yes"/>
      <point x="89" y="398"/>
      <point x="35" y="343"/>
      <point x="35" y="281" type="curve" smooth="yes"/>
      <point x="35" y="238"/>
      <point x="63" y="215"/>
      <point x="100" y="206" type="curve"/>
      <point x="102" y="216" type="line"/>
      <point x="43" y="207"/>
      <point x="-9" y="168"/>
      <point x="-9" y="103" type="curve" smooth="yes"/>
      <point x="-9" y="38"/>
      <point x="45" y="-6"/>
      <point x="144" y="-6" type="curve" smooth="yes"/>
      <point x="263" y="-6"/>
      <point x="317" y="64"/>
      <point x="317" y="125" type="curve" smooth="yes"/>
      <point x="317" y="173"/>
      <point x="283" y="201"/>
      <point x="240" y="212" type="curve"/>
      <point x="238" y="202" type="line"/>
      <point x="288" y="209"/>
      <point x="334" y="242"/>
      <point x="334" y="301" type="curve" smooth="yes"/>
      <point x="334" y="357"/>
      <point x="285" y="398"/>
    </contour>
    <contour>
      <point x="159" y="170" type="curve" smooth="yes"/>
      <point x="189" y="170"/>
      <point x="209" y="153"/>
      <point x="209" y="128" type="curve" smooth="yes"/>
      <point x="209" y="102"/>
      <point x="189" y="72"/>
      <point x="151" y="72" type="curve" smooth="yes"/>
      <point x="121" y="72"/>
      <point x="101" y="90"/>
      <point x="101" y="115" type="curve" smooth="yes"/>
      <point x="101" y="141"/>
      <point x="121" y="170"/>
    </contour>
  </outline>
</glyph>
<glyph name="eight.num" format="2">
  <advance width="360"/>
  <outline>
    <contour>
      <point x="242" y="628" type="curve" smooth="yes"/>
      <point x="267" y="628"/>
      <point x="282" y="614"/>
      <point x="282" y="595" type="curve" smooth="yes"/>
      <point x="282" y="575"/>
      <point x="265" y="554"/>
      <point x="235" y="554" type="curve" smooth="yes"/>
      <point x="210" y="554"/>
      <point x="195" y="569"/>
      <point x="195" y="588" type="curve" smooth="yes"/>
      <point x="195" y="608"/>
      <point x="212" y="628"/>
    </contour>
    <contour>
      <point x="248" y="706" type="curve" smooth="yes"/>
      <point x="144" y="706"/>
      <point x="90" y="651"/>
      <point x="90" y="589" type="curve" smooth="yes"/>
      <point x="90" y="546"/>
      <point x="118" y="523"/>
      <point x="155" y="514" type="curve"/>
      <point x="157" y="524" type="line"/>
      <point x="98" y="515"/>
      <point x="46" y="476"/>
      <point x="46" y="411" type="curve" smooth="yes"/>
      <point x="46" y="346"/>
      <point x="100" y="302"/>
      <point x="199" y="302" type="curve" smooth="yes"/>
      <point x="318" y="302"/>
      <point x="372" y="372"/>
      <point x="372" y="433" type="curve" smooth="yes"/>
      <point x="372" y="481"/>
      <point x="338" y="509"/>
      <point x="295" y="520" type="curve"/>
      <point x="293" y="510" type="line"/>
      <point x="343" y="517"/>
      <point x="389" y="550"/>
      <point x="389" y="609" type="curve" smooth="yes"/>
      <point x="389" y="665"/>
      <point x="340" y="706"/>
    </contour>
    <contour>
      <point x="214" y="478" type="curve" smooth="yes"/>
      <point x="244" y="478"/>
      <point x="264" y="461"/>
      <point x="264" y="436" type="curve" smooth="yes"/>
      <point x="264" y="410"/>
      <point x="244" y="380"/>
      <point x="206" y="380" type="curve" smooth="yes"/>
      <point x="176" y="380"/>
      <point x="156" y="398"/>
      <point x="156" y="423" type="curve" smooth="yes"/>
      <point x="156" y="449"/>
      <point x="176" y="478"/>
    </contour>
  </outline>
</glyph>
<glyph name="eight.sub" format="2">
  <advance width="360"/>
  <outline>
    <contour>
      <point x="123" y="178" type="curve" smooth="yes"/>
      <point x="123" y="198"/>
      <point x="140" y="218"/>
      <point x="170" y="218" type="curve" smooth="yes"/>
      <point x="195" y="218"/>
      <point x="210" y="204"/>
      <point x="210" y="185" type="curve" smooth="yes"/>
      <point x="210" y="165"/>
      <point x="193" y="144"/>
      <point x="163" y="144" type="curve" smooth="yes"/>
      <point x="138" y="144"/>
      <point x="123" y="159"/>
    </contour>
    <contour>
      <point x="83" y="104" type="curve"/>
      <point x="85" y="114" type="line"/>
      <point x="26" y="105"/>
      <point x="-26" y="66"/>
      <point x="-26" y="1" type="curve" smooth="yes"/>
      <point x="-26" y="-64"/>
      <point x="28" y="-108"/>
      <point x="127" y="-108" type="curve" smooth="yes"/>
      <point x="246" y="-108"/>
      <point x="300" y="-38"/>
      <point x="300" y="23" type="curve" smooth="yes"/>
      <point x="300" y="71"/>
      <point x="266" y="99"/>
      <point x="223" y="110" type="curve"/>
      <point x="221" y="100" type="line"/>
      <point x="271" y="107"/>
      <point x="317" y="140"/>
      <point x="317" y="199" type="curve" smooth="yes"/>
      <point x="317" y="255"/>
      <point x="268" y="296"/>
      <point x="176" y="296" type="curve" smooth="yes"/>
      <point x="72" y="296"/>
      <point x="18" y="241"/>
      <point x="18" y="179" type="curve" smooth="yes"/>
      <point x="18" y="136"/>
      <point x="46" y="113"/>
    </contour>
    <contour>
      <point x="134" y="-30" type="curve" smooth="yes"/>
      <point x="104" y="-30"/>
      <point x="84" y="-12"/>
      <point x="84" y="13" type="curve" smooth="yes"/>
      <point x="84" y="39"/>
      <point x="104" y="68"/>
      <point x="142" y="68" type="curve" smooth="yes"/>
      <point x="172" y="68"/>
      <point x="192" y="51"/>
      <point x="192" y="26" type="curve" smooth="yes"/>
      <point x="192" y="0"/>
      <point x="172" y="-30"/>
    </contour>
  </outline>
</glyph>
<glyph name="eight.sup" format="2">
  <advance width="360"/>
  <outline>
    <contour>
      <point x="260" y="728" type="curve" smooth="yes"/>
      <point x="285" y="728"/>
      <point x="300" y="714"/>
      <point x="300" y="695" type="curve" smooth="yes"/>
      <point x="300" y="675"/>
      <point x="283" y="654"/>
      <point x="253" y="654" type="curve" smooth="yes"/>
      <point x="228" y="654"/>
      <point x="213" y="669"/>
      <point x="213" y="688" type="curve" smooth="yes"/>
      <point x="213" y="708"/>
      <point x="230" y="728"/>
    </contour>
    <contour>
      <point x="266" y="806" type="curve" smooth="yes"/>
      <point x="162" y="806"/>
      <point x="108" y="751"/>
      <point x="108" y="689" type="curve" smooth="yes"/>
      <point x="108" y="646"/>
      <point x="136" y="623"/>
      <point x="173" y="614" type="curve"/>
      <point x="175" y="624" type="line"/>
      <point x="116" y="615"/>
      <point x="64" y="576"/>
      <point x="64" y="511" type="curve" smooth="yes"/>
      <point x="64" y="446"/>
      <point x="118" y="402"/>
      <point x="217" y="402" type="curve" smooth="yes"/>
      <point x="336" y="402"/>
      <point x="390" y="472"/>
      <point x="390" y="533" type="curve" smooth="yes"/>
      <point x="390" y="581"/>
      <point x="356" y="609"/>
      <point x="313" y="620" type="curve"/>
      <point x="311" y="610" type="line"/>
      <point x="361" y="617"/>
      <point x="407" y="650"/>
      <point x="407" y="709" type="curve" smooth="yes"/>
      <point x="407" y="765"/>
      <point x="358" y="806"/>
    </contour>
    <contour>
      <point x="232" y="578" type="curve" smooth="yes"/>
      <point x="262" y="578"/>
      <point x="282" y="561"/>
      <point x="282" y="536" type="curve" smooth="yes"/>
      <point x="282" y="510"/>
      <point x="262" y="480"/>
      <point x="224" y="480" type="curve" smooth="yes"/>
      <point x="194" y="480"/>
      <point x="174" y="498"/>
      <point x="174" y="523" type="curve" smooth="yes"/>
      <point x="174" y="549"/>
      <point x="194" y="578"/>
    </contour>
  </outline>
</glyph>
<glyph name="emdash.uc" format="2">
  <advance width="966"/>
  <outline>
    <contour>
      <point x="68" y="276" type="line"/>
      <point x="906" y="276" type="line"/>
      <point x="928" y="396" type="line"/>
      <point x="90" y="396" type="line"/>
    </contour>
  </outline>
</glyph>
<glyph name="endash.uc" format="2">
  <advance width="684"/>
  <outline>
    <contour>
      <point x="54" y="276" type="line"/>
      <point x="636" y="276" type="line"/>
      <point x="658" y="396" type="line"/>
      <point x="76" y="396" type="line"/>
    </contour>
  </outline>
</glyph>
<glyph name="five.den" format="2">
  <advance width="346"/>
  <outline>
    <contour>
      <point x="166" y="370" type="line"/>
      <point x="102" y="300" type="line"/>
      <point x="326" y="300" type="line"/>
      <point x="342" y="392" type="line"/>
      <point x="72" y="392" type="line"/>
      <point x="16" y="173" type="line"/>
      <point x="119" y="162" type="line"/>
      <point x="128" y="174"/>
      <point x="142" y="185"/>
      <point x="162" y="185" type="curve" smooth="yes"/>
      <point x="187" y="185"/>
      <point x="199" y="167"/>
      <point x="199" y="143" type="curve" smooth="yes"/>
      <point x="199" y="112"/>
      <point x="180" y="79"/>
      <point x="145" y="79" type="curve" smooth="yes"/>
      <point x="119" y="79"/>
      <point x="104" y="98"/>
      <point x="109" y="126" type="curve"/>
      <point x="-3" y="140" type="line"/>
      <point x="-4" y="133"/>
      <point x="-5" y="124"/>
      <point x="-5" y="115" type="curve" smooth="yes"/>
      <point x="-5" y="35"/>
      <point x="56" y="-6"/>
      <point x="144" y="-6" type="curve" smooth="yes"/>
      <point x="267" y="-6"/>
      <point x="312" y="77"/>
      <point x="312" y="160" type="curve" smooth="yes"/>
      <point x="312" y="223"/>
      <point x="274" y="266"/>
      <point x="205" y="266" type="curve" smooth="yes"/>
      <point x="146" y="266"/>
      <point x="110" y="234"/>
      <point x="92" y="200" type="curve"/>
      <point x="122" y="199" type="line"/>
    </contour>
  </outline>
</glyph>
<glyph name="five.num" format="2">
  <advance width="346"/>
  <outline>
    <contour>
      <point x="221" y="678" type="line"/>
      <point x="157" y="608" type="line"/>
      <point x="381" y="608" type="line"/>
      <point x="397" y="700" type="line"/>
      <point x="127" y="700" type="line"/>
      <point x="71" y="481" type="line"/>
      <point x="174" y="470" type="line"/>
      <point x="183" y="482"/>
      <point x="197" y="493"/>
      <point x="217" y="493" type="curve" smooth="yes"/>
      <point x="242" y="493"/>
      <point x="254" y="475"/>
      <point x="254" y="451" type="curve" smooth="yes"/>
      <point x="254" y="420"/>
      <point x="235" y="387"/>
      <point x="200" y="387" type="curve" smooth="yes"/>
      <point x="174" y="387"/>
      <point x="159" y="406"/>
      <point x="164" y="434" type="curve"/>
      <point x="52" y="448" type="line"/>
      <point x="51" y="441"/>
      <point x="50" y="432"/>
      <point x="50" y="423" type="curve" smooth="yes"/>
      <point x="50" y="343"/>
      <point x="111" y="302"/>
      <point x="199" y="302" type="curve" smooth="yes"/>
      <point x="322" y="302"/>
      <point x="367" y="385"/>
      <point x="367" y="468" type="curve" smooth="yes"/>
      <point x="367" y="531"/>
      <point x="329" y="574"/>
      <point x="260" y="574" type="curve" smooth="yes"/>
      <point x="201" y="574"/>
      <point x="165" y="542"/>
      <point x="147" y="508" type="curve"/>
      <point x="177" y="507" type="line"/>
    </contour>
  </outline>
</glyph>
<glyph name="five.sub" format="2">
  <advance width="346"/>
  <outline>
    <contour>
      <point x="149" y="268" type="line"/>
      <point x="85" y="198" type="line"/>
      <point x="309" y="198" type="line"/>
      <point x="325" y="290" type="line"/>
      <point x="55" y="290" type="line"/>
      <point x="-1" y="71" type="line"/>
      <point x="102" y="60" type="line"/>
      <point x="111" y="72"/>
      <point x="125" y="83"/>
      <point x="145" y="83" type="curve" smooth="yes"/>
      <point x="170" y="83"/>
      <point x="182" y="65"/>
      <point x="182" y="41" type="curve" smooth="yes"/>
      <point x="182" y="10"/>
      <point x="163" y="-23"/>
      <point x="128" y="-23" type="curve" smooth="yes"/>
      <point x="102" y="-23"/>
      <point x="87" y="-4"/>
      <point x="92" y="24" type="curve"/>
      <point x="-20" y="38" type="line"/>
      <point x="-21" y="31"/>
      <point x="-22" y="22"/>
      <point x="-22" y="13" type="curve" smooth="yes"/>
      <point x="-22" y="-67"/>
      <point x="39" y="-108"/>
      <point x="127" y="-108" type="curve" smooth="yes"/>
      <point x="250" y="-108"/>
      <point x="295" y="-25"/>
      <point x="295" y="58" type="curve" smooth="yes"/>
      <point x="295" y="121"/>
      <point x="257" y="164"/>
      <point x="188" y="164" type="curve" smooth="yes"/>
      <point x="129" y="164"/>
      <point x="93" y="132"/>
      <point x="75" y="98" type="curve"/>
      <point x="105" y="97" type="line"/>
    </contour>
  </outline>
</glyph>
<glyph name="five.sup" format="2">
  <advance width="347"/>
  <outline>
    <contour>
      <point x="239" y="778" type="line"/>
      <point x="175" y="708" type="line"/>
      <point x="399" y="708" type="line"/>
      <point x="415" y="800" type="line"/>
      <point x="145" y="800" type="line"/>
      <point x="89" y="581" type="line"/>
      <point x="192" y="570" type="line"/>
      <point x="201" y="582"/>
      <point x="215" y="593"/>
      <point x="235" y="593" type="curve" smooth="yes"/>
      <point x="260" y="593"/>
      <point x="272" y="575"/>
      <point x="272" y="551" type="curve" smooth="yes"/>
      <point x="272" y="520"/>
      <point x="253" y="487"/>
      <point x="218" y="487" type="curve" smooth="yes"/>
      <point x="192" y="487"/>
      <point x="177" y="506"/>
      <point x="182" y="534" type="curve"/>
      <point x="70" y="548" type="line"/>
      <point x="69" y="541"/>
      <point x="68" y="532"/>
      <point x="68" y="523" type="curve" smooth="yes"/>
      <point x="68" y="443"/>
      <point x="129" y="402"/>
      <point x="217" y="402" type="curve" smooth="yes"/>
      <point x="340" y="402"/>
      <point x="385" y="485"/>
      <point x="385" y="568" type="curve" smooth="yes"/>
      <point x="385" y="631"/>
      <point x="347" y="674"/>
      <point x="278" y="674" type="curve" smooth="yes"/>
      <point x="219" y="674"/>
      <point x="183" y="642"/>
      <point x="165" y="608" type="curve"/>
      <point x="195" y="607" type="line"/>
    </contour>
  </outline>
</glyph>
<glyph name="four.den" format="2">
  <advance width="387"/>
  <outline>
    <contour>
      <point x="216" y="370" type="line"/>
      <point x="150" y="0" type="line"/>
      <point x="259" y="0" type="line"/>
      <point x="329" y="392" type="line"/>
      <point x="200" y="392" type="line"/>
      <point x="1" y="172" type="line"/>
      <point x="-15" y="81" type="line"/>
      <point x="336" y="81" type="line"/>
      <point x="351" y="168" type="line"/>
      <point x="48" y="168" type="line"/>
      <point x="79" y="137" type="line"/>
      <point x="289" y="370" type="line"/>
    </contour>
  </outline>
</glyph>
<glyph name="four.num" format="2">
  <advance width="387"/>
  <outline>
    <contour>
      <point x="205" y="308" type="line"/>
      <point x="314" y="308" type="line"/>
      <point x="384" y="700" type="line"/>
      <point x="255" y="700" type="line"/>
      <point x="56" y="480" type="line"/>
      <point x="40" y="389" type="line"/>
      <point x="391" y="389" type="line"/>
      <point x="406" y="476" type="line"/>
      <point x="103" y="476" type="line"/>
      <point x="134" y="445" type="line"/>
      <point x="344" y="678" type="line"/>
      <point x="271" y="678" type="line"/>
    </contour>
  </outline>
</glyph>
<glyph name="four.sub" format="2">
  <advance width="387"/>
  <outline>
    <contour>
      <point x="133" y="-102" type="line"/>
      <point x="242" y="-102" type="line"/>
      <point x="312" y="290" type="line"/>
      <point x="183" y="290" type="line"/>
      <point x="-16" y="70" type="line"/>
      <point x="-32" y="-21" type="line"/>
      <point x="319" y="-21" type="line"/>
      <point x="334" y="66" type="line"/>
      <point x="31" y="66" type="line"/>
      <point x="62" y="35" type="line"/>
      <point x="272" y="268" type="line"/>
      <point x="199" y="268" type="line"/>
    </contour>
  </outline>
</glyph>
<glyph name="four.sup" format="2">
  <advance width="387"/>
  <outline>
    <contour>
      <point x="223" y="408" type="line"/>
      <point x="332" y="408" type="line"/>
      <point x="402" y="800" type="line"/>
      <point x="273" y="800" type="line"/>
      <point x="74" y="580" type="line"/>
      <point x="58" y="489" type="line"/>
      <point x="409" y="489" type="line"/>
      <point x="424" y="576" type="line"/>
      <point x="121" y="576" type="line"/>
      <point x="152" y="545" type="line"/>
      <point x="362" y="778" type="line"/>
      <point x="289" y="778" type="line"/>
    </contour>
  </outline>
</glyph>
<glyph name="gravecmb.uc" format="2">
  <advance width="600"/>
  <outline>
    <contour>
      <point x="424" y="892" type="line"/>
      <point x="478" y="760" type="line"/>
      <point x="374" y="760" type="line"/>
      <point x="289" y="892" type="line"/>
    </contour>
  </outline>
</glyph>
<glyph name="horncmb.uc" format="2">
  <advance width="600"/>
  <outline>
    <contour>
      <point x="386.0" y="791.0" type="line"/>
      <point x="385.0" y="782.0"/>
      <point x="385.0" y="779.0"/>
      <point x="384.0" y="774.0" type="curve" smooth="yes"/>
      <point x="375.0" y="722.0"/>
      <point x="363" y="700"/>
      <point x="317.0" y="700.0" type="curve" smooth="yes"/>
      <point x="230" y="700" type="line"/>
      <point x="194" y="601" type="line"/>
      <point x="302.0" y="601.0" type="line" smooth="yes"/>
      <point x="446" y="601"/>
      <point x="480.0" y="670.0"/>
      <point x="495.0" y="773.0" type="curve" smooth="yes"/>
      <point x="496.0" y="780.0"/>
      <point x="497.0" y="787.0"/>
      <point x="497.0" y="791.0" type="curve"/>
    </contour>
  </outline>
</glyph>
<glyph name="hyphen.uc" format="2">
  <advance width="424"/>
  <outline>
    <contour>
      <point x="48" y="265" type="line"/>
      <point x="372" y="265" type="line"/>
      <point x="398" y="407" type="line"/>
      <point x="74" y="407" type="line"/>
    </contour>
  </outline>
</glyph>
<glyph name="macronbelowcmb.uc" format="2">
  <advance width="600"/>
  <outline>
    <contour>
      <point x="67.0" y="-177.0" type="line"/>
      <point x="381.0" y="-177.0" type="line"/>
      <point x="399.0" y="-77.0" type="line"/>
      <point x="85.0" y="-77.0" type="line"/>
    </contour>
  </outline>
</glyph>
<glyph name="minus.sub" format="2">
  <advance width="390"/>
  <outline>
    <contour>
      <point x="4" y="45.0" type="line"/>
      <point x="304" y="45.0" type="line"/>
      <point x="321" y="142.0" type="line"/>
      <point x="21" y="142.0" type="line"/>
    </contour>
  </outline>
</glyph>
<glyph name="minus.sup" format="2">
  <advance width="390"/>
  <outline>
    <contour>
      <point x="102.0" y="555.0" type="line"/>
      <point x="402.0" y="555.0" type="line"/>
      <point x="419.0" y="652.0" type="line"/>
      <point x="119.0" y="652.0" type="line"/>
    </contour>
  </outline>
</glyph>
<glyph name="minus.tab" format="2">
  <advance width="600"/>
  <outline>
    <contour>
      <point x="549" y="280" type="line"/>
      <point x="571" y="400" type="line"/>
      <point x="83" y="400" type="line"/>
      <point x="61" y="280" type="line"/>
    </contour>
  </outline>
</glyph>
<glyph name="naira.tab" format="2">
  <advance width="600"/>
  <outline>
    <contour>
      <point x="37" y="392.0" type="line"/>
      <point x="154" y="392.0" type="line"/>
      <point x="172" y="492.0" type="line"/>
      <point x="55" y="492.0" type="line"/>
    </contour>
    <contour>
      <point x="467" y="229.0" type="line"/>
      <point x="583" y="229.0" type="line"/>
      <point x="600" y="329.0" type="line"/>
      <point x="484" y="329.0" type="line"/>
    </contour>
    <contour>
      <point x="314" y="392.0" type="line"/>
      <point x="611" y="392.0" type="line"/>
      <point x="629" y="492.0" type="line"/>
      <point x="298" y="492.0" type="line"/>
    </contour>
    <contour>
      <point x="9" y="229.0" type="line"/>
      <point x="350" y="229.0" type="line"/>
      <point x="340" y="329.0" type="line"/>
      <point x="26" y="329.0" type="line"/>
    </contour>
    <contour>
      <point x="439" y="117.0" type="line"/>
      <point x="319" y="700.0" type="line"/>
      <point x="162" y="700.0" type="line"/>
      <point x="38" y="0.0" type="line"/>
      <point x="157" y="0.0" type="line"/>
      <point x="260" y="581.0" type="line"/>
      <point x="228" y="581.0" type="line"/>
      <point x="346" y="0.0" type="line"/>
      <point x="472" y="0.0" type="line"/>
      <point x="596" y="700.0" type="line"/>
      <point x="477" y="700.0" type="line"/>
      <point x="374" y="117.0" type="line"/>
    </contour>
  </outline>
</glyph>
<glyph name="nine.den" format="2">
  <advance width="365"/>
  <outline>
    <contour>
      <point x="192" y="398" type="curve" smooth="yes"/>
      <point x="71" y="398"/>
      <point x="20" y="314"/>
      <point x="20" y="238" type="curve" smooth="yes"/>
      <point x="20" y="170"/>
      <point x="64" y="135"/>
      <point x="128" y="135" type="curve" smooth="yes"/>
      <point x="188" y="135"/>
      <point x="228" y="165"/>
      <point x="246" y="219" type="curve"/>
      <point x="221" y="220" type="line"/>
      <point x="214" y="184" type="line" smooth="yes"/>
      <point x="204" y="127"/>
      <point x="183" y="74"/>
      <point x="145" y="74" type="curve" smooth="yes"/>
      <point x="122" y="74"/>
      <point x="111" y="91"/>
      <point x="115" y="116" type="curve"/>
      <point x="3" y="132" type="line"/>
      <point x="2" y="124"/>
      <point x="2" y="121"/>
      <point x="2" y="114" type="curve" smooth="yes"/>
      <point x="2" y="37"/>
      <point x="55" y="-6"/>
      <point x="137" y="-6" type="curve" smooth="yes"/>
      <point x="249" y="-6"/>
      <point x="304" y="67"/>
      <point x="327" y="199" type="curve" smooth="yes"/>
      <point x="332" y="225"/>
      <point x="334" y="246"/>
      <point x="334" y="265" type="curve" smooth="yes"/>
      <point x="334" y="336"/>
      <point x="297" y="398"/>
    </contour>
    <contour>
      <point x="186" y="317" type="curve" smooth="yes"/>
      <point x="210" y="317"/>
      <point x="225" y="300"/>
      <point x="225" y="272" type="curve" smooth="yes"/>
      <point x="225" y="238"/>
      <point x="203" y="209"/>
      <point x="171" y="209" type="curve" smooth="yes"/>
      <point x="147" y="209"/>
      <point x="133" y="224"/>
      <point x="133" y="252" type="curve" smooth="yes"/>
      <point x="133" y="286"/>
      <point x="154" y="317"/>
    </contour>
  </outline>
</glyph>
<glyph name="nine.num" format="2">
  <advance width="365"/>
  <outline>
    <contour>
      <point x="247" y="706" type="curve" smooth="yes"/>
      <point x="126" y="706"/>
      <point x="75" y="622"/>
      <point x="75" y="546" type="curve" smooth="yes"/>
      <point x="75" y="478"/>
      <point x="119" y="443"/>
      <point x="183" y="443" type="curve" smooth="yes"/>
      <point x="243" y="443"/>
      <point x="283" y="473"/>
      <point x="301" y="527" type="curve"/>
      <point x="276" y="528" type="line"/>
      <point x="269" y="492" type="line" smooth="yes"/>
      <point x="259" y="435"/>
      <point x="238" y="382"/>
      <point x="200" y="382" type="curve" smooth="yes"/>
      <point x="177" y="382"/>
      <point x="166" y="399"/>
      <point x="170" y="424" type="curve"/>
      <point x="58" y="440" type="line"/>
      <point x="57" y="432"/>
      <point x="57" y="429"/>
      <point x="57" y="422" type="curve" smooth="yes"/>
      <point x="57" y="345"/>
      <point x="110" y="302"/>
      <point x="192" y="302" type="curve" smooth="yes"/>
      <point x="304" y="302"/>
      <point x="359" y="375"/>
      <point x="382" y="507" type="curve" smooth="yes"/>
      <point x="387" y="533"/>
      <point x="389" y="554"/>
      <point x="389" y="573" type="curve" smooth="yes"/>
      <point x="389" y="644"/>
      <point x="352" y="706"/>
    </contour>
    <contour>
      <point x="241" y="625" type="curve" smooth="yes"/>
      <point x="265" y="625"/>
      <point x="280" y="608"/>
      <point x="280" y="580" type="curve" smooth="yes"/>
      <point x="280" y="546"/>
      <point x="258" y="517"/>
      <point x="226" y="517" type="curve" smooth="yes"/>
      <point x="202" y="517"/>
      <point x="188" y="532"/>
      <point x="188" y="560" type="curve" smooth="yes"/>
      <point x="188" y="594"/>
      <point x="209" y="625"/>
    </contour>
  </outline>
</glyph>
<glyph name="nine.sub" format="2">
  <advance width="365"/>
  <outline>
    <contour>
      <point x="175" y="296" type="curve" smooth="yes"/>
      <point x="54" y="296"/>
      <point x="3" y="212"/>
      <point x="3" y="136" type="curve" smooth="yes"/>
      <point x="3" y="68"/>
      <point x="47" y="33"/>
      <point x="111" y="33" type="curve" smooth="yes"/>
      <point x="171" y="33"/>
      <point x="211" y="63"/>
      <point x="229" y="117" type="curve"/>
      <point x="204" y="118" type="line"/>
      <point x="197" y="82" type="line" smooth="yes"/>
      <point x="187" y="25"/>
      <point x="166" y="-28"/>
      <point x="128" y="-28" type="curve" smooth="yes"/>
      <point x="105" y="-28"/>
      <point x="94" y="-11"/>
      <point x="98" y="14" type="curve"/>
      <point x="-14" y="30" type="line"/>
      <point x="-15" y="22"/>
      <point x="-15" y="19"/>
      <point x="-15" y="12" type="curve" smooth="yes"/>
      <point x="-15" y="-65"/>
      <point x="38" y="-108"/>
      <point x="120" y="-108" type="curve" smooth="yes"/>
      <point x="232" y="-108"/>
      <point x="287" y="-35"/>
      <point x="310" y="97" type="curve" smooth="yes"/>
      <point x="315" y="123"/>
      <point x="317" y="144"/>
      <point x="317" y="163" type="curve" smooth="yes"/>
      <point x="317" y="234"/>
      <point x="280" y="296"/>
    </contour>
    <contour>
      <point x="169" y="215" type="curve" smooth="yes"/>
      <point x="193" y="215"/>
      <point x="208" y="198"/>
      <point x="208" y="170" type="curve" smooth="yes"/>
      <point x="208" y="136"/>
      <point x="186" y="107"/>
      <point x="154" y="107" type="curve" smooth="yes"/>
      <point x="130" y="107"/>
      <point x="116" y="122"/>
      <point x="116" y="150" type="curve" smooth="yes"/>
      <point x="116" y="184"/>
      <point x="137" y="215"/>
    </contour>
  </outline>
</glyph>
<glyph name="nine.sup" format="2">
  <advance width="365"/>
  <outline>
    <contour>
      <point x="265" y="806" type="curve" smooth="yes"/>
      <point x="144" y="806"/>
      <point x="93" y="722"/>
      <point x="93" y="646" type="curve" smooth="yes"/>
      <point x="93" y="578"/>
      <point x="137" y="543"/>
      <point x="201" y="543" type="curve" smooth="yes"/>
      <point x="261" y="543"/>
      <point x="301" y="573"/>
      <point x="319" y="627" type="curve"/>
      <point x="294" y="628" type="line"/>
      <point x="287" y="592" type="line" smooth="yes"/>
      <point x="277" y="535"/>
      <point x="256" y="482"/>
      <point x="218" y="482" type="curve" smooth="yes"/>
      <point x="195" y="482"/>
      <point x="184" y="499"/>
      <point x="188" y="524" type="curve"/>
      <point x="76" y="540" type="line"/>
      <point x="75" y="532"/>
      <point x="75" y="529"/>
      <point x="75" y="522" type="curve" smooth="yes"/>
      <point x="75" y="445"/>
      <point x="128" y="402"/>
      <point x="210" y="402" type="curve" smooth="yes"/>
      <point x="322" y="402"/>
      <point x="377" y="475"/>
      <point x="400" y="607" type="curve" smooth="yes"/>
      <point x="405" y="633"/>
      <point x="407" y="654"/>
      <point x="407" y="673" type="curve" smooth="yes"/>
      <point x="407" y="744"/>
      <point x="370" y="806"/>
    </contour>
    <contour>
      <point x="259" y="725" type="curve" smooth="yes"/>
      <point x="283" y="725"/>
      <point x="298" y="708"/>
      <point x="298" y="680" type="curve" smooth="yes"/>
      <point x="298" y="646"/>
      <point x="276" y="617"/>
      <point x="244" y="617" type="curve" smooth="yes"/>
      <point x="220" y="617"/>
      <point x="206" y="632"/>
      <point x="206" y="660" type="curve" smooth="yes"/>
      <point x="206" y="694"/>
      <point x="227" y="725"/>
    </contour>
  </outline>
</glyph>
<glyph name="one.den" format="2">
  <advance width="285"/>
  <outline>
    <contour>
      <point x="140" y="392" type="line"/>
      <point x="128" y="324"/>
      <point x="105" y="303"/>
      <point x="19" y="303" type="curve"/>
      <point x="4" y="219" type="line"/>
      <point x="163" y="219" type="line"/>
      <point x="113" y="293" type="line"/>
      <point x="61" y="0" type="line"/>
      <point x="171" y="0" type="line"/>
      <point x="241" y="392" type="line"/>
    </contour>
  </outline>
</glyph>
<glyph name="one.sub" format="2">
  <advance width="280"/>
  <outline>
    <contour>
      <point x="122" y="290" type="line"/>
      <point x="110" y="222"/>
      <point x="87" y="201"/>
      <point x="1" y="201" type="curve"/>
      <point x="-14" y="117" type="line"/>
      <point x="145" y="117" type="line"/>
      <point x="95" y="191" type="line"/>
      <point x="43" y="-102" type="line"/>
      <point x="153" y="-102" type="line"/>
      <point x="223" y="290" type="line"/>
    </contour>
  </outline>
</glyph>
<glyph name="one.sup" format="2">
  <advance width="281"/>
  <outline>
    <contour>
      <point x="213" y="800" type="line"/>
      <point x="201" y="732"/>
      <point x="178" y="711"/>
      <point x="92" y="711" type="curve"/>
      <point x="77" y="627" type="line"/>
      <point x="236" y="627" type="line"/>
      <point x="186" y="701" type="line"/>
      <point x="134" y="408" type="line"/>
      <point x="244" y="408" type="line"/>
      <point x="314" y="800" type="line"/>
    </contour>
  </outline>
</glyph>
<glyph name="period.tab" format="2">
  <advance width="600"/>
  <outline>
    <contour>
      <point x="206" y="179" type="line"/>
      <point x="174" y="0" type="line"/>
      <point x="325" y="0" type="line"/>
      <point x="357" y="179" type="line"/>
    </contour>
  </outline>
</glyph>
<glyph name="plus.sub" format="2">
  <advance width="390"/>
  <outline>
    <contour>
      <point x="4" y="45" type="line"/>
      <point x="304" y="45" type="line"/>
      <point x="321" y="142" type="line"/>
      <point x="21" y="142" type="line"/>
    </contour>
    <contour>
      <point x="140" y="251" type="line"/>
      <point x="84" y="-64" type="line"/>
      <point x="186" y="-64" type="line"/>
      <point x="242" y="251" type="line"/>
    </contour>
  </outline>
</glyph>
<glyph name="plus.sup" format="2">
  <advance width="390"/>
  <outline>
    <contour>
      <point x="102" y="555" type="line"/>
      <point x="402" y="555" type="line"/>
      <point x="419" y="652" type="line"/>
      <point x="119" y="652" type="line"/>
    </contour>
    <contour>
      <point x="238" y="761" type="line"/>
      <point x="182" y="446" type="line"/>
      <point x="284" y="446" type="line"/>
      <point x="340" y="761" type="line"/>
    </contour>
  </outline>
</glyph>
<glyph name="plus.tab" format="2">
  <advance width="600"/>
  <outline>
    <contour>
      <point x="549" y="280" type="line"/>
      <point x="571" y="400" type="line"/>
      <point x="83" y="400" type="line"/>
      <point x="61" y="280" type="line"/>
    </contour>
    <contour>
      <point x="424" y="594" type="line"/>
      <point x="298" y="594" type="line"/>
      <point x="208" y="86" type="line"/>
      <point x="334" y="86" type="line"/>
    </contour>
  </outline>
</glyph>
<glyph name="plusminus.tab" format="2">
  <advance width="600"/>
  <outline>
    <contour>
      <point x="564" y="361" type="line"/>
      <point x="585" y="481" type="line"/>
      <point x="97" y="481" type="line"/>
      <point x="76" y="361" type="line"/>
    </contour>
    <contour>
      <point x="437" y="667" type="line"/>
      <point x="311" y="667" type="line"/>
      <point x="224" y="175" type="line"/>
      <point x="350" y="175" type="line"/>
    </contour>
    <contour>
      <point x="500" y="0" type="line"/>
      <point x="521" y="120" type="line"/>
      <point x="33" y="120" type="line"/>
      <point x="12" y="0" type="line"/>
    </contour>
  </outline>
</glyph>
<glyph name="seven.den" format="2">
  <advance width="354"/>
  <outline>
    <contour>
      <point x="47" y="392" type="line"/>
      <point x="18" y="231" type="line"/>
      <point x="119" y="231" type="line"/>
      <point x="138" y="337" type="line"/>
      <point x="92" y="302" type="line"/>
      <point x="302" y="302" type="line"/>
      <point x="270" y="346" type="line"/>
      <point x="153" y="235"/>
      <point x="64" y="134"/>
      <point x="34" y="0" type="curve"/>
      <point x="152" y="0" type="line"/>
      <point x="186" y="131"/>
      <point x="256" y="221"/>
      <point x="361" y="326" type="curve"/>
      <point x="373" y="392" type="line"/>
    </contour>
  </outline>
</glyph>
<glyph name="seven.num" format="2">
  <advance width="354"/>
  <outline>
    <contour>
      <point x="102" y="700" type="line"/>
      <point x="73" y="539" type="line"/>
      <point x="174" y="539" type="line"/>
      <point x="193" y="645" type="line"/>
      <point x="147" y="610" type="line"/>
      <point x="357" y="610" type="line"/>
      <point x="325" y="654" type="line"/>
      <point x="208" y="543"/>
      <point x="119" y="442"/>
      <point x="89" y="308" type="curve"/>
      <point x="207" y="308" type="line"/>
      <point x="241" y="439"/>
      <point x="311" y="529"/>
      <point x="416" y="634" type="curve"/>
      <point x="428" y="700" type="line"/>
    </contour>
  </outline>
</glyph>
<glyph name="seven.sub" format="2">
  <advance width="354"/>
  <outline>
    <contour>
      <point x="30" y="290" type="line"/>
      <point x="1" y="129" type="line"/>
      <point x="102" y="129" type="line"/>
      <point x="121" y="235" type="line"/>
      <point x="75" y="200" type="line"/>
      <point x="285" y="200" type="line"/>
      <point x="253" y="244" type="line"/>
      <point x="136" y="133"/>
      <point x="47" y="32"/>
      <point x="17" y="-102" type="curve"/>
      <point x="135" y="-102" type="line"/>
      <point x="169" y="29"/>
      <point x="239" y="119"/>
      <point x="344" y="224" type="curve"/>
      <point x="356" y="290" type="line"/>
    </contour>
  </outline>
</glyph>
<glyph name="seven.sup" format="2">
  <advance width="354"/>
  <outline>
    <contour>
      <point x="120" y="800" type="line"/>
      <point x="91" y="639" type="line"/>
      <point x="192" y="639" type="line"/>
      <point x="211" y="745" type="line"/>
      <point x="165" y="710" type="line"/>
      <point x="375" y="710" type="line"/>
      <point x="343" y="754" type="line"/>
      <point x="226" y="643"/>
      <point x="137" y="542"/>
      <point x="107" y="408" type="curve"/>
      <point x="225" y="408" type="line"/>
      <point x="259" y="539"/>
      <point x="329" y="629"/>
      <point x="434" y="734" type="curve"/>
      <point x="446" y="800" type="line"/>
    </contour>
  </outline>
</glyph>
